<svg width="288" height="253" viewBox="0 0 288 253" fill="none" xmlns="http://www.w3.org/2000/svg">
<path d="M6 215C46.2 44.7 176.5 33 271 18" stroke="#9A76FF" stroke-width="4"/>
<path d="M105 215V66H6" stroke="#FCFCFC" stroke-dasharray="4 4"/>
<path d="M109.7 66.4C109.7 69.2 107.2 71.7 104 71.7C100.8 71.7 98.3 69.3 98.3 66.4C98.3 63.6 100.8 61.1 104 61.1C107.2 61.1 109.7 63.6 109.7 66.4Z" fill="#1A143B" stroke="#9A76FF" stroke-width="3"/>
<path d="M210.4 26.6L184 33.4L163.5 39.1L139.5 48.2L118 57.7L98.4 71.7L75 86.5L54.5 109.6L37.4 137.3L26.6 159.6L17.8 176.3L11.4 198.3L8 216H272V16L230.9 23.2L210.4 26.6Z" fill="#767BFF" fill-opacity="0.2"/>
<path d="M77.9 20.4L76.1 15.5L71.7 19.3L77.9 20.4ZM60.9 7.80001L74 18L74.8 17.4L61.7 7.20001L60.9 7.80001Z" fill="white"/>
<path d="M129.2 43.8C129.2 43.7 129.1 43.6 129 43.7C128.9 43.7 128.8 43.8 128.8 43.9C128.7 44.5 128.5 45.2 128.2 45.7C127.9 46.3 127.4 46.7 127 47.1C126 47.9 124.8 48.4 123.6 49.1C123 49.4 122.4 49.8 121.8 50.3C122.1 50.9 122.3 51.6 122.5 52.3C122.5 52.4 122.6 52.6 122.6 52.7C122.7 52.6 123.4 50.6 125 49.4L124.4 50.9C124.4 50.9 124.5 50.9 124.5 50.8C125 50.4 125.6 50 126.1 49.5C126.7 49 127.2 48.6 127.8 48C128.3 47.4 128.8 46.7 129 46C129.1 45.2 129.2 44.5 129.2 43.8ZM82.7 53C82.7 52.9 82.7 52.9 82.6 52.8C82.5 52.4 82.3 52 82.1 51.7C81.9 51.3 81.7 51 81.5 50.7C81 50.1 80.5 49.6 79.9 49.2C79.3 48.8 78.8 48.5 78.2 48.3C77.8 48.1 77.8 48.4 78.1 48.7C79.6 49.8 80.4 51.4 80.4 51.4L80.3 50.2C80.8 50.7 81.1 51.8 81.3 52.8C81.8 52.8 82.3 52.9 82.7 53ZM130.6 49.7C129.7 50.1 128.8 50.7 127.9 51.4C127 52.1 126.2 53 125.5 54C124.4 55.4 123.5 57 122.6 58.5L124.3 57.5C122.5 62.7 117.1 64.4 116.9 64.5C116.5 64.6 116.2 64.7 115.8 64.8C115.6 64.8 115.5 64.8 115.3 64.9V64.8C115.2 64.6 114.9 64.5 114.8 64.3C114.8 64.2 114.7 64.2 114.7 64.1C115.6 63.4 116.5 62.6 117.4 61.8C118 61.2 118.5 60.6 119 59.9C119.5 59.2 120 58.4 120.3 57.6C120.7 56.8 120.9 55.8 121 54.9C121.1 54 121 53 120.8 52.2C120.4 50.5 119.6 49.1 118.8 47.8C118.2 46.8 117.5 45.8 117 44.8C116.9 44.7 114.6 40.9 115.6 39.1L116.1 40.2C116.4 39.1 117 38 117.9 37C118.8 35.9 119.9 35 121.1 34.2C121.2 34.1 121.2 34 121.2 33.9C121.1 33.8 121 33.8 120.9 33.8C119.6 34.5 118.4 35.3 117.2 36.3C116.6 36.8 116.1 37.3 115.6 38C115.1 38.6 114.7 39.3 114.5 40.1C114.4 40.5 114.3 40.9 114.2 41.3C114.2 41.7 114.1 42.1 114.2 42.5C114.2 43.3 114.4 44.1 114.6 44.9C115.1 46.4 115.7 47.7 116.3 49C116.8 50.1 117.2 51.1 117.3 52.1C118.5 51.2 119.1 50.3 119.1 50.3C120 51.8 117.4 55 116.1 56.4L116 56.5C115.9 56.7 115.7 56.8 115.5 57C115.4 57.1 115.4 57.1 115.4 57.1C115 57.4 114.7 57.8 114.2 58.1C113.5 58.6 112.8 59.1 112 59.6C111.8 59.5 111.6 59.5 111.5 59.3C111.3 59.1 111.2 59 111 58.9C110.8 58.8 111 58.2 110.8 58.1C110.9 57.7 111 57.2 111.1 56.8L111.3 55.8L111.4 55.3L111.5 54.8L111.6 53.8C111.6 53.5 111.6 53.1 111.7 52.8C111.7 52.6 111.7 52.5 111.7 52.3V51.8C111.7 51.5 111.7 51.1 111.6 50.8C111.5 49.4 111.1 48 110.4 46.7C109.7 45.4 108.7 44.4 107.7 43.6C106.1 42.3 104.4 41.5 102.8 40.7C102.3 40.5 98.5 38.7 98.4 37.3L99.1 37.7C98.5 36.8 98.2 35.8 98.2 34.7C98.2 34.6 98.1 34.6 98.1 34.5C98 34.5 97.9 34.6 97.9 34.6C97.7 35.8 97.9 37.1 98.4 38.2C98.6 38.8 99 39.3 99.4 39.8C99.8 40.3 100.2 40.7 100.7 41.2C101.6 42 102.6 42.8 103.5 43.5C104.3 44.2 105.1 44.8 105.8 45.5L105.5 43C108.5 45.6 107.6 50.9 107.6 50.9C107.6 51.1 107.5 51.4 107.5 51.6L107.4 52C107.4 52.1 107.3 52.2 107.3 52.4C107.2 52.6 107.2 52.9 107.1 53.1L106.9 53.8L106.8 54.2L106.7 54.6L106.4 55.3C106.3 55.6 106.2 55.9 106 56.2C105.8 56.1 105.6 56.1 105.4 56C105.2 56 105.1 55.1 104.9 55.1C104.8 55.1 104.7 55.2 104.7 55.3C104.5 54.8 104.3 54.3 104.1 53.7C104.1 53.7 101.3 49.1 102.7 47.2L104 49.4C104 49.3 104 49.3 104.1 49.2C104.3 48.4 104.7 47.6 105.2 46.8C105.1 46.5 104.9 46.2 104.7 46C104.3 45.3 103.7 44.7 103 44.3C102.8 44.5 102.6 44.8 102.4 45C101.8 45.7 101.1 46.6 100.5 47.5C99.9 48.5 99.4 49.6 99.2 50.8C99 51.9 98.9 53 98.9 54.1C98.2 53.6 97.6 53.1 97.1 52.6L97 52.5C97 52.4 96.9 52.4 96.9 52.3L96.7 52C96.6 51.9 96.6 51.8 96.5 51.7L96.3 51.3C96.3 51.3 93.1 47.4 93.4 44.8L95.5 46.8C95.5 46.4 95.5 45.9 95.5 45.5C95.5 44 95.5 42.5 95.4 40.9C95.3 39.3 94.9 37.7 94.2 36.2C93.5 34.7 92.6 33.4 91.4 32.3C90.3 31.2 89 30.4 87.7 29.6C87.6 29.5 87.4 29.6 87.4 29.7C87.3 29.8 87.3 30 87.4 30.1C88.5 31.1 89.6 32.1 90.4 33.2C90.9 33.9 91.3 34.6 91.6 35.3L92.2 34.6L92.5 38.9C92.5 39.6 92.5 40.3 92.5 41C92.4 42.4 92.1 43.8 91.8 45.3C91.5 46.8 91.3 48.4 91.3 50.1C91.3 50.5 91.3 51 91.4 51.4C91.4 51.6 91.5 51.9 91.5 52.1L91.6 52.8C91.7 53 91.7 53.3 91.8 53.5C91.9 53.7 91.9 54 92 54.2L92.3 54.9C92.4 55 92.4 55.1 92.4 55.2L92.6 55.5C93.2 56.6 94 57.6 94.8 58.5C94.6 58.5 94.4 58.4 94.3 58.5C94.1 58.6 94.4 59.3 94.3 59.4C94.1 59.6 93.6 59.3 93.4 59.5L93.3 59.6C93 59.3 92.8 58.9 92.5 58.6L92 58.1C91.8 57.9 91.6 57.8 91.5 57.6C90.8 57 90 56.5 89.3 56.1C88.9 55.9 88.6 55.8 88.3 55.6C88 55.5 87.6 55.3 87.3 55.2C86 54.8 84.8 54.6 83.7 54.4C81.4 54.1 79.3 53.8 77.2 52.9C76.1 52.4 75.1 51.7 74.1 50.7C73.1 49.7 72.3 48.5 71.5 47.2C71.4 47.1 71.3 47 71.2 47C71.1 47 71.1 47.2 71.1 47.3C71.7 48.7 72.5 50.2 73.5 51.5C74.5 52.8 75.7 53.9 76.9 54.7C78.1 55.5 79.3 56.1 80.5 56.6C81.7 57.1 82.9 57.5 84 57.9C84.4 58 84.7 58.2 85.1 58.3L83 56.3C88.1 57.8 90.1 61.6 90.2 61.8C90.5 62.3 90.8 62.9 91.1 63.6C91 63.7 90.8 63.7 90.8 63.9C90.7 64.1 90.4 64.2 90.3 64.5C90.2 64.7 90.8 65.1 90.7 65.3C90.7 65.4 90.6 65.5 90.6 65.5C90.5 65.5 90.4 65.5 90.3 65.4L90 65.5C89.8 65.4 89.5 65.4 89.3 65.3C89.3 65.3 85.2 64.5 83.5 60.4L84.9 61.2C84.7 60.8 84.5 60.4 84.3 60C83.4 59.6 82.5 59 81.6 58.5C81.9 59.8 82.2 61.2 82.7 62.6C83.2 64 83.9 65.4 84.9 66.6C85.9 67.8 87.1 68.8 88.3 69.5C88.6 69.7 88.9 69.8 89.2 70L89.7 70.2C89.9 70.3 90 70.3 90.2 70.4C90.4 70.5 90.7 70.6 90.9 70.7C90.9 70.9 90.9 71.1 90.9 71.2C91 71.4 91 71.6 91.1 71.8C91.2 72 91.3 72.2 91.4 72.4C91.5 72.6 91.6 72.8 91.7 73C91.8 73.2 91.6 73.5 91.7 73.7C91.8 73.9 91.8 74.1 92 74.3C92.1 74.5 91.9 74.9 92 75.1C92.1 75.3 92.9 75 93 75.2C93.1 75.4 93 75.7 93.2 75.9C93.3 76.1 93.5 76.2 93.6 76.4C93.7 76.6 93.8 76.8 93.9 77C94.1 77.2 94 77.6 94.1 77.7C94.3 77.8 95 77.3 95.1 77.5C95.3 77.6 95.4 77.7 95.6 77.9C95.8 78 95.9 78.2 96.1 78.3C96.3 78.4 96.3 78.8 96.5 78.9C96.7 79 97 78.9 97.2 79C97.4 79.1 97.5 79.4 97.7 79.5C97.9 79.6 98.2 79.3 98.4 79.4C98.6 79.5 98.6 80.2 98.8 80.3C99 80.4 99.3 80.3 99.5 80.4C99.7 80.5 99.9 80.4 100.2 80.5C100.4 80.5 100.6 80.7 100.8 80.8C101 80.8 101.2 80.9 101.5 80.9C101.7 80.9 102 80.5 102.2 80.5C102.4 80.5 102.6 81 102.8 81C103 81 103.2 80.2 103.4 80.2C103.6 80.2 103.9 80.8 104.1 80.7C104.3 80.7 104.5 80.1 104.7 80.1C104.9 80.1 105.1 80 105.3 80C105.5 80 105.7 80 105.9 79.9C106.1 79.8 106.3 79.8 106.5 79.7C106.7 79.6 106.9 79.5 107.1 79.4C107.3 79.3 107.7 79.6 107.9 79.5C108.1 79.4 108.2 79.2 108.4 79.1C108.6 79 108.6 78.7 108.8 78.5C109 78.4 109.2 78.3 109.3 78.2C109.5 78.1 109.9 78.3 110.1 78.2C110.3 78.1 110.6 78.2 110.8 78C111 77.9 110.7 77.2 110.9 77.1C111.1 77 111.6 77.2 111.8 77.1C112 77 111.8 76.5 111.9 76.3C112 76.1 112.4 76.2 112.5 76C112.6 75.8 112.6 75.5 112.7 75.4C112.8 75.2 113.3 75.3 113.4 75.1C113.5 74.9 113.3 74.5 113.4 74.4C113.5 74.2 113.4 73.9 113.5 73.7C113.6 73.5 114 73.4 114.1 73.2C114.2 73 114.4 72.9 114.5 72.7C114.6 72.5 114.1 72.1 114.2 71.9C114.3 71.7 114.5 71.5 114.5 71.3C114.6 71.1 114.5 70.9 114.6 70.7C114.6 70.6 114.6 70.4 114.6 70.3C114.9 70.2 115.3 70.1 115.6 69.9C116.7 69.4 117.8 68.8 118.9 67.9C119.9 67 120.9 65.9 121.6 64.8C122.3 63.7 122.9 62.5 123.4 61.4C124.4 59.2 125.2 57.1 126.2 55.1C126.7 54.1 127.3 53.2 128 52.4C128.7 51.6 129.5 50.9 130.3 50.3C130.4 50.3 130.4 50.2 130.4 50.1C130.7 49.8 130.7 49.7 130.6 49.7ZM90.2 53.7C90.1 53.5 90 53.2 90 53C89.9 52.8 89.9 52.5 89.8 52.3L89.7 51.6C89.7 51.4 89.6 51.1 89.6 50.9C89.6 50.5 89.5 50.1 89.5 49.8C87.9 49.8 85.9 49.4 84.3 47.4H86.3C84.6 45.9 83.1 44.1 81.2 42.4C80.2 41.5 79.1 40.7 77.9 40.2C77.7 40.1 77.6 40.1 77.4 40L76.9 39.9C76.6 39.8 76.2 39.8 75.9 39.7C75.7 39.7 75.6 39.7 75.4 39.7H74.9C74.6 39.7 74.3 39.8 73.9 39.8C73.8 39.8 73.8 39.9 73.8 40C73.8 40.1 73.9 40.1 74 40.1C75.2 40.1 76.4 40.5 77.3 41.1L77.1 40.4C79.1 41.7 80.6 44.9 80.7 45.1C81.7 46.7 82.6 48.4 83.9 50C84.7 51.1 85.7 52.2 87.1 53C87.2 53.1 87.3 53.1 87.4 53.2L87.7 53.3L88.2 53.6C88.6 53.8 89 53.9 89.4 54.1C89.7 54.2 90.1 54.3 90.5 54.4L90.2 53.7ZM106.8 41.1C106.8 41 106.8 40.9 106.8 40.8C106.7 38.6 106 36.7 105.2 34.9C105.2 34.8 105.1 34.7 104.9 34.8C104.8 34.8 104.7 34.9 104.7 35.1C104.9 36.1 105 37 105.1 37.9C105.1 38.7 105.1 39.4 105 40.1C105.6 40.4 106.2 40.7 106.8 41.1Z" fill="#9A76FF"/>
<path d="M108.4 65.6C108.4 67.4 107.5 69.1 106 70C105.1 70.1 104.1 70.1 103.1 70.1C102.1 70.1 101.1 70.1 100.2 70C98.8 69.1 97.8 67.4 97.8 65.6C97.8 64.6 98.1 63.6 98.6 62.8C99.5 62.9 100.4 63 101.4 63C101.4 63 102.5 63.3 103.1 63.3C103.7 63.3 104.7 63 104.7 63C105.7 63 106.6 62.9 107.5 62.8C108.1 63.6 108.4 64.6 108.4 65.6Z" fill="#F8F9FB"/>
<path d="M105.7 65C105.7 66.4 104.5 67.6 103.1 67.6C101.7 67.6 100.5 66.4 100.5 65C100.5 64.2 100.9 63.5 101.4 63C101.9 63 102.5 63 103 63C103.6 63 104.1 63 104.6 63L104.7 63.1C105.1 63.5 105.3 63.9 105.4 64.5C105.7 64.7 105.7 64.8 105.7 65Z" fill="#58595B"/>
<path d="M105.2 64.7C105.6 64.7 106 64.3 106 63.9C106 63.5 105.6 63.1 105.2 63.1C104.8 63.1 104.4 63.5 104.4 63.9C104.4 64.3 104.7 64.7 105.2 64.7Z" fill="#F8F9FB"/>
<path d="M104 65.2C104.2 65.2 104.4 65 104.4 64.8C104.4 64.6 104.2 64.4 104 64.4C103.8 64.4 103.6 64.6 103.6 64.8C103.6 65 103.8 65.2 104 65.2Z" fill="#F8F9FB"/>
<path d="M3.8 27C6.5 27 8 25.4 8 22.6C8 19.9 6.4 18.2 3.8 18.2H0.8V27H3.8ZM2.4 25.6V19.6H3.7C5.5 19.6 6.4 20.6 6.4 22.6C6.4 24.6 5.5 25.6 3.7 25.6H2.4ZM12.4 27.1C13.9 27.1 15 26.4 15.2 25.2L13.8 25C13.6 25.6 13.1 25.8 12.4 25.8C11.4 25.8 10.7 25.1 10.7 24H15.3V23.5C15.3 21.2 13.9 20.2 12.3 20.2C10.4 20.2 9.2 21.6 9.2 23.6C9.2 25.8 10.4 27.1 12.4 27.1ZM10.7 23.1C10.7 22.3 11.4 21.6 12.3 21.6C13.2 21.6 13.8 22.2 13.8 23.1H10.7ZM16.6 27H18.1V23.2C18.1 22.4 18.7 21.8 19.6 21.8C19.9 21.8 20.2 21.8 20.3 21.9V20.5C20.2 20.5 19.9 20.5 19.7 20.5C18.9 20.5 18.3 20.9 18.1 21.7H18V20.6H16.5V27H16.6ZM21.4 27H22.9V20.5H21.4V27ZM22.1 19.5C22.6 19.5 23 19.1 23 18.7C23 18.2 22.6 17.9 22.1 17.9C21.6 17.9 21.2 18.3 21.2 18.7C21.2 19.2 21.6 19.5 22.1 19.5ZM30.3 20.5H28.7L27.2 25.4H27.1L25.6 20.5H24L26.3 27H28L30.3 20.5ZM34.1 27.1C35.6 27.1 36.7 26.4 36.9 25.2L35.5 25C35.3 25.6 34.8 25.8 34.1 25.8C33.1 25.8 32.4 25.1 32.4 24H37V23.5C37 21.2 35.6 20.2 34 20.2C32.1 20.2 30.9 21.6 30.9 23.6C30.9 25.8 32.1 27.1 34.1 27.1ZM32.4 23.1C32.4 22.3 33.1 21.6 34 21.6C34.9 21.6 35.5 22.2 35.5 23.1H32.4ZM40.7 27.1C41.8 27.1 42.3 26.4 42.6 26H42.7V27H44.2V18.3H42.7V21.6H42.6C42.4 21.1 41.9 20.4 40.7 20.4C39.2 20.4 38 21.6 38 23.8C38 25.9 39.2 27.1 40.7 27.1ZM41.2 25.8C40.2 25.8 39.6 24.9 39.6 23.7C39.6 22.5 40.1 21.6 41.2 21.6C42.2 21.6 42.7 22.4 42.7 23.7C42.7 25 42.1 25.8 41.2 25.8ZM0.5 34.6H3.2V42H4.8V34.6H7.5V33.3H0.5V34.6ZM10.6 42.1C12.5 42.1 13.7 40.7 13.7 38.7C13.7 36.7 12.5 35.3 10.6 35.3C8.7 35.3 7.5 36.7 7.5 38.7C7.5 40.8 8.7 42.1 10.6 42.1ZM10.6 40.9C9.5 40.9 9 40 9 38.8C9 37.6 9.5 36.6 10.6 36.6C11.6 36.6 12.2 37.6 12.2 38.8C12.2 39.9 11.7 40.9 10.6 40.9ZM15.1 42H16.6V39.8L17.2 39.2L19.2 42H21L18.3 38.3L20.8 35.5H19L16.6 38.1H16.5V33.3H15V42H15.1ZM24.5 42.1C26 42.1 27.1 41.4 27.3 40.2L25.9 40C25.7 40.6 25.2 40.8 24.5 40.8C23.5 40.8 22.8 40.1 22.8 39H27.4V38.5C27.4 36.2 26 35.2 24.4 35.2C22.5 35.2 21.3 36.6 21.3 38.6C21.3 40.8 22.6 42.1 24.5 42.1ZM22.9 38.1C22.9 37.3 23.6 36.6 24.5 36.6C25.4 36.6 26 37.2 26 38.1H22.9ZM30.3 38.2C30.3 37.3 30.9 36.7 31.7 36.7C32.5 36.7 33 37.2 33 38.1V42H34.5V37.8C34.5 36.2 33.6 35.3 32.3 35.3C31.3 35.3 30.6 35.8 30.3 36.5H30.2V35.4H28.7V42H30.2V38.2H30.3ZM39.1 42H40.7V39.1H42.4C44.4 39.1 45.5 37.9 45.5 36.2C45.5 34.5 44.4 33.3 42.4 33.3H39.1V42ZM40.7 37.8V34.6H42.1C43.3 34.6 43.8 35.2 43.8 36.2C43.8 37.1 43.3 37.8 42.1 37.8H40.7ZM46.8 42H48.3V38.2C48.3 37.4 48.9 36.8 49.8 36.8C50.1 36.8 50.4 36.8 50.5 36.9V35.5C50.4 35.5 50.1 35.5 49.9 35.5C49.1 35.5 48.5 35.9 48.3 36.7H48.2V35.6H46.7V42H46.8ZM51.5 42H53V35.5H51.5V42ZM52.3 34.5C52.8 34.5 53.2 34.1 53.2 33.7C53.2 33.2 52.8 32.9 52.3 32.9C51.8 32.9 51.4 33.3 51.4 33.7C51.4 34.2 51.8 34.5 52.3 34.5ZM57.5 42.1C59.1 42.1 60.2 41.1 60.3 39.7H58.8C58.7 40.4 58.2 40.8 57.5 40.8C56.5 40.8 55.9 40 55.9 38.7C55.9 37.4 56.5 36.6 57.5 36.6C58.2 36.6 58.7 37.1 58.8 37.7H60.3C60.2 36.3 59.1 35.3 57.5 35.3C55.6 35.3 54.4 36.7 54.4 38.7C54.4 40.7 55.5 42.1 57.5 42.1ZM64.5 42.1C66 42.1 67.1 41.4 67.3 40.2L65.9 40C65.7 40.6 65.2 40.8 64.5 40.8C63.5 40.8 62.8 40.1 62.8 39H67.4V38.5C67.4 36.2 66 35.2 64.4 35.2C62.5 35.2 61.3 36.6 61.3 38.6C61.3 40.8 62.5 42.1 64.5 42.1ZM62.8 38.1C62.8 37.3 63.5 36.6 64.4 36.6C65.3 36.6 65.9 37.2 65.9 38.1H62.8Z" fill="white"/>
<path d="M161.5 139.6H164.2V147H165.8V139.6H168.5V138.3H161.5V139.6ZM171.6 147.1C173.5 147.1 174.7 145.7 174.7 143.7C174.7 141.7 173.5 140.3 171.6 140.3C169.7 140.3 168.5 141.7 168.5 143.7C168.5 145.8 169.7 147.1 171.6 147.1ZM171.6 145.9C170.5 145.9 170 145 170 143.8C170 142.6 170.5 141.6 171.6 141.6C172.6 141.6 173.2 142.6 173.2 143.8C173.2 144.9 172.7 145.9 171.6 145.9ZM176.1 147H177.6V144.8L178.2 144.2L180.2 147H182L179.3 143.3L181.8 140.5H180L177.6 143.1H177.5V138.3H176V147H176.1ZM185.5 147.1C187 147.1 188.1 146.4 188.3 145.2L186.9 145C186.7 145.6 186.2 145.8 185.5 145.8C184.5 145.8 183.8 145.1 183.8 144H188.4V143.5C188.4 141.2 187 140.2 185.4 140.2C183.5 140.2 182.3 141.6 182.3 143.6C182.3 145.8 183.6 147.1 185.5 147.1ZM183.9 143.1C183.9 142.3 184.6 141.6 185.5 141.6C186.4 141.6 187 142.2 187 143.1H183.9ZM191.3 143.2C191.3 142.3 191.9 141.7 192.7 141.7C193.5 141.7 194 142.2 194 143.1V147H195.5V142.8C195.5 141.2 194.6 140.3 193.3 140.3C192.3 140.3 191.6 140.8 191.3 141.5H191.2V140.4H189.7V146.9H191.2V143.2H191.3ZM161.9 162H167.3V160.7H163.5V153.3H161.9V162ZM168.6 162H170.1V155.5H168.6V162ZM169.4 154.5C169.9 154.5 170.3 154.1 170.3 153.7C170.3 153.2 169.9 152.9 169.4 152.9C168.9 152.9 168.5 153.3 168.5 153.7C168.5 154.2 168.9 154.5 169.4 154.5ZM177.6 164.5V155.5H176.1V156.6H176C175.8 156.1 175.3 155.4 174.1 155.4C172.6 155.4 171.4 156.6 171.4 158.8C171.4 161 172.6 162.2 174.1 162.2C175.2 162.2 175.7 161.5 176 161.1H176.1V164.6H177.6V164.5ZM176.1 158.7C176.1 160 175.5 160.8 174.6 160.8C173.6 160.8 173 159.9 173 158.7C173 157.5 173.5 156.6 174.6 156.6C175.6 156.6 176.1 157.5 176.1 158.7ZM183.4 159.2C183.4 160.2 182.7 160.7 182 160.7C181.3 160.7 180.8 160.2 180.8 159.3V155.4H179.3V159.6C179.3 161.2 180.2 162.1 181.5 162.1C182.5 162.1 183.2 161.6 183.5 160.9H183.6V162.1H185.1V155.6H183.6V159.2H183.4ZM186.5 162H188V155.5H186.5V162ZM187.3 154.5C187.8 154.5 188.2 154.1 188.2 153.7C188.2 153.2 187.8 152.9 187.3 152.9C186.8 152.9 186.4 153.3 186.4 153.7C186.4 154.2 186.8 154.5 187.3 154.5ZM192.1 162.1C193.2 162.1 193.7 161.4 194 161H194.1V162H195.6V153.3H194V156.6C193.8 156.1 193.3 155.4 192.1 155.4C190.6 155.4 189.4 156.6 189.4 158.8C189.4 160.9 190.5 162.1 192.1 162.1ZM192.5 160.8C191.5 160.8 190.9 159.9 190.9 158.7C190.9 157.5 191.4 156.6 192.5 156.6C193.5 156.6 194 157.4 194 158.7C194 160 193.5 160.8 192.5 160.8ZM197.2 162H198.7V155.5H197.2V162ZM198 154.5C198.5 154.5 198.9 154.1 198.9 153.7C198.9 153.2 198.5 152.9 198 152.9C197.5 152.9 197.1 153.3 197.1 153.7C197.1 154.2 197.5 154.5 198 154.5ZM203.6 155.5H202.3V153.9H200.8V155.5H199.9V156.7H200.8V160.3C200.8 161.5 201.7 162.1 202.8 162.1C203.2 162.1 203.5 162 203.7 161.9L203.4 160.7C203.3 160.7 203.1 160.8 202.9 160.8C202.5 160.8 202.2 160.7 202.2 160V156.6H203.5V155.5H203.6ZM205.9 164.5C207.1 164.5 207.8 163.9 208.2 162.8L210.8 155.5H209.2L207.7 160.4H207.6L206.1 155.5H204.5L206.9 162.2L206.8 162.6C206.5 163.3 206.1 163.4 205.4 163.2L205 164.4C205.1 164.4 205.4 164.5 205.9 164.5Z" fill="white"/>
<path d="M14.4 237.3V242.9C14.4 244 13.6 244.8 12.4 244.8C11.2 244.8 10.4 244 10.4 242.9V237.3H8.90002V243C8.90002 244.9 10.3 246.2 12.4 246.2C14.5 246.2 15.9 244.9 15.9 243V237.3H14.4ZM19.1 242.2C19.1 241.3 19.7 240.7 20.5 240.7C21.3 240.7 21.8 241.2 21.8 242.1V246H23.3V241.8C23.3 240.2 22.4 239.3 21.1 239.3C20.1 239.3 19.4 239.8 19.1 240.5H19V239.4H17.5V245.9H19V242.2H19.1ZM27.3 246.1C28.4 246.1 28.9 245.4 29.2 245H29.3V246H30.8V237.3H29.3V240.6H29.2C29 240.1 28.5 239.4 27.3 239.4C25.8 239.4 24.6 240.6 24.6 242.8C24.6 244.9 25.8 246.1 27.3 246.1ZM27.8 244.8C26.8 244.8 26.2 243.9 26.2 242.7C26.2 241.5 26.7 240.6 27.8 240.6C28.8 240.6 29.3 241.4 29.3 242.7C29.3 244 28.7 244.8 27.8 244.8ZM35.4 246.1C36.9 246.1 38 245.4 38.2 244.2L36.8 244C36.6 244.6 36.1 244.8 35.4 244.8C34.4 244.8 33.7 244.1 33.7 243H38.3V242.5C38.3 240.2 36.9 239.2 35.3 239.2C33.4 239.2 32.2 240.6 32.2 242.6C32.2 244.8 33.4 246.1 35.4 246.1ZM33.7 242.1C33.7 241.3 34.4 240.6 35.3 240.6C36.2 240.6 36.8 241.2 36.8 242.1H33.7ZM39.6 246H41.1V242.2C41.1 241.4 41.7 240.8 42.6 240.8C42.9 240.8 43.2 240.8 43.3 240.9V239.5C43.2 239.5 42.9 239.5 42.7 239.5C41.9 239.5 41.3 239.9 41.1 240.7H41V239.6H39.5V246H39.6ZM49.5 241.2C49.3 240.1 48.4 239.4 46.9 239.4C45.3 239.4 44.2 240.2 44.3 241.4C44.3 242.4 44.9 243 46.1 243.2L47.2 243.4C47.8 243.5 48.1 243.8 48.1 244.1C48.1 244.5 47.6 244.9 46.9 244.9C46.2 244.9 45.7 244.6 45.6 244L44.1 244.1C44.3 245.3 45.3 246 46.9 246C48.5 246 49.7 245.2 49.7 243.9C49.7 243 49.1 242.4 47.9 242.1L46.8 241.9C46.1 241.8 45.9 241.5 45.9 241.1C45.9 240.7 46.4 240.3 47 240.3C47.7 240.3 48.1 240.7 48.2 241.1L49.5 241.2ZM54.2 239.5H52.9V237.9H51.4V239.5H50.5V240.7H51.4V244.3C51.4 245.5 52.3 246.1 53.4 246.1C53.8 246.1 54.1 246 54.3 245.9L54 244.7C53.9 244.7 53.7 244.8 53.5 244.8C53.1 244.8 52.8 244.7 52.8 244V240.6H54.1V239.5H54.2ZM57.4 246.1C58.4 246.1 59 245.6 59.3 245.1H59.4V246H60.9V241.6C60.9 239.9 59.5 239.4 58.2 239.4C56.8 239.4 55.8 240 55.4 241.2L56.8 241.4C57 241 57.4 240.6 58.1 240.6C58.8 240.6 59.2 241 59.2 241.6C59.2 242 58.7 242.1 57.6 242.2C56.3 242.3 55.1 242.7 55.1 244.2C55.2 245.4 56.1 246.1 57.4 246.1ZM57.8 245C57.2 245 56.7 244.7 56.7 244.1C56.7 243.5 57.2 243.3 57.9 243.2C58.3 243.1 59.1 243 59.3 242.9V243.7C59.3 244.4 58.7 245 57.8 245ZM63.9 242.2C63.9 241.3 64.5 240.7 65.3 240.7C66.1 240.7 66.6 241.2 66.6 242.1V246H68.1V241.8C68.1 240.2 67.2 239.3 65.9 239.3C64.9 239.3 64.2 239.8 63.9 240.5H63.8V239.4H62.3V245.9H63.8V242.2H63.9ZM72.1 246.1C73.2 246.1 73.7 245.4 74 245H74.1V246H75.6V237.3H74.1V240.6H74C73.8 240.1 73.3 239.4 72.1 239.4C70.6 239.4 69.4 240.6 69.4 242.8C69.4 244.9 70.6 246.1 72.1 246.1ZM72.5 244.8C71.5 244.8 70.9 243.9 70.9 242.7C70.9 241.5 71.4 240.6 72.5 240.6C73.5 240.6 74 241.4 74 242.7C74.1 244 73.5 244.8 72.5 244.8ZM77.2 246H78.7V239.5H77.2V246ZM78 238.5C78.5 238.5 78.9 238.1 78.9 237.7C78.9 237.2 78.5 236.9 78 236.9C77.5 236.9 77.1 237.3 77.1 237.7C77.1 238.2 77.5 238.5 78 238.5ZM81.9 242.2C81.9 241.3 82.5 240.7 83.3 240.7C84.1 240.7 84.6 241.2 84.6 242.1V246H86.1V241.8C86.1 240.2 85.2 239.3 83.9 239.3C82.9 239.3 82.2 239.8 81.9 240.5H81.8V239.4H80.3V245.9H81.8V242.2H81.9ZM90.5 248.6C92.3 248.6 93.6 247.8 93.6 246.1V239.4H92.1V240.5H92C91.8 240 91.3 239.3 90.1 239.3C88.6 239.3 87.4 240.5 87.4 242.6C87.4 244.7 88.6 245.8 90.1 245.8C91.2 245.8 91.7 245.2 92 244.7H92.1V245.9C92.1 246.9 91.5 247.3 90.6 247.3C89.7 247.3 89.3 246.9 89.1 246.5L87.7 246.8C87.9 247.9 88.9 248.6 90.5 248.6ZM90.5 244.7C89.5 244.7 88.9 243.9 88.9 242.7C88.9 241.5 89.4 240.6 90.5 240.6C91.5 240.6 92 241.4 92 242.7C92.1 243.9 91.5 244.7 90.5 244.7ZM97.8 238.6H100.5V246H102.1V238.6H104.8V237.3H97.8V238.6ZM108 246.1C109.9 246.1 111.1 244.7 111.1 242.7C111.1 240.7 109.9 239.3 108 239.3C106.1 239.3 104.9 240.7 104.9 242.7C104.9 244.8 106.1 246.1 108 246.1ZM108 244.9C106.9 244.9 106.4 244 106.4 242.8C106.4 241.6 106.9 240.6 108 240.6C109 240.6 109.6 241.6 109.6 242.8C109.6 243.9 109 244.9 108 244.9ZM112.4 246H113.9V243.8L114.5 243.2L116.5 246H118.3L115.6 242.3L118.1 239.5H116.3L113.9 242.1H114V237.3H112.5V246H112.4ZM121.9 246.1C123.4 246.1 124.5 245.4 124.7 244.2L123.3 244C123.1 244.6 122.6 244.8 121.9 244.8C120.9 244.8 120.2 244.1 120.2 243H124.8V242.5C124.8 240.2 123.4 239.2 121.8 239.2C119.9 239.2 118.7 240.6 118.7 242.6C118.7 244.8 119.9 246.1 121.9 246.1ZM120.2 242.1C120.2 241.3 120.9 240.6 121.8 240.6C122.7 240.6 123.3 241.2 123.3 242.1H120.2ZM127.7 242.2C127.7 241.3 128.3 240.7 129.1 240.7C129.9 240.7 130.4 241.2 130.4 242.1V246H131.9V241.8C131.9 240.2 131 239.3 129.7 239.3C128.7 239.3 128 239.8 127.7 240.5H127.6V239.4H126.1V245.9H127.6V242.2H127.7ZM136.5 246H140C142 246 143 245 143 243.6C143 242.3 142.1 241.5 141.1 241.5V241.4C142 241.2 142.6 240.6 142.6 239.5C142.6 238.2 141.7 237.2 139.8 237.2H136.5V246ZM138 244.7V242.1H139.7C140.7 242.1 141.3 242.7 141.3 243.5C141.3 244.2 140.8 244.7 139.7 244.7H138ZM138 241V238.6H139.6C140.5 238.6 141 239.1 141 239.8C141 240.6 140.4 241 139.6 241H138ZM147.1 246.1C149 246.1 150.2 244.7 150.2 242.7C150.2 240.7 149 239.3 147.1 239.3C145.2 239.3 144 240.7 144 242.7C144 244.8 145.2 246.1 147.1 246.1ZM147.1 244.9C146 244.9 145.5 244 145.5 242.8C145.5 241.6 146 240.6 147.1 240.6C148.1 240.6 148.7 241.6 148.7 242.8C148.7 243.9 148.2 244.9 147.1 244.9ZM153.1 242.2C153.1 241.3 153.7 240.7 154.5 240.7C155.3 240.7 155.8 241.2 155.8 242.1V246H157.3V241.8C157.3 240.2 156.4 239.3 155.1 239.3C154.1 239.3 153.4 239.8 153.1 240.5H153V239.4H151.5V245.9H153V242.2H153.1ZM161.3 246.1C162.4 246.1 162.9 245.4 163.2 245H163.3V246H164.8V237.3H163.3V240.6H163.2C163 240.1 162.5 239.4 161.3 239.4C159.8 239.4 158.6 240.6 158.6 242.8C158.6 244.9 159.8 246.1 161.3 246.1ZM161.8 244.8C160.8 244.8 160.2 243.9 160.2 242.7C160.2 241.5 160.7 240.6 161.8 240.6C162.8 240.6 163.3 241.4 163.3 242.7C163.3 244 162.7 244.8 161.8 244.8ZM166.5 246H168V239.5H166.5V246ZM167.2 238.5C167.7 238.5 168.1 238.1 168.1 237.7C168.1 237.2 167.7 236.9 167.2 236.9C166.7 236.9 166.3 237.3 166.3 237.7C166.3 238.2 166.7 238.5 167.2 238.5ZM171.1 242.2C171.1 241.3 171.7 240.7 172.5 240.7C173.3 240.7 173.8 241.2 173.8 242.1V246H175.3V241.8C175.3 240.2 174.4 239.3 173.1 239.3C172.1 239.3 171.4 239.8 171.1 240.5H171V239.4H169.5V245.9H171V242.2H171.1ZM179.7 248.6C181.5 248.6 182.8 247.8 182.8 246.1V239.4H181.3V240.5H181.2C181 240 180.5 239.3 179.3 239.3C177.8 239.3 176.6 240.5 176.6 242.6C176.6 244.7 177.8 245.8 179.3 245.8C180.4 245.8 180.9 245.2 181.2 244.7H181.3V245.9C181.3 246.9 180.7 247.3 179.8 247.3C178.9 247.3 178.5 246.9 178.3 246.5L176.9 246.8C177.1 247.9 178.1 248.6 179.7 248.6ZM179.8 244.7C178.8 244.7 178.2 243.9 178.2 242.7C178.2 241.5 178.7 240.6 179.8 240.6C180.8 240.6 181.3 241.4 181.3 242.7C181.3 243.9 180.7 244.7 179.8 244.7ZM194.9 240.2C194.6 238.3 193.1 237.1 191.2 237.1C188.9 237.1 187.2 238.8 187.2 241.6C187.2 244.4 188.9 246.1 191.2 246.1C193.3 246.1 194.7 244.8 194.9 243.1H193.3C193.1 244.1 192.3 244.7 191.2 244.7C189.8 244.7 188.8 243.6 188.8 241.6C188.8 239.6 189.8 238.5 191.2 238.5C192.3 238.5 193.1 239.1 193.3 240.1H194.9V240.2ZM200.5 243.2C200.5 244.2 199.8 244.7 199.1 244.7C198.4 244.7 197.9 244.2 197.9 243.3V239.4H196.4V243.6C196.4 245.2 197.3 246.1 198.6 246.1C199.6 246.1 200.3 245.6 200.6 244.9H200.7V246.1H202.2V239.6H200.7V243.2H200.5ZM203.6 246H205.1V242.2C205.1 241.4 205.7 240.8 206.6 240.8C206.9 240.8 207.2 240.8 207.3 240.9V239.5C207.2 239.5 206.9 239.5 206.7 239.5C205.9 239.5 205.3 239.9 205.1 240.7H205V239.6H203.5V246H203.6ZM214.4 239.5H212.8L211.3 244.4H211.2L209.7 239.5H208L210.3 246H212L214.4 239.5ZM218.1 246.1C219.6 246.1 220.7 245.4 220.9 244.2L219.5 244C219.3 244.6 218.8 244.8 218.1 244.8C217.1 244.8 216.4 244.1 216.4 243H221V242.5C221 240.2 219.6 239.2 218 239.2C216.1 239.2 214.9 240.6 214.9 242.6C215 244.8 216.2 246.1 218.1 246.1ZM216.5 242.1C216.5 241.3 217.2 240.6 218.1 240.6C219 240.6 219.6 241.2 219.6 242.1H216.5ZM225.4 246H227V243.1H228.7C230.7 243.1 231.8 241.9 231.8 240.2C231.8 238.5 230.7 237.3 228.7 237.3H225.4V246ZM227 241.8V238.6H228.4C229.6 238.6 230.1 239.2 230.1 240.2C230.1 241.2 229.6 241.8 228.4 241.8H227ZM233.1 246H234.6V242.2C234.6 241.4 235.2 240.8 236.1 240.8C236.4 240.8 236.7 240.8 236.8 240.9V239.5C236.7 239.5 236.4 239.5 236.2 239.5C235.4 239.5 234.8 239.9 234.6 240.7H234.5V239.6H233V246H233.1ZM237.8 246H239.3V239.5H237.8V246ZM238.6 238.5C239.1 238.5 239.5 238.1 239.5 237.7C239.5 237.2 239.1 236.9 238.6 236.9C238.1 236.9 237.7 237.3 237.7 237.7C237.7 238.2 238.1 238.5 238.6 238.5ZM243.8 246.1C245.4 246.1 246.5 245.1 246.6 243.7H245.1C245 244.4 244.5 244.8 243.8 244.8C242.8 244.8 242.2 244 242.2 242.7C242.2 241.4 242.8 240.6 243.8 240.6C244.5 240.6 245 241.1 245.1 241.7H246.6C246.5 240.3 245.4 239.3 243.8 239.3C241.9 239.3 240.7 240.7 240.7 242.7C240.7 244.7 241.8 246.1 243.8 246.1ZM247.9 246H249.4V239.5H247.9V246ZM248.6 238.5C249.1 238.5 249.5 238.1 249.5 237.7C249.5 237.2 249.1 236.9 248.6 236.9C248.1 236.9 247.7 237.3 247.7 237.7C247.7 238.2 248.1 238.5 248.6 238.5ZM252.5 242.2C252.5 241.3 253.1 240.7 253.9 240.7C254.7 240.7 255.2 241.2 255.2 242.1V246H256.7V241.8C256.7 240.2 255.8 239.3 254.5 239.3C253.5 239.3 252.8 239.8 252.5 240.5H252.4V239.4H251V245.9H252.5V242.2ZM261.2 248.6C263 248.6 264.3 247.8 264.3 246.1V239.4H262.8V240.5H262.7C262.5 240 262 239.3 260.8 239.3C259.3 239.3 258.1 240.5 258.1 242.6C258.1 244.7 259.3 245.8 260.8 245.8C261.9 245.8 262.4 245.2 262.7 244.7H262.8V245.9C262.8 246.9 262.2 247.3 261.3 247.3C260.4 247.3 260 246.9 259.8 246.5L258.4 246.8C258.5 247.9 259.5 248.6 261.2 248.6ZM261.2 244.7C260.2 244.7 259.6 243.9 259.6 242.7C259.6 241.5 260.1 240.6 261.2 240.6C262.2 240.6 262.7 241.4 262.7 242.7C262.7 243.9 262.2 244.7 261.2 244.7Z" fill="white"/>
<path d="M0.758523 12V3.27273H6.6392V4.79403H2.60369V6.87358H6.33665V8.39489H2.60369V10.4787H6.65625V12H0.758523ZM14.1744 5.45455L11.886 12H9.84055L7.5522 5.45455H9.46982L10.8292 10.1378H10.8974L12.2525 5.45455H14.1744ZM15.1033 12V5.45455H16.9187V12H15.1033ZM16.0153 4.6108C15.7454 4.6108 15.5138 4.52131 15.3207 4.34233C15.1303 4.16051 15.0352 3.94318 15.0352 3.69034C15.0352 3.44034 15.1303 3.22585 15.3207 3.04688C15.5138 2.86506 15.7454 2.77415 16.0153 2.77415C16.2852 2.77415 16.5153 2.86506 16.7056 3.04688C16.8988 3.22585 16.9954 3.44034 16.9954 3.69034C16.9954 3.94318 16.8988 4.16051 16.7056 4.34233C16.5153 4.52131 16.2852 4.6108 16.0153 4.6108ZM20.1882 3.27273V12H18.3729V3.27273H20.1882ZM21.6765 12V3.27273H27.5572V4.79403H23.5217V6.87358H27.2546V8.39489H23.5217V10.4787H27.5742V12H21.6765ZM30.1108 14.4545C29.8807 14.4545 29.6648 14.4361 29.4631 14.3991C29.2642 14.3651 29.0994 14.321 28.9688 14.267L29.3778 12.9119C29.5909 12.9773 29.7827 13.0128 29.9531 13.0185C30.1264 13.0241 30.2756 12.9844 30.4006 12.8991C30.5284 12.8139 30.6321 12.669 30.7116 12.4645L30.8182 12.1875L28.4702 5.45455H30.3793L31.7344 10.2614H31.8026L33.1705 5.45455H35.0923L32.5483 12.7074C32.4261 13.0597 32.2599 13.3665 32.0497 13.6278C31.8423 13.892 31.5795 14.0952 31.2614 14.2372C30.9432 14.3821 30.5597 14.4545 30.1108 14.4545ZM38.7933 12.1278C38.12 12.1278 37.5405 11.9915 37.0547 11.7188C36.5717 11.4432 36.1996 11.054 35.9382 10.5511C35.6768 10.0455 35.5462 9.44744 35.5462 8.7571C35.5462 8.08381 35.6768 7.4929 35.9382 6.98438C36.1996 6.47585 36.5675 6.07955 37.0419 5.79545C37.5192 5.51136 38.0788 5.36932 38.7209 5.36932C39.1527 5.36932 39.5547 5.43892 39.9268 5.57812C40.3018 5.71449 40.6286 5.92045 40.907 6.19602C41.1882 6.47159 41.407 6.81818 41.5632 7.2358C41.7195 7.65057 41.7976 8.13636 41.7976 8.69318V9.19176H36.2706V8.06676H40.0888C40.0888 7.8054 40.032 7.57386 39.9183 7.37216C39.8047 7.17045 39.647 7.01278 39.4453 6.89915C39.2464 6.78267 39.0149 6.72443 38.7507 6.72443C38.4751 6.72443 38.2308 6.78835 38.0178 6.91619C37.8075 7.04119 37.6428 7.21023 37.5234 7.4233C37.4041 7.63352 37.343 7.8679 37.3402 8.12642V9.19602C37.3402 9.51989 37.3999 9.79972 37.5192 10.0355C37.6413 10.2713 37.8132 10.4531 38.0348 10.581C38.2564 10.7088 38.5192 10.7727 38.8232 10.7727C39.0249 10.7727 39.2095 10.7443 39.3771 10.6875C39.5447 10.6307 39.6882 10.5455 39.8075 10.4318C39.9268 10.3182 40.0178 10.179 40.0803 10.0142L41.7592 10.125C41.674 10.5284 41.4993 10.8807 41.2351 11.1818C40.9737 11.4801 40.6357 11.7131 40.2209 11.8807C39.8089 12.0455 39.3331 12.1278 38.7933 12.1278Z" fill="white"/>
</svg>
