<svg width="205" height="57" viewBox="0 0 205 57" fill="none" xmlns="http://www.w3.org/2000/svg">
<g clip-path="url(#clip0_33_2)">
<path d="M37.1 6C37.1 5.8 37.2 5.7 37.3 5.7C37.4 5.7 37.5 5.7 37.6 5.8C38.5 7.8 39.3 9.9 39.3 12.3C39.3 12.4 39.3 12.5 39.3 12.7C38.7 12.3 38 11.9 37.4 11.6C37.5 10.8 37.6 10 37.5 9.2C37.4 8.1 37.3 7 37.1 6ZM3.1 11.5C4.5 11.5 5.8 11.9 6.8 12.6L6.6 11.8C8.8 13.3 10.5 16.8 10.6 17C11.7 18.7 12.7 20.6 14.1 22.4C15 23.6 16.1 24.8 17.6 25.7C17.7 25.8 17.8 25.8 17.9 25.9L18.2 26.1L18.8 26.4C19.2 26.6 19.7 26.7 20.1 26.9C20.5 27 20.9 27.1 21.3 27.2L21 26.5C20.9 26.3 20.8 26 20.7 25.7C20.6 25.4 20.5 25.2 20.5 24.9L20.4 24.1C20.4 23.8 20.3 23.6 20.3 23.3C20.3 22.9 20.2 22.4 20.2 22C18.5 22 16.3 21.5 14.4 19.3H16.7C14.8 18 13.1 15.9 11 14C9.9 13 8.7 12.1 7.3 11.6C7.1 11.5 7 11.5 6.8 11.4L6.3 11.3C5.9 11.2 5.6 11.2 5.2 11.1C5 11.1 4.8 11.1 4.7 11.1H4.2C3.8 11.1 3.5 11.2 3.1 11.3C3 11.3 2.9 11.4 3 11.5C2.9 11.5 3 11.5 3.1 11.5ZM65.6 22.2C64.6 22.6 63.6 23.3 62.6 24.1C61.6 24.9 60.7 25.9 59.9 27C58.7 28.6 57.7 30.3 56.7 31.9L58.6 30.8C56.6 36.5 50.7 38.4 50.5 38.5C50.1 38.6 49.7 38.7 49.3 38.8C49.1 38.8 49 38.8 48.8 38.9V38.8C48.7 38.6 48.3 38.4 48.2 38.2C48.2 38.1 48.1 38 48.1 38C49.1 37.2 50.1 36.4 51 35.4C51.6 34.8 52.2 34.1 52.8 33.3C53.4 32.5 53.9 31.7 54.3 30.8C54.7 29.9 55 28.9 55.1 27.8C55.2 26.8 55.1 25.7 54.9 24.8C54.4 22.9 53.5 21.4 52.7 20C52 18.9 51.3 17.8 50.7 16.7C50.6 16.6 48.1 12.3 49.1 10.4L49.7 11.7C50 10.5 50.7 9.3 51.7 8.2C52.7 7 53.9 6 55.2 5.1C55.3 5 55.3 4.9 55.3 4.8C55.2 4.7 55.1 4.6 55 4.7C53.6 5.5 52.2 6.3 51 7.4C50.4 7.9 49.8 8.5 49.3 9.2C48.8 9.9 48.3 10.7 48.1 11.5C47.9 11.9 47.9 12.4 47.8 12.8C47.8 13.3 47.7 13.7 47.8 14.2C47.8 15.1 48 16 48.3 16.8C48.8 18.5 49.5 19.9 50.2 21.4C50.7 22.6 51.2 23.8 51.4 24.8C52.7 23.8 53.4 22.8 53.4 22.8C54.4 24.5 51.5 28 50.1 29.6L50 29.7C49.8 29.9 49.7 30.1 49.5 30.3C49.4 30.4 49.4 30.4 49.4 30.4C49 30.8 48.6 31.1 48.1 31.5C47.3 32.1 46.5 32.6 45.6 33.1C45.4 33 45.2 32.9 45.1 32.8C44.9 32.6 44.7 32.5 44.6 32.3C44.4 32.1 44.6 31.6 44.4 31.4C44.5 30.9 44.6 30.4 44.7 29.9L44.9 28.8L45 28.3L45.1 27.8L45.2 26.7C45.2 26.3 45.2 26 45.3 25.6C45.3 25.4 45.3 25.2 45.3 25V24.4C45.3 24 45.3 23.7 45.2 23.3C45.1 21.8 44.7 20.2 43.9 18.8C43.1 17.4 42.1 16.2 40.9 15.3C39.1 13.9 37.2 13 35.5 12.1C35 11.9 30.7 9.9 30.6 8.3L31.4 8.7C30.8 7.7 30.4 6.6 30.4 5.4C30.4 5.3 30.3 5.2 30.2 5.2C30.1 5.2 30 5.3 30 5.4C29.8 6.7 30 8.1 30.5 9.4C30.8 10.1 31.2 10.6 31.6 11.2C32 11.7 32.5 12.2 33 12.7C34 13.6 35.1 14.4 36.1 15.2C37 15.9 37.9 16.7 38.6 17.4L38.3 14.7C41.6 17.6 40.7 23.4 40.7 23.4C40.7 23.7 40.6 23.9 40.6 24.2L40 24.7C40 24.8 39.9 25 39.9 25.1C39.8 25.4 39.8 25.6 39.7 25.9L39.4 26.7L39.3 27.1L39.1 27.5L38.8 28.3C38.7 28.6 38.5 28.9 38.4 29.3C38.2 29.2 38 29.2 37.8 29.1C37.6 29.1 37.5 28.1 37.2 28.1C37.1 28.1 37 28.2 36.9 28.3C36.6 27.7 36.4 27.1 36.2 26.6C36.2 26.6 33.1 21.6 34.6 19.5L36 22C36 21.9 36 21.8 36.1 21.8C36.4 21 36.8 20.1 37.3 19.1C37.1 18.8 37 18.5 36.8 18.2C36.3 17.5 35.7 16.7 35 16.3C34.8 16.6 34.6 16.8 34.3 17.1C33.6 17.9 32.9 18.8 32.2 19.9C31.5 21 31 22.3 30.7 23.6C30.4 24.8 30.4 26 30.4 27.2C29.6 26.7 29 26.1 28.5 25.5L28.4 25.3C28.4 25.2 28.3 25.2 28.3 25.1L28.1 24.7C28 24.6 28 24.4 27.9 24.3L27.7 24C27.7 24 24.2 19.7 24.5 16.9L26.9 19.1C26.9 18.6 26.9 18.1 26.9 17.7C26.9 16.1 26.9 14.3 26.8 12.6C26.6 10.8 26.3 9 25.5 7.4C24.8 5.7 23.7 4.3 22.4 3.1C21.1 1.9 19.7 1 18.3 0.0999998C18.2 -1.52737e-07 18 0.0999999 17.9 0.2C17.8 0.3 17.8 0.5 17.9 0.6C19.1 1.7 20.3 2.8 21.2 4.1C21.7 4.8 22.2 5.6 22.5 6.4L23.2 5.6L23.5 10.3C23.5 11.1 23.5 11.9 23.5 12.7C23.4 14.2 23.1 15.8 22.8 17.4C22.5 19 22.2 20.8 22.2 22.7C22.2 23.2 22.2 23.7 22.3 24.2C22.3 24.5 22.4 24.7 22.4 25L22.5 25.8C22.6 26.1 22.6 26.3 22.7 26.6C22.8 26.9 22.8 27.1 23 27.4L23.3 28.1C23.4 28.2 23.4 28.3 23.5 28.5L23.7 28.8C24.4 30 25.2 31.1 26.2 32.1C26 32.1 25.7 32 25.6 32.1C25.4 32.3 25.7 32.9 25.6 33.1C25.4 33.3 24.8 33 24.7 33.2L24.6 33.3C24.3 32.9 24 32.6 23.7 32.2L23 31.4C22.8 31.2 22.6 31 22.4 30.9C21.6 30.2 20.8 29.7 20 29.3C19.6 29.1 19.2 28.9 18.9 28.8C18.5 28.7 18.2 28.5 17.8 28.4C16.4 28 15.1 27.7 13.8 27.6C11.3 27.2 8.9 27 6.6 25.9C5.4 25.4 4.3 24.6 3.2 23.5C2.1 22.4 1.2 21.1 0.4 19.6C0.3 19.5 0.2 19.4 0.1 19.4C0 19.4 0 19.5 0 19.7C0.7 21.3 1.5 22.9 2.6 24.3C3.7 25.7 5 26.9 6.3 27.8C7.6 28.7 9 29.4 10.3 29.9C11.6 30.4 12.9 30.9 14.2 31.3C14.6 31.5 15 31.6 15.4 31.8L13.1 29.6C18.7 31.3 21 35.5 21.1 35.7C21.5 36.3 21.8 36.9 22 37.7C21.8 37.8 21.7 37.9 21.7 38C21.6 38.2 21.2 38.4 21.2 38.6C21.1 38.8 21.7 39.2 21.7 39.5C21.7 39.6 21.6 39.7 21.5 39.8C21.4 39.8 21.2 39.8 21.1 39.7L20.7 39.6C20.5 39.5 20.2 39.5 20 39.4C20 39.4 15.4 38.5 13.6 33.9L15.1 34.8C14.9 34.4 14.7 33.9 14.5 33.5C13.5 33 12.5 32.3 11.5 31.8C11.8 33.3 12.2 34.8 12.7 36.3C13.3 37.8 14.1 39.4 15.2 40.8C16.3 42.2 17.6 43.2 18.9 44C19.2 44.2 19.6 44.4 19.9 44.5L20.4 44.8C20.6 44.9 20.7 44.9 20.9 45C21.2 45.1 21.5 45.2 21.7 45.3C21.7 45.5 21.7 45.7 21.7 45.9C21.8 46.1 21.8 46.4 21.9 46.6C22 46.8 22.1 47 22.2 47.2C22.3 47.4 22.5 47.6 22.6 47.8C22.7 48 22.5 48.4 22.6 48.6C22.7 48.8 22.8 49.1 22.9 49.3C23 49.5 22.8 49.9 22.9 50.1C23 50.3 23.9 50 24 50.2C24.1 50.4 24 50.8 24.2 51C24.4 51.2 24.5 51.3 24.7 51.5C24.9 51.7 24.9 52 25.1 52.1C25.3 52.3 25.2 52.7 25.4 52.9C25.6 53.1 26.4 52.5 26.6 52.7C26.8 52.9 27 53 27.2 53.1C27.4 53.2 27.6 53.4 27.8 53.5C28 53.6 28 54 28.2 54.1C28.4 54.2 28.7 54.1 28.9 54.2C29.1 54.3 29.2 54.7 29.4 54.8C29.6 54.9 30 54.6 30.2 54.7C30.4 54.8 30.4 55.6 30.6 55.7C30.8 55.8 31.1 55.7 31.3 55.8C31.5 55.9 31.8 55.8 32 55.9C32.2 55.9 32.4 56.2 32.7 56.2C32.9 56.2 33.2 56.3 33.4 56.3C33.6 56.3 33.9 55.9 34.2 55.9C34.4 55.9 34.7 56.5 34.9 56.5C35.1 56.5 35.4 55.6 35.6 55.6C35.8 55.6 36.1 56.2 36.4 56.2C36.6 56.2 36.8 55.5 37 55.5C37.2 55.5 37.5 55.4 37.7 55.4C37.9 55.4 38.2 55.4 38.4 55.3C38.6 55.2 38.8 55.2 39.1 55.1C39.3 55 39.5 54.9 39.7 54.8C39.9 54.7 40.3 55.1 40.5 55C40.7 54.9 40.9 54.7 41.1 54.5C41.3 54.4 41.4 54 41.6 53.9C41.8 53.8 42 53.7 42.2 53.5C42.4 53.4 42.9 53.6 43.1 53.5C43.3 53.4 43.7 53.5 43.9 53.3C44.1 53.1 43.8 52.5 44 52.3C44.2 52.1 44.8 52.4 45 52.3C45.2 52.1 45 51.6 45.2 51.5C45.4 51.3 45.8 51.4 45.9 51.2C46.1 51 46 50.7 46.2 50.5C46.3 50.3 46.9 50.4 47 50.2C47.1 50 46.9 49.6 47.1 49.4C47.2 49.2 47.1 48.9 47.2 48.6C47.3 48.4 47.7 48.3 47.8 48.1C47.9 47.9 48.2 47.7 48.3 47.5C48.4 47.3 47.9 46.8 47.9 46.6C48 46.4 48.2 46.2 48.2 46C48.3 45.8 48.2 45.5 48.3 45.3C48.3 45.1 48.3 45 48.3 44.8C48.7 44.7 49.1 44.5 49.5 44.4C50.7 43.9 52 43.1 53.1 42.2C54.2 41.2 55.3 40 56.1 38.8C56.9 37.5 57.5 36.3 58.1 35.1C59.2 32.6 60 30.3 61.2 28.1C61.8 27 62.4 26 63.2 25.1C64 24.2 64.8 23.4 65.8 22.7C65.9 22.7 65.9 22.6 65.9 22.5C65.7 22.2 65.7 22.2 65.6 22.2ZM12.8 25.7C12.8 25.6 12.8 25.6 12.7 25.5C12.5 25.1 12.4 24.7 12.1 24.3C11.9 23.9 11.7 23.5 11.4 23.2C10.9 22.5 10.3 22 9.7 21.5C9.1 21.1 8.5 20.7 7.8 20.5C7.4 20.3 7.3 20.6 7.7 21C9.4 22.2 10.2 24 10.2 24L10.1 22.6C10.7 23.2 11 24.3 11.2 25.5C11.8 25.6 12.3 25.7 12.8 25.7ZM56.6 25.4C56.7 25.2 57.5 23.1 59.3 21.8L58.6 23.4C58.6 23.4 58.7 23.4 58.7 23.3C59.3 22.8 59.9 22.4 60.5 21.9C61.1 21.4 61.8 20.9 62.3 20.2C62.9 19.6 63.4 18.8 63.7 18C64 17.2 64.1 16.4 64 15.7C64 15.6 63.9 15.5 63.8 15.5C63.7 15.5 63.6 15.6 63.6 15.7C63.5 16.4 63.3 17.1 62.9 17.7C62.6 18.3 62.1 18.8 61.5 19.2C60.4 20.1 59.1 20.6 57.7 21.4C57 21.8 56.3 22.2 55.7 22.7C56 23.4 56.3 24.1 56.5 24.9C56.6 25.1 56.6 25.2 56.6 25.4Z" fill="url(#paint0_radial_33_2)"/>
<path d="M41.4 48.7C39.6 49.1 34.4 47.3 34.4 47.3C31.2 40.6 36 35.8 36 35.8C36 35.8 38.7 37.4 41.1 38.3C41.3 38.6 41.5 39.1 41.8 39.2C42.1 39.3 42.7 38.8 42.7 38.8C43.2 38.9 43.6 39 43.9 39C45.8 38.8 46.4 38.3 46.4 38.3C48.6 44.3 43.3 48.3 41.4 48.7Z" fill="white"/>
<path d="M42.9 40.4C42.9 40.7 42.9 41 42.8 41.4V41.5C42.2 44.4 39.6 46.7 39.6 46.7C39.6 46.7 39.9 44.4 40.5 41.5C40.7 40.3 41 39.2 41.2 38.4C41.8 38.6 42.3 38.8 42.8 39C42.8 39.3 42.9 39.8 42.9 40.4Z" fill="#58595B"/>
<path d="M42.6 41.4C42.9 41.4 43.2 41.2 43.2 40.8C43.2 40.5 43 40.2 42.6 40.2C42.3 40.2 42 40.4 42 40.8C42 41.1 42.3 41.4 42.6 41.4Z" fill="white"/>
<path d="M41.7 41.6C41.8 41.6 41.9 41.5 41.9 41.4C41.9 41.3 41.8 41.2 41.7 41.2C41.6 41.2 41.5 41.3 41.5 41.4C41.5 41.5 41.6 41.6 41.7 41.6Z" fill="white"/>
<path d="M73.517 44V26.5455H85.2784V29.5881H77.2074V33.7472H84.6733V36.7898H77.2074V40.9574H85.3125V44H73.517ZM100.349 30.9091L95.772 44H91.6811L87.1044 30.9091H90.9396L93.6584 40.2756H93.7947L96.505 30.9091H100.349ZM102.207 44V30.9091H105.837V44H102.207ZM104.031 29.2216C103.491 29.2216 103.028 29.0426 102.641 28.6847C102.261 28.321 102.07 27.8864 102.07 27.3807C102.07 26.8807 102.261 26.4517 102.641 26.0938C103.028 25.7301 103.491 25.5483 104.031 25.5483C104.57 25.5483 105.031 25.7301 105.411 26.0938C105.798 26.4517 105.991 26.8807 105.991 27.3807C105.991 27.8864 105.798 28.321 105.411 28.6847C105.031 29.0426 104.57 29.2216 104.031 29.2216ZM112.376 26.5455V44H108.746V26.5455H112.376ZM115.353 44V26.5455H127.114V29.5881H119.043V33.7472H126.509V36.7898H119.043V40.9574H127.148V44H115.353ZM132.222 48.9091C131.761 48.9091 131.33 48.8722 130.926 48.7983C130.528 48.7301 130.199 48.642 129.938 48.5341L130.756 45.8239C131.182 45.9545 131.565 46.0256 131.906 46.0369C132.253 46.0483 132.551 45.9688 132.801 45.7983C133.057 45.6278 133.264 45.3381 133.423 44.929L133.636 44.375L128.94 30.9091H132.759L135.469 40.5227H135.605L138.341 30.9091H142.185L137.097 45.4148C136.852 46.1193 136.52 46.733 136.099 47.2557C135.685 47.7841 135.159 48.1903 134.523 48.4744C133.886 48.7642 133.119 48.9091 132.222 48.9091ZM149.587 44.2557C148.24 44.2557 147.081 43.983 146.109 43.4375C145.143 42.8864 144.399 42.108 143.876 41.1023C143.354 40.0909 143.092 38.8949 143.092 37.5142C143.092 36.1676 143.354 34.9858 143.876 33.9688C144.399 32.9517 145.135 32.1591 146.084 31.5909C147.038 31.0227 148.158 30.7386 149.442 30.7386C150.305 30.7386 151.109 30.8778 151.854 31.1562C152.604 31.429 153.257 31.8409 153.814 32.392C154.376 32.9432 154.814 33.6364 155.126 34.4716C155.439 35.3011 155.595 36.2727 155.595 37.3864V38.3835H144.541V36.1335H152.178C152.178 35.6108 152.064 35.1477 151.837 34.7443C151.609 34.3409 151.294 34.0256 150.891 33.7983C150.493 33.5653 150.03 33.4489 149.501 33.4489C148.95 33.4489 148.462 33.5767 148.036 33.8324C147.615 34.0824 147.286 34.4205 147.047 34.8466C146.808 35.267 146.686 35.7358 146.68 36.2528V38.392C146.68 39.0398 146.8 39.5994 147.038 40.071C147.283 40.5426 147.626 40.9062 148.07 41.1619C148.513 41.4176 149.038 41.5455 149.646 41.5455C150.05 41.5455 150.419 41.4886 150.754 41.375C151.089 41.2614 151.376 41.0909 151.615 40.8636C151.854 40.6364 152.036 40.358 152.161 40.0284L155.518 40.25C155.348 41.0568 154.999 41.7614 154.47 42.3636C153.947 42.9602 153.271 43.4261 152.442 43.7614C151.618 44.0909 150.666 44.2557 149.587 44.2557Z" fill="white"/>
</g>
<defs>
<radialGradient id="paint0_radial_33_2" cx="0" cy="0" r="1" gradientUnits="userSpaceOnUse" gradientTransform="translate(35.5661 37.2013) rotate(70.9065) scale(16.5082 17.03)">
<stop stop-color="#18ADFA"/>
<stop offset="1" stop-color="#0B5C7E"/>
</radialGradient>
<clipPath id="clip0_33_2">
<rect width="204.1" height="56.5" fill="white"/>
</clipPath>
</defs>
</svg>
