<svg width="137" height="95" viewBox="0 0 137 95" fill="none" xmlns="http://www.w3.org/2000/svg">
<g clip-path="url(#clip0_34_2)">
<path d="M70.5 7.5C70.5 7.3 70.6 7.2 70.7 7.2C70.8 7.2 70.9 7.2 71 7.3C71.9 9.3 72.7 11.4 72.7 13.8C72.7 13.9 72.7 14 72.7 14.2C72.1 13.8 71.4 13.4 70.8 13.1C70.9 12.3 71 11.5 70.9 10.7C70.9 9.6 70.7 8.6 70.5 7.5ZM36.5 13.1C37.9 13.1 39.2 13.5 40.2 14.2L40 13.4C42.2 14.9 43.9 18.4 44 18.6C45.1 20.3 46.1 22.2 47.5 24C48.4 25.2 49.5 26.4 51 27.3C51.1 27.4 51.2 27.4 51.3 27.5L51.6 27.7L52.2 28C52.6 28.2 53 28.3 53.5 28.5C53.9 28.6 54.3 28.7 54.7 28.8L54.4 28.1C54.3 27.9 54.2 27.6 54.1 27.3C54 27 53.9 26.8 53.9 26.5L53.8 25.7C53.8 25.4 53.7 25.2 53.7 24.9C53.7 24.5 53.6 24 53.6 23.6C51.9 23.6 49.7 23.1 47.8 20.9H50.1C48.3 19.3 46.6 17.2 44.5 15.4C43.4 14.4 42.2 13.5 40.8 13C40.6 12.9 40.5 12.9 40.3 12.8L39.8 12.7C39.4 12.6 39.1 12.6 38.7 12.5C38.5 12.5 38.3 12.5 38.2 12.5H37.7C37.3 12.5 37 12.6 36.6 12.7C36.5 12.7 36.4 12.8 36.5 12.9C36.4 13 36.5 13.1 36.5 13.1ZM99.1 23.8C98.1 24.2 97.1 24.9 96.1 25.7C95.1 26.5 94.2 27.5 93.4 28.6C92.2 30.2 91.2 31.9 90.2 33.5L92.1 32.4C90.1 38.1 84.2 40 84 40.1C83.6 40.2 83.2 40.3 82.8 40.4C82.6 40.4 82.5 40.4 82.3 40.5V40.4C82.2 40.2 81.8 40 81.7 39.8C81.7 39.7 81.6 39.6 81.6 39.6C82.6 38.8 83.6 38 84.5 37C85.1 36.4 85.7 35.7 86.3 34.9C86.9 34.1 87.4 33.3 87.8 32.4C88.2 31.5 88.5 30.5 88.6 29.4C88.7 28.4 88.6 27.3 88.4 26.4C87.9 24.5 87 23 86.2 21.6C85.5 20.5 84.8 19.4 84.2 18.3C84.1 18.2 81.6 13.9 82.6 12L83.2 13.3C83.5 12.1 84.2 10.9 85.2 9.8C86.2 8.6 87.4 7.6 88.7 6.7C88.8 6.6 88.8 6.5 88.8 6.4C88.6 6 88.5 6 88.4 6C87 6.8 85.6 7.6 84.4 8.7C83.8 9.2 83.2 9.8 82.7 10.5C82.2 11.2 81.7 12 81.5 12.8C81.3 13.2 81.3 13.7 81.2 14.1C81.2 14.6 81.1 15 81.2 15.5C81.2 16.4 81.4 17.3 81.7 18.1C82.2 19.8 82.9 21.2 83.6 22.7C84.1 23.9 84.6 25.1 84.8 26.1C86.1 25.1 86.8 24.1 86.8 24.1C87.8 25.8 84.9 29.3 83.5 30.9L83.4 31C83.2 31.2 83.1 31.4 82.9 31.6C82.8 31.7 82.8 31.7 82.8 31.7C82.4 32.1 82 32.4 81.5 32.8C80.7 33.4 79.9 33.9 79 34.4C78.8 34.3 78.6 34.2 78.5 34.1C78.3 33.9 78.1 33.8 78 33.6C77.8 33.4 78 32.9 77.8 32.7C77.9 32.2 78 31.7 78.1 31.2L78.3 30.1L78.4 29.6L78.5 29.1L78.6 28C78.6 27.6 78.6 27.3 78.7 26.9C78.7 26.7 78.7 26.5 78.7 26.3V25.7C78.7 25.3 78.7 25 78.6 24.6C78.5 23.1 78.1 21.5 77.3 20.1C76.5 18.7 75.5 17.5 74.3 16.6C72.5 15.2 70.6 14.3 68.9 13.4C68.4 13.2 64.1 11.2 64 9.6L64.8 10C64.2 9 63.8 7.9 63.8 6.7C63.8 6.6 63.7 6.5 63.6 6.5C63.5 6.5 63.4 6.6 63.4 6.7C63.2 8 63.4 9.4 63.9 10.7C64.2 11.4 64.6 11.9 65 12.5C65.4 13 65.9 13.5 66.4 14C67.4 14.9 68.5 15.7 69.5 16.5C70.4 17.2 71.3 18 72 18.7L71.7 16C75 18.9 74.1 24.7 74.1 24.7C74.1 25 74 25.2 74 25.5L73.9 25.9C73.9 26 73.8 26.2 73.8 26.3C73.7 26.6 73.7 26.8 73.6 27.1L73.3 27.9L73.2 28.3L73 28.7L72.3 30C72.2 30.3 72 30.6 71.9 31C71.7 30.9 71.5 30.9 71.3 30.8C71.1 30.8 71 29.8 70.7 29.8C70.6 29.8 70.5 29.9 70.4 30C70.1 29.4 69.9 28.8 69.7 28.3C69.7 28.3 66.6 23.3 68.1 21.2L69.5 23.7C69.5 23.6 69.5 23.5 69.6 23.5C69.9 22.7 70.3 21.8 70.8 20.8C70.6 20.5 70.5 20.2 70.3 19.9C69.8 19.2 69.2 18.4 68.5 18C68.3 18.3 68.1 18.5 67.8 18.8C67.1 19.6 66.4 20.5 65.7 21.6C65 22.7 64.5 24 64.2 25.3C63.9 26.5 63.9 27.7 63.9 28.9C63.1 28.4 62.5 27.8 62 27.2L61.9 27C61.9 26.9 61.8 26.9 61.8 26.8L61.6 26.4C61.5 26.3 61.5 26.1 61.4 26L61.2 25.6C61.2 25.6 57.7 21.3 58 18.5L60.4 20.7C60.4 20.2 60.4 19.7 60.4 19.3C60.4 17.7 60.4 15.9 60.3 14.2C60.1 12.4 59.8 10.6 59 9C58.3 7.3 57.2 5.9 55.9 4.7C54.6 3.5 53.2 2.6 51.8 1.7C51.7 1.6 51.5 1.7 51.4 1.8C51.3 1.9 51.3 2.1 51.4 2.2C52.6 3.3 53.8 4.4 54.7 5.7C55.2 6.4 55.7 7.2 56 8L56.7 7L57 11.7C57 12.5 57 13.3 57 14.1C56.9 15.6 56.6 17.2 56.3 18.8C56 20.4 55.7 22.2 55.7 24.1C55.7 24.6 55.7 25.1 55.8 25.6C55.8 25.9 55.9 26.1 55.9 26.4L56 27.2C56.1 27.5 56.1 27.7 56.2 28C56.3 28.3 56.3 28.5 56.5 28.8L56.8 29.5C56.9 29.6 56.9 29.7 57 29.9L57.2 30.2C57.9 31.4 58.7 32.5 59.7 33.5C59.5 33.5 59.2 33.4 59.1 33.5C58.9 33.7 59.2 34.3 59.1 34.5C58.9 34.7 58.3 34.4 58.2 34.6L58.1 34.7C57.8 34.3 57.5 34 57.2 33.6L56.5 33C56.3 32.8 56.1 32.6 55.9 32.5C55.1 31.8 54.3 31.3 53.5 30.9C53.1 30.7 52.7 30.5 52.4 30.4C52 30.3 51.7 30.1 51.3 30C49.9 29.6 48.6 29.3 47.3 29.2C44.8 28.8 42.4 28.6 40.1 27.5C38.9 27 37.8 26.2 36.7 25.1C35.6 24 34.7 22.7 33.9 21.2C33.8 21.1 33.7 21 33.6 21C33.5 21 33.5 21.2 33.5 21.3C34.2 22.9 35 24.5 36.1 25.9C37.2 27.3 38.5 28.5 39.8 29.4C41.1 30.3 42.5 31 43.8 31.5C45.1 32 46.4 32.5 47.7 32.9C48.1 33.1 48.5 33.2 48.9 33.4L46.6 31.2C52.2 32.9 54.5 37.1 54.6 37.3C55 37.9 55.3 38.5 55.5 39.3C55.3 39.4 55.2 39.5 55.2 39.6C55.1 39.8 54.7 40 54.7 40.2C54.6 40.4 55.2 40.8 55.2 41.1C55.2 41.2 55.1 41.3 55 41.4C54.9 41.4 54.7 41.4 54.6 41.3L54.2 41.2C54 41.1 53.7 41.1 53.5 41C53.5 41 48.9 40.1 47.1 35.5L48.6 36.4C48.4 36 48.2 35.5 48 35.1C47 34.6 46 33.9 45 33.4C45.3 34.9 45.7 36.4 46.2 37.9C46.8 39.4 47.6 41 48.7 42.4C49.8 43.8 51.1 44.8 52.4 45.6C52.7 45.8 53.1 46 53.4 46.1L53.9 46.4C54.1 46.5 54.2 46.5 54.4 46.6C54.7 46.7 55 46.8 55.2 46.9C55.2 47.1 55.2 47.3 55.2 47.5C55.3 47.7 55.3 48 55.4 48.2C55.5 48.4 55.6 48.6 55.7 48.8C55.8 49 56 49.2 56.1 49.4C56.2 49.6 56 50 56.1 50.2C56.2 50.4 56.3 50.7 56.4 50.9C56.5 51.1 56.3 51.5 56.4 51.7C56.5 51.9 57.4 51.6 57.5 51.8C57.6 52 57.5 52.4 57.7 52.6C57.9 52.8 58 52.9 58.2 53.1C58.4 53.3 58.4 53.6 58.6 53.7C58.8 53.9 58.7 54.3 58.9 54.5C59.1 54.7 59.9 54.1 60.1 54.3C60.3 54.5 60.5 54.6 60.7 54.7C60.9 54.8 61.1 55 61.3 55.1C61.5 55.2 61.5 55.6 61.7 55.7C61.9 55.8 62.2 55.7 62.4 55.8C62.6 55.9 62.7 56.3 62.9 56.4C63.1 56.5 63.5 56.2 63.7 56.3C63.9 56.4 63.9 57.2 64.1 57.3C64.3 57.4 64.6 57.3 64.8 57.4C65 57.5 65.3 57.4 65.5 57.5C65.7 57.5 65.9 57.8 66.2 57.8C66.4 57.8 66.7 57.9 66.9 57.9C67.1 57.9 67.4 57.5 67.7 57.5C67.9 57.5 68.2 58.1 68.4 58.1C68.6 58.1 68.9 57.2 69.1 57.2C69.3 57.2 69.6 57.8 69.9 57.8C70.1 57.8 70.3 57.1 70.5 57.1C70.7 57.1 71 57 71.2 57C71.4 57 71.7 57 71.9 56.9C72.1 56.8 72.3 56.8 72.6 56.7C72.8 56.6 73 56.5 73.2 56.4C73.4 56.3 73.8 56.7 74 56.6C74.2 56.5 74.4 56.3 74.6 56.1C74.8 56 74.9 55.6 75.1 55.5C75.3 55.4 75.5 55.3 75.7 55.1C75.9 55 76.4 55.2 76.6 55.1C76.8 55 77.2 55.1 77.4 54.9C77.6 54.7 77.3 54.1 77.5 53.9C77.7 53.7 78.3 54 78.5 53.9C78.7 53.7 78.5 53.2 78.7 53.1C78.9 52.9 79.3 53 79.4 52.8C79.6 52.6 79.5 52.3 79.7 52.1C79.8 51.9 80.4 52 80.5 51.8C80.6 51.6 80.4 51.2 80.6 51C80.7 50.8 80.6 50.5 80.7 50.2C80.8 50 81.2 49.9 81.3 49.7C81.4 49.5 81.7 49.3 81.8 49.1C81.9 48.9 81.4 48.4 81.4 48.2C81.5 48 81.7 47.8 81.7 47.6C81.8 47.4 81.7 47.1 81.8 46.9C81.8 46.7 81.8 46.6 81.8 46.4C82.2 46.3 82.6 46.1 83 46C84.2 45.5 85.5 44.7 86.6 43.8C87.7 42.8 88.8 41.6 89.6 40.4C90.4 39.1 91 37.9 91.6 36.7C92.7 34.2 93.5 31.9 94.7 29.7C95.3 28.6 95.9 27.6 96.7 26.7C97.5 25.8 98.3 25 99.3 24.3C99.4 24.3 99.4 24.2 99.4 24.1C99.2 23.8 99.1 23.7 99.1 23.8ZM46.2 27.3C46.2 27.2 46.2 27.2 46.1 27.1C45.9 26.7 45.8 26.3 45.5 25.9C45.3 25.5 45.1 25.1 44.8 24.8C44.3 24.1 43.7 23.6 43.1 23.1C42.5 22.7 41.9 22.3 41.2 22.1C40.8 21.9 40.7 22.2 41.1 22.6C42.8 23.8 43.6 25.6 43.6 25.6L43.5 24.2C44.1 24.8 44.4 25.9 44.6 27.1C45.2 27.1 45.7 27.2 46.2 27.3ZM90.1 26.9C90.2 26.7 91 24.6 92.8 23.3L92.1 25C92.1 25 92.2 25 92.2 24.9C92.8 24.4 93.4 24 94 23.5C94.6 23 95.3 22.5 95.8 21.8C96.4 21.2 96.9 20.4 97.2 19.6C97.5 18.8 97.6 18 97.5 17.3C97.5 17.2 97.4 17.1 97.3 17.1C97.2 17.1 97.1 17.2 97.1 17.3C97 18 96.8 18.7 96.4 19.3C96.1 19.9 95.6 20.4 95 20.8C93.9 21.7 92.6 22.2 91.2 23C90.5 23.4 89.8 23.8 89.2 24.3C89.5 25 89.8 25.7 90 26.5C90 26.6 90.1 26.8 90.1 26.9Z" fill="url(#paint0_radial_34_2)"/>
<path d="M74.9 50.2C73.1 50.6 67.9 48.8 67.9 48.8C64.7 42.2 69.5 37.3 69.5 37.3C69.5 37.3 72.2 38.9 74.6 39.8C74.8 40.1 75 40.6 75.3 40.7C75.6 40.8 76.2 40.3 76.2 40.3C76.7 40.4 77.1 40.5 77.4 40.5C79.3 40.3 79.9 39.8 79.9 39.8C82.1 45.8 76.8 49.8 74.9 50.2Z" fill="white"/>
<path d="M76.4 41.9C76.4 42.2 76.4 42.5 76.3 42.9V43C75.7 45.9 73.1 48.2 73.1 48.2C73.1 48.2 73.4 45.9 74 43C74.2 41.8 74.5 40.7 74.7 39.9C75.3 40.1 75.8 40.3 76.3 40.5C76.3 40.9 76.4 41.4 76.4 41.9Z" fill="#58595B"/>
<path d="M76.1 42.9C76.4 42.9 76.7 42.7 76.7 42.3C76.7 42 76.5 41.7 76.1 41.7C75.8 41.7 75.5 41.9 75.5 42.3C75.5 42.7 75.7 42.9 76.1 42.9Z" fill="white"/>
<path d="M75.2 43.1C75.3 43.1 75.4 43 75.4 42.9C75.4 42.8 75.3 42.7 75.2 42.7C75.1 42.7 75 42.8 75 42.9C75 43 75.1 43.1 75.2 43.1Z" fill="white"/>
<path d="M29.517 92V74.5455H41.2784V77.5881H33.2074V81.7472H40.6733V84.7898H33.2074V88.9574H41.3125V92H29.517ZM56.3487 78.9091L51.772 92H47.6811L43.1044 78.9091H46.9396L49.6584 88.2756H49.7947L52.505 78.9091H56.3487ZM58.2067 92V78.9091H61.8374V92H58.2067ZM60.0305 77.2216C59.4908 77.2216 59.0277 77.0426 58.6413 76.6847C58.2607 76.321 58.0703 75.8864 58.0703 75.3807C58.0703 74.8807 58.2607 74.4517 58.6413 74.0938C59.0277 73.7301 59.4908 73.5483 60.0305 73.5483C60.5703 73.5483 61.0305 73.7301 61.4112 74.0938C61.7976 74.4517 61.9908 74.8807 61.9908 75.3807C61.9908 75.8864 61.7976 76.321 61.4112 76.6847C61.0305 77.0426 60.5703 77.2216 60.0305 77.2216ZM68.3764 74.5455V92H64.7457V74.5455H68.3764ZM71.353 92V74.5455H83.1143V77.5881H75.0433V81.7472H82.5092V84.7898H75.0433V88.9574H83.1484V92H71.353ZM88.2216 96.9091C87.7614 96.9091 87.3295 96.8722 86.9261 96.7983C86.5284 96.7301 86.1989 96.642 85.9375 96.5341L86.7557 93.8239C87.1818 93.9545 87.5653 94.0256 87.9062 94.0369C88.2528 94.0483 88.5511 93.9688 88.8011 93.7983C89.0568 93.6278 89.2642 93.3381 89.4233 92.929L89.6364 92.375L84.9403 78.9091H88.7585L91.4688 88.5227H91.6051L94.3409 78.9091H98.1847L93.0966 93.4148C92.8523 94.1193 92.5199 94.733 92.0994 95.2557C91.6847 95.7841 91.1591 96.1903 90.5227 96.4744C89.8864 96.7642 89.1193 96.9091 88.2216 96.9091ZM105.587 92.2557C104.24 92.2557 103.081 91.983 102.109 91.4375C101.143 90.8864 100.399 90.108 99.8764 89.1023C99.3537 88.0909 99.0923 86.8949 99.0923 85.5142C99.0923 84.1676 99.3537 82.9858 99.8764 81.9688C100.399 80.9517 101.135 80.1591 102.084 79.5909C103.038 79.0227 104.158 78.7386 105.442 78.7386C106.305 78.7386 107.109 78.8778 107.854 79.1562C108.604 79.429 109.257 79.8409 109.814 80.392C110.376 80.9432 110.814 81.6364 111.126 82.4716C111.439 83.3011 111.595 84.2727 111.595 85.3864V86.3835H100.541V84.1335H108.178C108.178 83.6108 108.064 83.1477 107.837 82.7443C107.609 82.3409 107.294 82.0256 106.891 81.7983C106.493 81.5653 106.03 81.4489 105.501 81.4489C104.95 81.4489 104.462 81.5767 104.036 81.8324C103.615 82.0824 103.286 82.4205 103.047 82.8466C102.808 83.267 102.686 83.7358 102.68 84.2528V86.392C102.68 87.0398 102.8 87.5994 103.038 88.071C103.283 88.5426 103.626 88.9062 104.07 89.1619C104.513 89.4176 105.038 89.5455 105.646 89.5455C106.05 89.5455 106.419 89.4886 106.754 89.375C107.089 89.2614 107.376 89.0909 107.615 88.8636C107.854 88.6364 108.036 88.358 108.161 88.0284L111.518 88.25C111.348 89.0568 110.999 89.7614 110.47 90.3636C109.947 90.9602 109.271 91.4261 108.442 91.7614C107.618 92.0909 106.666 92.2557 105.587 92.2557Z" fill="white"/>
</g>
<defs>
<radialGradient id="paint0_radial_34_2" cx="0" cy="0" r="1" gradientUnits="userSpaceOnUse" gradientTransform="translate(69.0501 38.7532) rotate(70.9065) scale(16.5082 17.03)">
<stop stop-color="#18ADFA"/>
<stop offset="1" stop-color="#0B5C7E"/>
</radialGradient>
<clipPath id="clip0_34_2">
<rect width="136.5" height="94.8" fill="white"/>
</clipPath>
</defs>
</svg>
