<?xml version="1.0" encoding="utf-8"?>
<!-- Generator: Adobe Illustrator 25.3.1, SVG Export Plug-In . SVG Version: 6.00 Build 0)  -->
<svg version="1.1" id="Layer_1" xmlns="http://www.w3.org/2000/svg" xmlns:xlink="http://www.w3.org/1999/xlink" x="0px" y="0px"
	 viewBox="0 0 136.3 25.2" style="enable-background:new 0 0 136.3 25.2;" xml:space="preserve">
<style type="text/css">
	.st0{fill:#FFFFFF;}
</style>
<path class="st0" d="M15.7,12.4c2,1.2,3,2.9,3,5.2c0,1.9-0.7,3.5-2,4.8c-1.4,1.2-3,1.9-5,1.9H2.1V1.4H11c1.9,0,3.6,0.6,4.9,1.8
	c1.3,1.2,2,2.7,2,4.6S17.2,11.3,15.7,12.4z M11,5.6H6.6v5H11c0.7,0,1.3-0.2,1.7-0.7c0.5-0.5,0.7-1.1,0.7-1.8c0-0.7-0.2-1.3-0.7-1.8
	C12.3,5.9,11.7,5.6,11,5.6z M11.7,20.1c0.8,0,1.4-0.3,1.9-0.8s0.7-1.2,0.7-2s-0.2-1.4-0.7-1.9s-1.1-0.8-1.9-0.8H6.6V20L11.7,20.1
	L11.7,20.1z M25.2,17.8c0.6,2,2.1,3.1,4.5,3.1c1.6,0,2.8-0.5,3.6-1.6l3.4,2c-1.6,2.3-3.9,3.5-7,3.5c-2.7,0-4.8-0.8-6.4-2.4
	c-1.6-1.6-2.4-3.7-2.4-6.2s0.8-4.5,2.4-6.1c1.6-1.7,3.6-2.5,6.1-2.5c2.4,0,4.3,0.8,5.8,2.5c1.5,1.7,2.3,3.7,2.3,6.1
	c0,0.5-0.1,1.1-0.2,1.7L25.2,17.8L25.2,17.8z M25.1,14.6h8.2c-0.2-1.1-0.7-1.9-1.5-2.5c-0.7-0.5-1.6-0.8-2.5-0.8
	c-1.1,0-2,0.3-2.8,0.9C25.9,12.7,25.4,13.5,25.1,14.6z M49.4,7.5c1.8,0,3.2,0.6,4.4,1.8c1.2,1.2,1.7,2.8,1.7,5v10h-4.2v-9.5
	c0-1.1-0.3-1.9-0.9-2.5s-1.4-0.9-2.3-0.9c-1.1,0-1.9,0.3-2.6,1c-0.6,0.7-1,1.7-1,3v8.8h-4.2V1.4h4.2v8.4C45.6,8.3,47.2,7.5,49.4,7.5
	z M72.8,22.2c-1.7,1.7-3.7,2.5-6.1,2.5s-4.4-0.8-6.1-2.5c-1.6-1.7-2.5-3.7-2.5-6.1s0.8-4.4,2.5-6.1c1.7-1.7,3.7-2.5,6.1-2.5
	s4.4,0.8,6.1,2.5c1.7,1.7,2.5,3.7,2.5,6.1S74.4,20.6,72.8,22.2z M63.6,19.3c0.8,0.8,1.9,1.3,3.1,1.3s2.3-0.4,3.1-1.3
	c0.8-0.8,1.3-1.9,1.3-3.2s-0.4-2.4-1.3-3.2c-0.8-0.8-1.9-1.3-3.1-1.3s-2.3,0.4-3.1,1.3c-0.8,0.8-1.2,1.9-1.2,3.2
	S62.8,18.5,63.6,19.3z M90.4,1.4h4.2v22.8h-4.2v-1.9c-1.2,1.6-3,2.4-5.2,2.4s-4-0.8-5.6-2.5c-1.5-1.7-2.3-3.7-2.3-6.1
	s0.8-4.4,2.3-6.1c1.5-1.7,3.4-2.5,5.6-2.5c2.3,0,4,0.8,5.2,2.4V1.4z M82.7,19.4c0.9,0.8,1.9,1.3,3.2,1.3s2.4-0.4,3.2-1.3
	c0.8-0.9,1.3-2,1.3-3.3s-0.4-2.4-1.3-3.3c-0.8-0.9-1.9-1.3-3.2-1.3s-2.4,0.4-3.2,1.3c-0.8,0.8-1.3,1.9-1.3,3.3
	C81.5,17.5,81.9,18.6,82.7,19.4z M98.4,24.3V0.4h4.2v23.8L98.4,24.3L98.4,24.3z M109.8,17.8c0.6,2,2.1,3.1,4.5,3.1
	c1.6,0,2.8-0.5,3.6-1.6l3.4,2c-1.6,2.3-3.9,3.5-7,3.5c-2.7,0-4.8-0.8-6.4-2.4s-2.4-3.7-2.4-6.2s0.8-4.5,2.4-6.1
	c1.6-1.7,3.6-2.5,6.1-2.5c2.4,0,4.3,0.8,5.8,2.5c1.5,1.7,2.3,3.7,2.3,6.1c0,0.5-0.1,1.1-0.2,1.7L109.8,17.8L109.8,17.8z M109.8,14.6
	h8.2c-0.2-1.1-0.7-1.9-1.5-2.5c-0.7-0.5-1.6-0.8-2.5-0.8c-1.1,0-2,0.3-2.8,0.9C110.5,12.7,110,13.5,109.8,14.6z M129.2,10.8
	c0.4-1,1-1.8,1.9-2.3s1.9-0.8,3-0.8v4.7c-1.3-0.2-2.4,0.1-3.4,0.8s-1.5,1.8-1.5,3.4v7.8H125V7.9h4.2V10.8z"/>
</svg>
