<?xml version="1.0" encoding="utf-8"?>
<!-- Generator: Adobe Illustrator 25.4.1, SVG Export Plug-In . SVG Version: 6.00 Build 0)  -->
<svg version="1.1" id="Layer_1" xmlns="http://www.w3.org/2000/svg" xmlns:xlink="http://www.w3.org/1999/xlink" x="0px" y="0px"
	 viewBox="0 0 78.5 78.5" style="enable-background:new 0 0 78.5 78.5;" xml:space="preserve">
<style type="text/css">
	.st0{fill:#FFFFFF;}
	.st1{fill:url(#SVGID_1_);}
</style>
<path class="st0" d="M29.3,30.6c0,0.1,0,0.1,0,0.2c0.2,0,1,2.7,1,2.9c0,0.1-0.5,1.9-0.5,2.1v0c0,0.1,0,0.2,0,0.3v0.3
	c0,0,0,0.2,0,0.2l0.2,0.5c0,0,0,0,0,0c0,0,0,0,0,0c0,0,0,0,0,0c0,0,0,0,0-0.1c0,0,0-0.1,0-0.1c-0.1,0-0.1-0.1-0.1-0.2
	c0.4-1,2-1.2,2.7-1.6c0.5-0.3,1.2-0.7,1.5-1.3c0,0,0-0.1,0-0.1v0c0,0,0.1-0.1,0.1-0.1h0.2c0,0,0-0.1,0-0.1s0.1-0.2,0.1-0.2
	c0,0,0,0,0,0c0,0,0-0.1,0-0.1l0-0.1c0,0,0,0,0,0c0-0.1,0.1-0.1,0.1-0.2l0-0.2c0,0,0,0,0-0.1c-1.9-0.1-3.4-1.6-5.2-2
	C29.5,30.6,29.3,30.6,29.3,30.6z"/>
<path class="st0" d="M40.6,32.2c-0.1-0.5-0.3-1-0.6-1.6c-0.4,3.9-5.4-1.1-4.8,9c0.1,0.1,0,1.2-0.1,1.4c0,0.1,0,0.2-0.1,0.3
	c0.8-0.4,2.2-0.6,3.1-0.6c0.3-1.4,1-2.9,1.6-4.4C39.5,34.9,39.8,33.3,40.6,32.2z"/>
<radialGradient id="SVGID_1_" cx="29.2528" cy="30.4707" r="2.217973e-02" fx="29.2503" fy="30.4731" gradientUnits="userSpaceOnUse">
	<stop  offset="0" style="stop-color:#15D500"/>
	<stop  offset="1" style="stop-color:#2CA11E"/>
</radialGradient>
<path class="st1" d="M29.3,30.5C29.3,30.5,29.2,30.5,29.3,30.5C29.2,30.5,29.2,30.5,29.3,30.5C29.2,30.5,29.3,30.5,29.3,30.5z"/>
<path class="st0" d="M38.1,15.4c-0.4,0.2-0.9,0.3-1.3,0.6c-0.4,0.1-0.7,0.3-1,0.5c0,0,0,0-0.1-0.1l0.4-0.4c0.2-0.2,0.3-0.3,0.5-0.6
	c0.3-0.4,0.6-0.8,1-1.1c-0.3,0.3-0.7,0.7-1.1,1.1c-0.3,0.3-0.7,0.6-1,0.9c0,0-0.1,0-0.1,0l0.2-1.2c0-0.2,0-0.5,0-0.7
	c0-0.2,0-0.5,0-0.7l0,0.7c0,0.3,0,0.5-0.1,0.7l-0.2,0.7c0-0.2,0-0.3,0-0.6c0-0.4-0.2-0.9-0.2-1.3c0,0.4,0,0.9,0.1,1.3
	c0,0.2,0,0.4,0,0.6c0,0.2,0,0.3,0,0.4c0,0,0,0,0,0c-0.1-0.2-0.1-0.5-0.2-0.7c-0.1-0.2-0.2-0.5-0.3-0.8c-0.3-0.5-0.6-1-0.9-1.4
	c0.2,0.5,0.5,1,0.7,1.6c0.1,0.2,0.2,0.6,0.2,0.8c0,0.2,0.1,0.4,0.1,0.7c0,0-0.1,0-0.1,0l-0.5-0.2c-0.2-0.1-0.4-0.2-0.7-0.3
	c-0.5-0.1-0.9-0.3-1.4-0.3l1.4,0.5c0.3,0.1,0.5,0.2,0.7,0.3l0.4,0.2c-0.1,0.1-0.1,0.1-0.1,0.2c0,0,0,0.1,0,0.1c-0.1,0-0.2,0-0.3,0
	c-0.1,0-0.2,0.1-0.3,0.1c-0.1,0-0.2,0.1-0.3,0.1c0.1,0,0.3,0,0.3,0c0.1,0,0.3,0,0.3,0c0.1,0,0.2,0,0.3,0l-0.4,0.4
	c-0.3,0.3-0.5,0.6-0.7,0.9c0.2-0.2,0.5-0.5,0.8-0.8l0.6-0.5c0,0,0.1,0,0.1,0c-0.1,0.7-0.3,1.4-0.4,2c0.2-0.6,0.4-1.3,0.6-2
	c0,0,0,0,0.1,0c0,0.4,0,0.8-0.1,1.1c0,0.5-0.1,0.9-0.1,1.4c0-0.5,0.2-0.9,0.2-1.4c0.1-0.4,0.1-0.8,0.2-1.2c0,0,0.4,0.6,0.4,0.6
	c0.1,0.2,0.2,0.4,0.3,0.6c0.2,0.4,0.5,0.7,0.8,1.1c-0.2-0.4-0.5-0.7-0.7-1.1c-0.1-0.2-0.2-0.4-0.3-0.6l-0.2-0.5
	c0.2,0.3,0.5,0.5,0.7,0.8c0.3,0.3,0.7,0.5,1,0.8L37,18.3c-0.2-0.1-0.3-0.3-0.5-0.4c-0.3-0.3-0.5-0.6-0.8-0.9c0,0,0.1,0,0.1-0.1
	l0.4,0.2c0.2,0.1,0.4,0.2,0.6,0.3c0.2,0,0.4,0,0.6,0c0.2,0,0.4,0,0.6,0c-0.2,0-0.4,0-0.6,0c-0.2,0-0.4,0-0.6-0.1
	c-0.2-0.1-0.4-0.2-0.6-0.3l-0.3-0.2c0,0,0,0,0-0.1c0,0,0,0,0-0.1c0.3-0.2,0.6-0.4,0.9-0.5C37.3,15.9,37.7,15.7,38.1,15.4z"/>
<path class="st0" d="M44.1,29.6c-0.1,0-0.1,0-0.2,0c0,0-0.1,0.1-0.2,0.1c-0.5,0.3-0.9,0.7-1.3,1.2c0.3,0,0.6,0,0.9,0
	c0.9,0.1,1.6,0.1,2.2,0.4C45,30.9,44.5,30.3,44.1,29.6z"/>
<path class="st0" d="M39.5,40.4c0,0,1.2-0.2,2-0.5c0,0,0.1-0.1,0.2-0.1l0.1,0c0,0,0.1-0.1,0.1-0.1c-0.7-0.8-1-1.8-1.6-2.5
	C39.8,38.3,39.5,40.4,39.5,40.4z"/>
<path class="st0" d="M39.2,1.9C18.6,1.9,1.9,18.6,1.9,39.2s16.7,37.3,37.3,37.3s37.3-16.7,37.3-37.3S59.8,1.9,39.2,1.9z M45.6,11.1
	c0.7-0.1,0.9-0.3,1-1c0,0,0.1,0,0.1,0c0.1,0.8,0.3,1,1,1c0,0,0,0.1,0,0.1c-0.8,0.2-1,0.3-1,1.1c0,0.1-0.1,0.1-0.1,0
	C46.5,11.5,46.3,11.3,45.6,11.1C45.5,11.2,45.5,11.1,45.6,11.1z M24.1,28.4c-0.8,0-0.8-1.3,0-1.3C25,27.1,25,28.4,24.1,28.4z
	 M52.7,40c-0.8,0.1-0.9,0.3-1,1c0,0-0.1,0-0.1,0c-0.1-0.8-0.3-0.9-1-1c0,0,0-0.1,0-0.1c0.8-0.1,0.9-0.3,1-1c0-0.1,0.1-0.1,0.1,0
	C51.7,39.6,51.9,39.8,52.7,40C52.7,39.9,52.7,40,52.7,40z M59,32.7c-0.1,0-0.1,0-0.2,0h0c0,0.1,0.1,0.1,0.2,0.2
	C59,32.8,59,32.8,59,32.7c0,0.1,0,0.1,0,0.1c-3.3,1-8.1,1.4-11.5-0.4c1,2.2,1,4.9,0.8,7.3c0.1,0.9-0.5,2.2-0.7,3c0,0.1,0,0.2,0,0.2
	c0,0-0.1,0.1-0.1,0.1c0,0-0.2,0-0.2-0.1c-0.2,0.1-1-0.3-1.4-0.3v0c-0.5-0.1-1.3-0.5-1.6-0.9c-0.9-0.2-1.5-1.1-2-1.7
	c0,0-1.3,0.5-2,0.7c-0.2,0-0.3,0.1-0.7,0.1c0,0-0.1,1.1-0.2,2.1c-0.1,1,0.2,3.1,0.2,4.2c0.2,0.8,0.3,2.1,0.5,3.4
	c0.2,1.3,0.8,3.8,1.4,9.7c0.3,2.9,4.7,3.3,5.1,4.8c-0.2,0.6-0.7,0.3-0.8-0.1l-0.6-0.3c-0.2,0-1,0.1-1,0.1c-0.2,0.1-1.6-0.9-1,0.2
	c0.4,0.1,0.9,0.7-0.1,0.7c-0.4,0.1-1.2-0.4-1.5-0.3c0,0.3-0.2,0.5-0.5,0.5c-0.1-0.1-0.1-0.3-0.2-0.3l0.3-0.2c0-0.2,0.1-0.7,0.3-0.8
	c0,0-0.2-0.2-0.2-0.2c-0.5-0.2-1.1,1.1-1.2,1.2c0.8,0.1,2.5,2.8,0.8,1.8c-0.3-0.8-1-1.1-1.7-1.4c0,0-0.1,0.3-0.1,0.7
	c0.1,0.3,0.5,0.2,0.5,0.5c-0.1,0.7-1-0.4-1-0.5c0.1-0.6-0.9-1-0.8-0.3c0.1,0.2-0.2,1.1-0.5,0.7c0.1-0.7-0.4-0.6-0.7-0.1l-0.6,0.2
	l-0.3-0.2l0.1-0.3l0.3-0.2l0.3-0.5l-0.4,0c-0.2,0.2-0.6,0.3-0.9,0.3c0.2-0.1,0.7-0.2,0.8-0.4h0.8c0.3-0.1,0.9-1,0-1
	c-0.6,0.1-1.6,0.7-1.6,0.7h-0.2c0.3-0.1,0.9-0.6,0.9-0.6c0,0.1-0.5,0.1-0.7,0.2c0,0-0.1-0.3-0.1-0.3c-0.1,0.1-0.3,0.2-0.4,0.2
	c0,0,0.3-0.3,0.3-0.3c-0.8,0.3-1.7,0.4-2.2,0.3l-0.4,0.3c-0.2,0-0.6,0-0.7-0.1l0.7-0.2l0.2-0.3c-0.3-0.1-1.1-0.2-1.4-0.2l0-0.2
	c2.1,0.1,4.4,0.1,6.1-1.4c1.6-1.5,1.4-3.2,1.4-5.1c0-2.7-0.2-5.2-0.3-7.3c-0.4-0.3-0.8-0.6-1.2-1c-0.2-0.2-0.3-0.3-0.4-0.5
	c-0.4,0.2-1,0.5-1.5,1.1v0c2.2,4-0.6,4.8-3.9,5.7v0c-0.1,0-0.1,0-0.1,0c-0.2-0.1-0.3,0.1-0.5,0.1c-0.1,0-0.1,0-0.2,0.1l0,0
	c0.1-0.2,0-0.4,0-0.6c-0.1-0.1-0.1-0.3-0.3-0.3c-0.1-0.3-0.1-0.7,0.1-1c0.3-1.3,0.3-3,1.7-3.5c0.9-0.3,1.8-0.7,2.8-0.6
	c0.5-0.7,1.2-1.1,1.6-1.3c-0.3-0.3-0.4-0.7-0.5-1.2c-3.1,2.2-5.1-0.9-6.7-3.1c0,0,0,0-0.1-0.1c0.3,0.1,0.7,0,0.8-0.3
	c0.5-0.3,1.1,0,1.6,0c0.9,0,1.9,0,2.6,0.6c0.8,0.5,2,1.9,2,2.8c0,0-0.1,0-0.1,0c0.2,1.2,1.2,1.8,2.1,2.5c-0.2-2.3-0.4-4-0.4-4.4
	c0-0.8,0-1.9,0-2.6c0-0.8,0.3-2,0.3-2l-0.8,0c-0.8,0-1.7,0.2-2.4,0.6c0,0-0.1,0-0.1,0c0,0.1-0.1,0.2-0.1,0.2c0,0.1-0.3,0.2-0.3,0.2
	L34,41.6L34,41.5c0.1-0.1,0.2-0.2,0.2-0.2c0.8-1,0.4-2.5,0.5-3.7c0-0.8,0.1-1.5,0.2-2.2v0v0c0,0,0-0.1,0-0.1v0c0,0,0,0,0-0.1v0
	c0,0,0,0,0,0c0-0.1,0-0.1,0-0.2c0,0,0-0.1,0-0.1v0c0.2-0.8,0.7-1.6,1.3-2.2c-0.5,0-0.9-0.2-1.4-0.2c0,0.5-0.3,1-0.6,1.4
	c-0.2,0.3-0.5,0.6-0.8,0.9c0,0-0.6,0.5-0.9,0.6c-0.1,0-0.4,0.2-0.4,0.2c0,0,0,0-0.1,0.1c0,0,0,0,0,0h0c0,0,0,0-0.1,0c0,0,0,0,0,0
	c0,0,0,0,0,0h0h0h0h0c0,0,0,0-0.1,0c0,0,0,0-0.1,0c-0.5,0.3-1.3,0.3-1.6,0.9c0,0,0,0,0,0c0,0,0,0,0,0.1v0v0c0,0.1,0,0.1,0,0.2v0.1
	c0,0,0,0,0,0s0,0,0,0c0,0,0,0.1,0,0.1s0,0,0,0c0,0,0,0,0,0.1c0,0,0,0,0,0c0,0,0,0,0,0c0,0,0,0,0,0c0,0.1-0.2-0.1-0.3-0.1
	c-0.3-0.2-0.5-0.7-0.5-1.1c0-0.2,0-0.3,0.1-0.5c0,0,0,0,0-0.1c0.2-0.7,0.5-1.7,0.4-2.3c0,0,0,0,0-0.1S29.7,33,29.7,33c0,0,0,0,0,0v0
	c0,0,0-0.1,0-0.1c0,0,0-0.1,0-0.1c0,0,0-0.1-0.1-0.1c0-0.1-0.6-1.8-0.4-1.9c0,0,0,0,0-0.1v0v0l0-0.1c0-0.1,0-0.1,0.1-0.2
	c0,0,0,0,0.1,0v0c0,0-0.1,0-0.1,0c0.1,0,0.2,0,0.2-0.1c0.1,0,0.1,0,0.2,0c0,0,0,0-0.1,0c0,0,0,0,0.1-0.1c0,0,0,0-0.1,0
	c2.9-1.4,5-3.6,8.5-2.7c1.8,0,1.7,0.3,2.1,2c0,0,0,0,0,0.1c0,0,0,0,0,0c0,0,0,0,0,0.1c0.4,0.7,0.7,1.4,0.9,2
	c0.2-0.2,0.3-0.4,0.5-0.5c0.3-1.4,0.2-2.9-0.2-4.2c-0.9-0.6-1.8-1.3-2.8-1.8h0c-0.9-0.6-2.2-0.9-3-0.5c0,0-0.3,0.2-0.3,0.2l-0.3,0.1
	c0,0.1,0,0.2,0,0.3c-0.1,0.1-0.2,0.2-0.3,0.3s-0.2,0.2-0.3,0.3S34,26.3,34,26.3s0,0.2,0,0.4c-0.1,0-0.1-0.1-0.2-0.1
	c0,0.1-0.1,0.2-0.2,0.2c-0.2,0.1-0.3,0.1-0.4,0.1c-0.1,0-0.3-0.1-0.3-0.2c-0.1-0.1-0.2-0.2-0.3-0.3c-0.2-0.2-0.3-0.4-0.4-0.6
	c0-0.1,0-0.1,0-0.2c0-0.1,0-0.2,0-0.2c0-0.2,0.1-0.3,0.3-0.3c0.1,0,0.2,0,0.2,0.1c0,0.1,0,0.2-0.2,0.2c0,0-0.2,0.1-0.2,0.2
	c0,0.1,0,0.2,0,0.3c0.1,0.2,0.2,0.4,0.3,0.6c0.2,0.2,0.3,0.3,0.5,0.3c0.2,0,0.3,0,0.4-0.2c0,0,0,0,0,0c-0.1-0.1-0.1-0.2-0.2-0.4
	c-0.1,0-0.4,0.1-0.4,0.1s-0.1,0-0.3,0.1c0.1-0.1,0.2-0.3,0.3-0.4c0.1-0.1,0.1-0.2,0.2-0.3c-0.1-0.1-0.3-0.3-0.3-0.3
	c0-0.1-0.2-0.2-0.2-0.4c0.3,0.2,0.5,0.2,0.8,0.2c0.3,0,0.6-0.2,0.7-0.3c0.1-0.1,0.1-0.1,0.2-0.1c0.1,0,0.1,0,0.2,0.1
	c0.2-0.1,0.9-0.3,0.9-0.3c0.1,0,0.3-0.1,0.3-0.1s0.1,0,0.1,0c0,0-0.5-0.2-0.8-0.2l-1-0.2c-0.1,0.2-0.4,0.3-0.5,0.3
	c-0.2,0-0.6-0.1-1-0.1c-0.3,0-0.8,0.2-1,0.3c-0.2,0.1-0.9,0.7-0.9,0.7s-0.3,0.3-0.6,0.8C30,25.5,30,25.2,30,24.9l-0.6,0.2
	c-0.2,0.1-0.6,0.3-1,0.3c-0.1,0-0.1,0-0.2,0c-0.6-0.1-1-0.4-1.1-0.5c-0.2-0.2-0.3-0.3-0.4-0.5c-0.1-0.1-0.1-0.2-0.2-0.4
	c-0.3-0.4-0.6-0.7-0.8-0.8c-0.2-0.2-0.4-0.3-0.3-0.6c0-0.3,0.2-0.3,0.6-0.5c0.2-0.1,0.5-0.2,0.9-0.4c0.3-0.2,0.5-0.3,0.7-0.4
	c0.3-0.2,0.4-0.3,0.8-0.3c0.5-0.1,1.1,0,1.4,0.2c0.1,0,0.4,0.2,0.7,0.4c0-0.2,0-0.6,0.3-1c0.2,0.6,0.6,1.1,1.1,1.5
	c0.4,0.4,1.4,0.6,1.7,0.6c0.3,0,0.3,0.1,0.5,0.2c0.2,0.1,0.4,0.3,0.3,0.7c0,0,0,0,0,0c2.3,0.5,4.8,1.2,6.7,2.8
	c-0.3-1-0.8-2.1-1.6-2.6c-0.9,0.3-1.8-0.4-2.3-1c0,0,0,0,0,0c0-0.1-0.1-0.2-0.1-0.2c0,0,0,0,0,0c0,0,0,0,0,0c0.1,0,0.2,0,0.2,0
	c0,0,0.1,0,0-0.1c0.9,0,1.8,0.3,2.3,1c0.2,0.1,0.3,0.2,0.5,0.4c-0.5-1.1-1.1-2.3-1.8-3.2c-0.2,0.1-0.5,0.2-0.8,0.2
	c-0.6,0-1.1-0.4-1.2-0.6c0,0,0,0-0.1-0.1c-0.1,0.4-0.4,0.8-0.8,1c-0.1,0.1-0.3,0.2-0.5,0.2l0,0c-0.3,0-0.6,0.1-0.9,0.1
	c-0.5,0-1-0.1-1.4-0.5c-0.3-0.3-0.4-0.6-0.5-0.8c0,0,0-0.1,0-0.1c-0.1-0.8,0.2-1.3,0.3-1.5c0,0,0.1-0.1,0.1-0.1c0,0-0.1,0-0.1,0
	c-0.3,0-1,0.2-1.5-0.3c-0.3-0.2-0.4-0.4-0.5-0.7c-0.4-0.8-0.5-1.6-0.2-2.3c0.1-0.3,0.3-0.6,0.7-0.9c0.6-0.3,1.1-0.2,1.5-0.1
	c0.1,0,0.1,0,0.1,0c0.3,0.1,0.5,0.2,0.6,0.3c-0.2-0.5-0.3-1.1,0-1.7c0.3-0.7,1.1-1,1.3-1c0.3-0.1,0.8-0.2,1.3-0.1
	c0.9,0.2,1.5,0.4,1.7,0.8c0.2,0.3,0.2,0.8,0,1.2l0.1,0c0.2-0.1,0.5-0.2,1-0.2c0.4,0.1,0.7,0.4,1,0.6c0,0,1,1,1,2.3
	c0,0.2,0,0.4-0.1,0.6l0,0c-0.2,0.3-0.5,0.4-0.8,0.4c0,0,0,0.1,0,0.1c0.2,0.4,0.2,0.8,0.1,1c0,0.1,0,0.5-0.3,0.9
	c-0.1,0.2-0.4,0.7-0.9,1.1c0.6,0.7,1,1.6,1.3,2.5c0,0,0-0.5,0-0.5l0-0.3c0.1-1.5,1.2-2.6,1.2-3.2c-0.2-0.3-0.1-0.7,0.1-0.9
	c0.2-0.2,0.4-0.4,0.6-0.6c0.2-0.2,0.4-0.6,0.4-0.8c0.1-0.2,0.1-1,0.1-1s-0.1-0.3-0.2-0.9c0.1,0,0.2,0,0.2,0.1c0,0,0,0,0,0
	c0-0.3,0.1-0.5,0.3-0.7c0.1-0.1,0.2-0.2,0.3-0.2c0.2,0,0.3-0.1,0.4-0.1c0.3,0,0.5,0,0.7,0.1c0.1,0,0.2,0.1,0.3,0.2
	c0.1,0.1,0.2,0.1,0.2,0.2c0.1,0,0.2,0.1,0.3,0.1c0.1,0,0.1,0,0.2,0.1c0,0,0,0,0.1,0.1s0,0,0,0.1l0,0.1c0.1,0.2,0.2,0.3,0.3,0.5
	l0.7,1c0,0.1,0.2,0.2,0.2,0.3c0.1,0.1,0.1,0.2,0.2,0.3c0.1,0.1,0.1,0.2,0,0.3c0,0,0,0.1,0,0.1c0,0.1,0,0.1,0,0.1
	c0,0-0.1,0.1-0.1,0.2c-0.2,0.2-0.3,0.3-0.5,0.5c-0.2,0.1-0.4,0.2-0.7,0.2c0,0,0,0,0,0c0,0.1,0.1,0.1,0.1,0.2
	c-0.6-0.3-1.2-0.3-1.7-0.2c-0.5,0.1-1.2,0.6-1.5,0.8c-0.1,0.2-0.2,0.2-0.4,0.3c-0.1,0-0.2,0.1-0.3,0l0,0c-0.1,0.1-0.9,1.2-0.9,1.4
	l-0.5,1C39.9,23.3,41.8,27,42,29c0.1-0.7,0.3-1.4,0.4-2.2c-4.3-7.6,5-9.4,10-5.9c0,0,0,0,0,0c0.2,0.3,0.9,0.7,1,0.9
	c0.1,0,0.1,0,0.1,0c0,0,0.1,0,0.1,0c0,0,0,0,0,0c0,0,0,0,0,0c-0.3,0.1-0.5,0.2-0.8,0.3c0,0-0.2,0.1-0.1,0c-3.6,1.1-7.2,2.3-10,4.7
	c0,0,0,0,0,0c0,0,0,0.2,0,0.2v-0.1c0,0,0,0.2,0,0.2v0c-0.2,1-0.3,2-0.5,3c2.5-1.9,3.7-5.3,6.9-5.9c2.2-0.7,6.2,3.4,7.6,5
	c0.5,0.3,1,1.2,1.4,1.7l0.3,0.8c0.1,0.1,0.4,0.6,0.4,0.6C58.9,32.6,59,32.7,59,32.7C59,32.7,59,32.7,59,32.7S59,32.7,59,32.7z
	 M45.3,53c-1,0-1-1.5,0-1.5C46.2,51.5,46.2,53.1,45.3,53z"/>
</svg>
