<?xml version="1.0" encoding="utf-8"?>
<!-- Generator: Adobe Illustrator 25.4.1, SVG Export Plug-In . SVG Version: 6.00 Build 0)  -->
<svg version="1.1" id="Layer_1" xmlns="http://www.w3.org/2000/svg" xmlns:xlink="http://www.w3.org/1999/xlink" x="0px" y="0px"
	 viewBox="0 0 78.5 78.5" style="enable-background:new 0 0 78.5 78.5;" xml:space="preserve">
<style type="text/css">
	.st0{fill:#FFFFFF;}
</style>
<g id="Layer_3">
</g>
<path class="st0" d="M39.2,2C18.7,2,2,18.7,2,39.2s16.7,37.3,37.3,37.3s37.3-16.7,37.3-37.3S59.8,2,39.2,2z M36.9,30.7v-2.2h1.2
	c0.6-2,2.4-3.5,4.6-3.5c1.7,0,3.1,0.8,4,2.1c3.9-1,7.8-1.6,11.5-2.2l2.2-0.3l0.5,2.9c-0.7,0.1-1.4,0.2-2.2,0.3
	c-3.6,0.5-7.3,1.1-11.1,2.1c-0.1,2.2-1.6,4-3.6,4.6v1.6h-2.5v-1.6c-1-0.3-1.8-0.8-2.4-1.6c-0.7,0.3-1.4,0.7-2.1,1.1l-1.5-2.6
	C36,31.1,36.4,30.9,36.9,30.7z M44.1,41.1v5.1h-2.5v-5.1H44.1z M25.1,28.4H31v2.9h-5.9V28.4z M61.5,57.5H18.6V20.3h2.1v29.9
	c2.6-7.5,6.6-13.1,12.2-17.1l1.7,2.4c-6.1,4.4-10.2,11-12.4,20h19.3v-4.2h2.5v4.2h17.4V57.5z"/>
</svg>
