<?xml version="1.0" encoding="utf-8"?>
<!-- Generator: Adobe Illustrator 25.4.1, SVG Export Plug-In . SVG Version: 6.00 Build 0)  -->
<svg version="1.1" id="Layer_1" xmlns="http://www.w3.org/2000/svg" xmlns:xlink="http://www.w3.org/1999/xlink" x="0px" y="0px"
	 viewBox="0 0 130.9 130.9" style="enable-background:new 0 0 130.9 130.9;" xml:space="preserve">
<style type="text/css">
	.st0{fill:#FDEB0B;}
	.st1{fill:#FFFFFF;}
	.st2{fill:#AECB53;}
	.st3{fill:#75B843;}
	.st4{fill:#99CA3C;}
	.st5{fill:#EFCF1A;}
	.st6{fill:#805835;}
</style>
<g id="Layer_1_00000174593144773412148750000007022404058104219556_">
</g>
<path class="st0" d="M73.8,2c0,0.1,0.1,0.1,0.2,0c0.2-1.1,0.4-1.3,1.5-1.5c0.1,0,0.1-0.1,0-0.2c-1.1-0.2-1.3-0.4-1.5-1.5
	c0-0.1-0.1-0.1-0.2,0c-0.2,1.1-0.4,1.3-1.5,1.5c-0.1,0-0.1,0.1,0,0.2C73.4,0.6,73.6,0.8,73.8,2z"/>
<path class="st1" d="M34.2,96.4c-1.1,0-1.1,1.8,0,1.8C35.3,98.2,35.3,96.4,34.2,96.4z"/>
<path class="st1" d="M42.6,24.4c1.1,0,1.1-1.9,0-1.8C41.5,22.6,41.5,24.4,42.6,24.4z"/>
<path class="st1" d="M77.3,82.8c0,0.1,0,0.2,0,0.2c0-0.1,0.1-0.1,0.1-0.1c0.1,0,0.1-0.1,0.1-0.1c0.1,0,0.1-0.1,0.1-0.1l0,0
	C77.4,82.8,77.4,82.7,77.3,82.8L77.3,82.8z"/>
<path class="st1" d="M97,67.2c1.1,0,1.1-1.8,0-1.8C95.9,65.5,95.9,67.2,97,67.2z"/>
<path class="st1" d="M86.7,78.8c0.1-0.1,0.1-0.1,0.1-0.1C86.7,78.8,86.7,78.8,86.7,78.8z"/>
<path class="st0" d="M80.3,97.4c0-0.1-0.1-0.1-0.2,0c-0.2,1.1-0.4,1.3-1.5,1.5c-0.1,0-0.1,0.1,0,0.2c1.1,0.2,1.3,0.4,1.5,1.5
	c0,0.1,0.1,0.1,0.2,0c0.2-1.1,0.4-1.3,1.5-1.5c0.1,0,0.1-0.1,0-0.2C80.7,98.7,80.4,98.4,80.3,97.4z"/>
<path class="st0" d="M89.4,48.5c0.1,0.1,0.2,0.1,0.2,0c0.2-1.1,0.4-1.3,1.5-1.5c0.1,0,0.1-0.1,0-0.2c-1.1-0.2-1.3-0.4-1.5-1.5
	c-0.1-0.1-0.2-0.1-0.2,0c-0.2,1.1-0.4,1.3-1.5,1.5c-0.1,0.1-0.1,0.2,0,0.2C89,47.2,89.2,47.4,89.4,48.5z"/>
<path class="st1" d="M86.8,58.6L86.8,58.6L86.8,58.6z"/>
<path class="st0" d="M50.6,70.4c0,0.1,0.1,0.1,0.2,0c0.2-1.1,0.4-1.3,1.5-1.5c0.1-0.1,0.1-0.2,0-0.2c-1.1-0.2-1.3-0.4-1.5-1.5
	c0-0.1-0.1-0.1-0.2,0c-0.2,1.1-0.4,1.3-1.5,1.5c-0.1,0-0.1,0.1,0,0.2C50.2,69.1,50.5,69.4,50.6,70.4z"/>
<path class="st1" d="M102.8,82.3C102.8,82.4,102.8,82.4,102.8,82.3C102.9,82.4,102.9,82.4,102.8,82.3L102.8,82.3z"/>
<path class="st1" d="M26.4,31.6C26.4,31.6,26.4,31.6,26.4,31.6C26.4,31.6,26.4,31.6,26.4,31.6z"/>
<path class="st2" d="M90.7,30c-1.7-3.9-9-12.1-13.5-11.3c-4.3,0.8-6.5,5.8-9.8,8.4c-0.2,0.2,0.3,0.9,0.6,0.7
	c0.7-0.6,2.1-1.8,2.1-1.9c0.1-0.1,0.2-0.1,0.2-0.1c0.4,0.8,1,1.5,1.6,2c0.2,0.2,0.3,0.3,0.5,0.4c0.6,0.4,1.2,0.8,1.8,1.2
	c0.3,0.2,0.7,0.3,1.1,0.5c4.6,2.2,11.5,1.9,15.7,0.3C90.9,30.4,90.9,30.2,90.7,30z"/>
<path class="st3" d="M68.3,22.9c0-0.1,0.1-0.3,0.1-0.3c4-3.3,8.9-5,13.9-6.6c-0.2,0.1,1.1-0.3,1.2-0.4l-1.7-1.3
	c-7-4.9-19.9-2.4-13.9,8.1c-0.1,0.4-0.6,3.3-0.7,3.8c0.2,0.2,0.3,0.6,0.4,0.8C67.7,26,68.3,22.9,68.3,22.9z"/>
<path class="st4" d="M59.4,79.6l-0.1,0.2c-3.7-4.9-12-4.5-16.6-1.1c-0.7,0.3-2.8,3-1.2,2.8c0,0,0,0,0.1-0.1c0.1,0.1,0.1,0.1,0.1,0.2
	c0.7,0.5,1.5,1.1,2.3,1.5c0.8,0.5,1.7,1,2.7,1.1c1.1,0.3,2.3,0.3,3.4,0.2H50c0.2,0,0.8-0.2,1.1-0.3c1.3-0.4,2.9-0.8,4.2-1.2
	c0,0-0.1,0,0.1-0.1l0,0l0,0c1.1-0.4,2.5-0.3,3.4-1.1c0.4-0.3,0.7-0.7,0.7-1.2c0.7,0.4,1.3,0.8,2,1.3c-0.7,0.9-1.5,1.6-2.2,2.2
	c0,0-0.2-0.1-0.4-0.1c0,0,0.1,0,0.1-0.1c-11,1.4-11,7.5-10.4,16.7c-0.3,0.2,0.2,2,0.2,2.5c0.1,0.5,0.6,0.8,0.6,1.3
	c0-0.1,0.1-0.1,0.1-0.2c0,0.2,0.1,0.1,0.2,0c0,0.1,0.1-0.1,0.1-0.1v0.1c0.2-0.2,0.2-0.2,0.3-0.1c8-4.8,11.1-10.2,9.8-19.5
	c0.8-0.7,1.7-1.5,2.4-2.4c0.1,0.3,1.2,1.2,1.3,1.5c0-0.4,0-0.9,0-1.3C62.6,81.7,60.6,80.2,59.4,79.6z M41.5,81.5L41.5,81.5
	L41.5,81.5z M48.7,84.5c0.1,0,0.1,0,0.2,0C48.8,84.5,48.7,84.5,48.7,84.5z M54.4,83.1c0,0,0.1-0.1,0.1-0.1
	C54.5,83.1,54.4,83.1,54.4,83.1z M59,80.2c0.1,0,0.1,0.2,0,0.2c-1.3,2.4-5.5,2-7.8,3.1c-3.9,1.4-6.3-0.4-9.5-2.2l-0.1-0.1
	c0.5-0.3,1-0.7,1.6-0.8v0.1c1.6-0.7,3.4-0.2,5.1-0.5c2.8-0.9,5.8-1,8.5-0.1h0.1V80c0.7,0.2,1.6-0.4,2.2,0L59,80.2z"/>
<path class="st2" d="M48.5,41.2c0-0.1,0.2-0.2,0.2-0.2h-0.1c0.1-2.8-4-7.4-6.4-8.8c-2.6-2.1-10.2-2.2-13.5-1.7
	c-0.3,0.8-1.6,1.1-2.4,1l0,0c0,0,0.1,0,0.1,0.1c0,0-0.1,0-0.1-0.1c-0.1,0-0.1-0.1-0.1-0.1C32,38.3,38,48.7,48.1,41.6
	c0.2,1.3,0.7,2.6,1.5,3.8c-1.4,0.7-3.5,2-5.2,4.2c-3-0.5-6,0.7-8.7,1.8c-4.5,1.7-4.7,6.9-5.5,11.1c-0.4,0.8-0.6,2.2-0.2,3.3
	c0.4,0.1,0.5,0.6,0.8,0.8c0,0.7,0.2,1.5-0.1,2.1h0.1c-0.1,0.1-0.1,0.1-0.1,0.1c0.1-0.1,0.2-0.2,0.4-0.2c0.5,0,1.1-0.5,1.6-0.3
	c0.1-0.1,0.1-0.2,0.3-0.1c10.7-3,19.2-5.5,12.4-18.3c1.5-2,3.5-3.1,4.8-3.7c0.4,0.6,0.8,1,1.3,1.5c1.8,1.9,5.2,4.5,7,6.3
	c0.3-0.4,0.7-0.8,0.7-1.2C55.7,49.6,49.4,46.3,48.5,41.2z"/>
<path class="st3" d="M82,83.6c0.9-2.1,1.3-8.5-0.2-9.8c-1.9-0.7-4.4-0.2-5.4,1.7c-0.1,0.1-0.2,0.1-0.3,0.1c-1.3-0.4-2.9-0.4-4,0.5
	c0,0,0-0.1-0.1-0.1c-0.1,0.2-0.3,0.3-0.3,0.3s0-0.1-0.1-0.1c-0.1,0.1-0.6,0.9-0.7,1.1c-0.1,0-0.1,0.1-0.1,0.1
	c-0.1,0-0.1,0.1-0.1,0.1s0,0.1,0,0.1c0.1,0.1,0,0.1,0,0.2c0,0,0,0,0.1,0.1c0.1,0.6,0.4,1.4,0.7,2c0.6,1.9,1.5,4.7-0.4,6.2
	c0,0.1-0.1,0.1-0.1,0.1c-0.1,0-0.2,0-0.2,0h-0.1c-0.1,0-0.1-0.1-0.2,0c0,0.1,0,0.1,0,0.1v0.1c-0.1,0,0,0.1,0,0.1v0.1
	c0,0.1,0,0.1,0.1,0.2c0,0,0,0,0,0.1c0.1,0,0.1,0.1,0.2,0.1c0,0,0.1,0,0.1-0.1c0,0,0.1,0,0.1,0c0.2,0,0.4,0,0.7,0s0.3,0,0.5-0.1
	c0.1,0,0.6-0.1,0.7-0.2c0.7-0.2,1.7-0.5,2.4-0.9c0.9-0.6,2.2-1.6,2.2-2.7c-0.3,0.5-1,1.3-1.3,1.6c0,0,0,0-0.1,0L76,84.7L76,84.8
	c0,0-0.1,0.1-0.1,0.1c0,0.1-0.1,0-0.2,0.1c0,0,0,0-0.1,0c0,0,0,0-0.1,0.1c0,0-0.1,0.1-0.1,0.1c-0.9,0.6-2.2,1.3-3.4,1.2
	c-0.1,0-0.3,0-0.4,0c0.6-0.6,1.2-1.4,1.1-2.2c0-0.1,0-0.2,0-0.3c0,0,0-0.1,0-0.1c0,0,0-0.2,0-0.2c-0.2-1.2-0.8-3.7-1.2-4.9
	c0.2,0.2,0.3,0.4,0.4,0.6c0.1-0.1,0.1,0,0.2,0.3l0.1-0.1c1.4,1.7,3.5,2.5,5.3,3.4l0,0c1.1,0.7,2.5,1.2,3.8,1c0.8,1,1.4,2.1,1.7,2.8
	l0.6-0.5C83.1,85.4,82.6,84.5,82,83.6z"/>
<path class="st2" d="M90.7,84.4c-0.6,0.6-2.2,1.1-2.2,1.1c-0.7,0.5-1.1,0.6-1.5,1.1c-1,0.2-2.1,0.4-3.2,0.9l-1,1.5
	c1.2-0.8,2.4-1.4,3.7-1.5c-1.8,6.9,4.9,12.6,11.1,13.8c1.2,0.5,2.7,0.4,3.9,1c0.2-0.2,0.4,0.1,0.6,0.2c0,0.1,0.2,0.1,0.1-0.1
	c0.2-0.6,0-1.3,0.4-1.9c-0.1-0.1-0.1-0.2,0.1-0.3C103.1,93.3,98.5,84,90.7,84.4z"/>
<path class="st2" d="M104.6,84.4c-0.2-0.4-0.5-1.8-0.5-1.8c-1.8-5.3-8.6-12.4-13.3-5.8c-0.2,0-0.6,0.1-0.7,0.2
	c-1.2,0.3-3.3,1.8-3.3,1.9c-0.1,0.1-0.1,0.1-0.2,0.1c-0.8,0.8-1.6,1.9-1.8,3c-0.2,1.5-0.7,2.9-1.3,4.2l0.3,1.3
	c1-1.5,1.5-3.4,1.7-5.2c2.7-0.3,5.5-0.3,8.1,0h0.1c1.2,0.2,2.4,0.3,3.5,0.6c-0.2-0.1,0.6,0.1,0.7,0.1c1.7,0.3,3.5,0.8,5.3,1.2l0,0
	c0,0,0.1,0.1,0.1,0.1c0.2,0,1.2,0.3,1.1,0.2C104.4,84.3,104.6,84.4,104.6,84.4z M103.4,83.8l-0.3-0.1c-0.1-0.1-0.2-0.1-0.3-0.1
	c-5.6-1.5-11.5-2.5-17.4-1.9l0.1-0.2h-0.1c2.5-7.5,11.7-4,16.1-0.2c0,0,0.9,0.6,1.3,1c0,0,0,0,0-0.1c0,0,0.1,0.1,0,0.1
	c0.2,0.2,0.8,0.9,0.8,0.8c0.1,0.2,0.3,0.4,0.4,0.7C103.9,84,103.7,83.9,103.4,83.8z"/>
<path class="st2" d="M72.5,63.6C72.5,63.6,72.6,63.6,72.5,63.6c4.7-2,9.5-3.3,14.4-4.9l0,0c0,0,0,0-0.1,0c0,0,0,0,0.1,0
	c0.2-0.1,0.6-0.2,0.7-0.3c0.1,0,0.1-0.1,0-0.1v-0.1c0.1,0,0-0.1,0-0.1c0.1,0,0,0-0.1-0.1c0-0.1-0.1-0.1-0.1-0.1
	c-0.6-0.3-1.1-0.5-1.6-1.1c-0.1,0.1-0.2,0-0.2-0.2c-0.1,0-0.1,0.1-0.1,0.1c-6.4-3.7-20-4.7-20.4,5.4c0,0.1-0.7,2.2-0.7,2.2
	c0,0.1-0.6,2.8-0.6,3.2c0.1,0.8-0.7,2.6-0.7,2.6s-0.9,1.5-0.9,1.7c0,0.3,1.3,3.5,1.3,3.8s-0.2-1.6-0.1-3.2
	C63.8,68.9,66.2,66.2,72.5,63.6z M64.8,67.2L64.8,67.2c0-0.2,0.1-0.3,0.1-0.3v-0.1c0,0,1-3.2,1-3.3c0,0,0.1-0.2,0.1-0.3
	c0,0,0.1-0.3,0.2-0.4c4.2-6.2,13.5-5.9,20.1-5c0.1,0.2,0.2,0.2,0.3,0.2c0.3,0.2,0.7,0.2,1,0.3c-0.2,0-0.4,0-0.6,0.2
	c-8.1,2.7-15.3,4.2-22,9.7C64.8,67.9,64.8,67.2,64.8,67.2z"/>
<path class="st4" d="M64.6,27.3c0.2,0.4,0.4,0.9,0.6,1.3c0.2-0.2,0.3-0.3,0.6-0.4c-0.2-0.7-0.6-1.5-1.1-2.2c0-0.1-0.5-2.9-2.9-2.9
	c-4.9-1.2-7.8,1.9-11.8,3.8c0.1,0-0.2,0.1-0.3,0.2c-0.2,0.2-0.1,0.4-0.1,0.6c-0.2,0.2,0.6,2.4,0.6,2.6c0.1,0.1,0.3,0.8,0.3,0.8
	c0.2,0.9-0.2,2.5-0.6,3.4c-0.3,0.7-0.1,1.9,0.6,2.2c0.1,0.1,0.3,0.2,0.3,0.2c0,0-0.1-0.7-0.1-0.7l-0.4-0.7c0,0,0.1-0.7,0.1-1
	c0.1-0.2,0.7-2.9,0.7-2.9c-0.1-0.3-1.4-4.2-1.3-4.3c0.1,0,0.4,0,0.4,0.1c2.5,0.5,4.5,2.7,7.2,2.8c0,0.2-0.6,1.6-0.7,1.7
	c-0.8,2-6.2,2.6-5.8,4.3c0,0.1,0,0.2,0,0.2H51c0-0.1,0.1-0.4,0.1-0.4c0.4-0.7,3-1.5,3-1.6c1.9-0.8,3.4-2.2,3.7-4.2
	c0.7,0.1,1.3,0.2,2,0.2c0.7,0,1.3,0,1.6-0.1C62.7,29.5,64.3,29.4,64.6,27.3z"/>
<path class="st2" d="M72.1,30.3c-0.1-0.2-0.2-0.4-0.4-0.6c-0.6-0.3-1.2-0.7-1.8-1.2c-0.8-0.4-1.7-0.6-3-0.6c-0.4,0-0.8,0-1.2,0.1
	c0.1-0.1,0-0.3-0.1-0.5L65,26.6l-0.8,0.8c0,0-0.1,0.6-0.2,0.8c-0.2,0.1-0.4,0.4-0.7,0.7c-0.1-0.2-0.1-0.4-0.2-0.6
	c0,0,0.1-0.4-0.6-0.3c-0.6,0.1-3.6,3-3.6,3c-0.5,0.7-0.9,1-1.1,1.8c0,0.1-0.3,1.2-0.3,1.4c-0.8,2.7,0.7,5.7-0.7,8.1l-0.2,0.2
	l0.2,0.2c0.1,0,0.5-0.3,0.4-0.3c0,0,2.4-0.8,3.5-0.9H61c1-0.1,2.9-0.7,2.9-0.7c0.4-0.1,1.1-0.4,1.1-0.4c0.7,0.9,1.6,2.1,2.8,2.4
	c0.5,0.5,4.6,1.6,4.6,1.6C72.5,44.6,74.2,34.8,72.1,30.3z M63.9,40.7C63,40.9,62,41.1,61,41.2c0,0-2.2,0.3-3.2,0.8
	c0.1-0.1,0.1-0.2,0.1-0.3c0.1-0.3,0.2-0.8,0.2-1.1c-0.7-5.9,0.3-8.3,1.8-9.4l2.9-2.2c0.1,0.3,0.2,0.6,0.2,0.9
	c-1.1,1.6-2,3.7-1.2,5.5c0.3,0.7,0.8,1.5,0.8,1.5s1.4,2.4,2.4,3.5C64.9,40.2,64,40.6,63.9,40.7z"/>
<path class="st1" d="M52.3,15.8c0.1-0.1-1.3-0.9-1.4-1c-1.3-0.5-2.1-0.2-3.5,0.7c-0.4,0.2-0.8,0.4-1,0.4c-0.4,0.2-0.7,0.3-0.7,0.6
	s0.2,0.5,0.4,0.7c0.2,0.2,0.6,0.5,0.9,1c0.3,0.7,1,1.3,1.7,1.6C49,20,49.3,20,49.5,20c0.4,0,0.8-0.1,1.2-0.3
	c0.1-0.1,1.3-0.6,1.2-0.7S52.2,15.9,52.3,15.8z"/>
<path class="st1" d="M69.5,5c-0.2-0.2-0.6-0.2-0.8-0.2c-0.7-0.6-3.1-0.3-2.8,1.3c0,0.1,0,0.2,0,0.2c0,0.6,0.1,1.7,0.6,2
	c0.2,0,1.2,0.4,1.2,0.5c0.7,1.1,1-0.2,1.5,0.9c0,0.3,0.6,0.2,0.7,0.1c0.2,0,0.6-0.1,0.8-0.1C73.9,8.3,70.7,6.5,69.5,5z"/>
<g>
	<path class="st1" d="M56.5,14.9c-0.7,0-1.3-0.2-1.7-0.6c-0.4-0.4-0.6-0.9-0.6-1.5s0.3-1.1,0.6-1.6c-1.4,0.4-2.1-0.4-2.4-0.8
		c-0.8-1.2-0.6-3.1,0.3-3.9c0.4-0.4,1.3-0.8,2.8,0.2c-0.2-0.8-0.2-1.6,0.1-2.3c0.5-1,1.6-1.3,2.9-1.1c1,0.1,1.7,0.4,2,0.9
		c0.2,0.4,0.2,0.8,0.1,1.3c0.6-0.3,1.2-0.2,1.5,0c1.3,0.6,2.4,2.8,1.9,3.9c-0.1,0.3-0.4,0.6-1.1,0.6c0.3,0.4,0.4,0.8,0.3,1.4
		c-0.2,1.2-1.3,2.4-2.5,2.6c-0.4,0.1-1.1,0.1-1.7-0.6c-0.1,0.3-0.3,0.6-0.6,0.8C57.9,14.8,57.3,14.9,56.5,14.9z"/>
</g>
<path class="st5" d="M58,8.9c0.9,0,0.9,0.8,0,0.8C57.1,9.8,57.1,8.9,58,8.9z"/>
<g>
	<path class="st5" d="M57.7,9.2c-0.1-1.1-0.5-2.1-1-3.1l0,0C57.4,7,57.9,8,58,9.2H57.7z"/>
</g>
<g>
	<path class="st5" d="M58,9.2c0.1-0.9,0-1.7-0.1-2.6l0,0c0.2,0.8,0.3,1.9,0.3,2.6H58z"/>
</g>
<g>
	<path class="st5" d="M58.1,9.1c0.2-0.7,0.4-1.9,0.4-2.6l0,0c0.2,0.8-0.1,2-0.2,2.8L58.1,9.1z"/>
</g>
<g>
	<path class="st5" d="M58.3,9.1c0.7-0.7,1.5-1.3,2.1-2l0,0c-0.6,0.8-1.3,1.6-2,2.2L58.3,9.1z"/>
</g>
<g>
	<path class="st5" d="M57.6,9.3c-0.7-0.4-1.9-0.8-2.6-1.1l0,0c0.9,0.2,1.9,0.4,2.8,0.9L57.6,9.3z"/>
</g>
<g>
	<path class="st5" d="M58.3,9.3c0.8-0.4,1.6-0.9,2.5-1.2c-0.8,0.4-1.6,0.9-2.4,1.4L58.3,9.3z"/>
</g>
<g>
	<path class="st5" d="M58.5,9.3c0.7,0.4,1.5,0.8,2.4,0.7c-0.8,0.2-1.7-0.1-2.4-0.6L58.5,9.3z"/>
</g>
<g>
	<path class="st5" d="M58.4,9.4c0.6,0.8,1.3,1.5,2.1,2.2l0,0c-0.8-0.6-1.6-1.3-2.2-2L58.4,9.4z"/>
</g>
<g>
	<path class="st5" d="M58.3,9.7c0.3,1,0.8,1.9,1.4,2.7l0,0c-0.6-0.8-1.2-1.7-1.6-2.6L58.3,9.7z"/>
</g>
<g>
	<path class="st5" d="M58,9.4c-0.1,1.1-0.3,2.1-0.4,3.2l0,0c0.1-1.1,0.2-2.1,0.2-3.2C57.8,9.4,58,9.4,58,9.4z"/>
</g>
<g>
	<path class="st5" d="M57.8,9.7c-0.2,0.8-0.5,1.7-0.7,2.5l0,0c0.2-0.8,0.3-1.7,0.6-2.5L57.8,9.7z"/>
</g>
<g>
	<path class="st5" d="M57.9,9.4c-0.4,0.3-1.2,1.1-1.5,1.5l0,0c0.3-0.6,1-1.1,1.5-1.6L57.9,9.4z"/>
</g>
<g>
	<path class="st5" d="M57.5,9.5c-0.5,0-1,0.1-1.5,0.1l0,0c0.4-0.2,1-0.4,1.5-0.3V9.5z"/>
</g>
<path class="st1" d="M54.9,19.7c-0.2-0.3-0.8,0.2-0.8,0.4c-0.6,1.1,1.8,3.2,2.2,1.5C56.3,21.5,56,19.8,54.9,19.7z"/>
<path class="st3" d="M56.5,17.7c0.2-1.7-3.5-0.3-4.5-3.7c-0.6,1.2-0.4,1.2-0.1,2.4c-0.7,0.1-1.5,0.6-2.2,0.7c1,0.3,0.8,0.5,1.9,1
	c-0.4,0.9-0.7,1.4-0.3,2.4C53.2,17.1,56,19.5,56.5,17.7z"/>
<path class="st3" d="M65.3,12.3c1.6,1,1.9-3,5.3-2.1c-0.8-1.2-0.8-1-2.1-1.2c0.3-0.7,0.2-1.5,0.5-2.2c-0.8,0.8-0.9,0.4-1.7,1.2
	c-0.6-0.8-0.9-1.3-2-1.4C67.4,9.8,63.9,11,65.3,12.3z"/>
<path class="st3" d="M57.3,19.4c-0.6-0.7-1.5,0.9-2.7-0.1c0.1,0.6,0.2,0.6,0.7,1c-0.2,0.3-0.3,0.7-0.6,1c0.5-0.2,0.5-0.1,1-0.2
	c0.1,0.4,0.2,0.7,0.7,1C56,20.2,57.6,20.4,57.3,19.4z"/>
<g>
	<path class="st6" d="M83.5,86c0,0.1-0.7,0.6-0.7,0.6c-3.6,4.9-10.8,5.3-14.3,10.5c-0.5-4.8-1.3-9.5-2.6-14.2
		c-0.8-2.3-1.4-4.4-1.9-6.2c-0.4-1.6-1-3.4-1.3-4.8c-2.7-9.8-3.8-20.6,0.1-30.3l0.3-0.4c0,0,1.2-2.7,1.6-3.7c2-5.7,2.9-9.9,3-10.4
		c0.1-0.6-0.1-1.2-0.2-2.2c-0.5-4-3.9-8.7-1.9-12.3l-0.6-0.7c0.1,1.1-0.7,3.4-0.7,5c-0.7-1.2-1.3-2.4-2-3.6L62,13.4
		c0.7,1.5,1.7,3.3,2.4,4.8c-0.2-0.2-0.3-0.3-0.5-0.4c-0.1-0.1-0.1-0.1-0.2-0.1c-0.7-1.1-2-1.5-3.2-1.5c0.1,0.1-0.1,0.1-0.1,0.1
		c-0.1,0-0.2,0-0.3-0.1c0,0,0,0-0.1,0c0.1,0.1,0.1,0.1,0.1,0.1c0,0.1,0.1,0.2,0.1,0.2c0,0,0.1,0,0,0.1c0.7,1,2,2,3.3,1.5
		c1.2,0.7,1.9,2.3,2.3,3.7c-2.7-2.2-6.3-3.3-9.6-4l-0.1,0.4c0.5,0.1,2.2,0.5,2.5,0.7c-0.4,0-1.1,0.3-1.7,0.6l0.2,0.3
		c1.5-0.9,3.5-0.8,5,0.3c1.3,0.6,2.6,1.7,3.9,2.5c0.5,1.6,0.7,3.3,0.4,4.9c0,0-2.7,8.3-3.1,9.3c-0.4,1-2,4.7-2,4.7s-0.1,0.2-0.2,0.5
		c-1.3,3.2-2.4,6.6-2.8,10c-0.1,0.5-0.1,1.1-0.1,2c-0.1,3.4,0.4,9.8,0.5,9.7c0.5,6.5,4.7,21.3,5.4,24.6c2.1,7.8,1.7,16.2,1.4,24.8
		c-0.1,1.1-0.2,2.2-0.2,3.2c0,0.8,0,1.6,0.1,2.4c0,0.3,0,0.7,0,1.1c-0.1,1.5-0.4,2.9-1.9,4.1c-2.5,2.1-5.9,2-9,1.7l0.1,0.3
		c0.5-0.1,1.6,0.1,2.1,0.3l-0.3,0.4l-1,0.3c0.2,0.1,0.8,0.1,1.1,0.2l0.7-0.5c0.8,0.3,2.1,0.2,3.3-0.3c-0.1,0.1-0.4,0.4-0.5,0.4
		c0.2,0,0.4-0.1,0.7-0.2c0,0,0,0.4,0.1,0.4c0.2-0.1,1-0.1,1-0.2c-0.1,0.1-1,0.8-1.4,0.8h0.3c0,0,1.5-0.9,2.4-1
		c1.3,0,0.4,1.4-0.1,1.5l-1.2-0.1c-0.1,0.3-1,0.4-1.2,0.5c0.4,0.2,1-0.1,1.3-0.3l0.7,0.1l-0.4,0.7l-0.4,0.2l-0.2,0.5l0.5,0.2
		l0.9-0.3c0.4-0.7,1.1-0.9,1,0.2c0.3,0.5,0.8-0.8,0.7-1.1c-0.1-1.1,1.2-0.4,1.1,0.4c0,0.1,1.3,1.7,1.5,0.7c0-0.4-0.6-0.2-0.7-0.7
		c-0.1-0.4,0.1-1,0.1-1c1.1,0.6,2,1,2.4,2.2c2.5,1.5,0-2.5-1.1-2.8c0.1-0.1,1-2,1.7-1.7c0.1,0.1,0.2,0.3,0.3,0.3
		c-0.3,0.2-0.5,0.8-0.6,1.2l-0.4,0.3c0.1,0.2,0.1,0.4,0.2,0.5c0.5,0,0.8-0.3,0.8-0.8c0.4-0.1,1.6,0.7,2.2,0.6c1.5,0.1,0.8-0.8,0.2-1
		c-0.8-1.5,1.2-0.1,1.5-0.2c0.1,0,1.2-0.1,1.6-0.1l0.8,0.5c0.1,0.6,0.8,1,1.1,0.1c-0.6-2.2-6.7-4.3-7-8.5c-0.6-3.4-0.8-7-0.8-9.5
		l0,0c0.1-3,0.1-6-0.1-9c1.9-4,5.4-6.4,9.3-8.4c1.3-0.7,2.6-1.8,4-2.7l1-1.6c0.1-0.1,0.1-0.1,0.1-0.2L83.5,86z"/>
	<path class="st6" d="M83.7,87.5C83.7,87.5,83.8,87.4,83.7,87.5L83.7,87.5z"/>
</g>
</svg>
