<?xml version="1.0" encoding="utf-8"?>
<!-- Generator: Adobe Illustrator 25.4.1, SVG Export Plug-In . SVG Version: 6.00 Build 0)  -->
<svg version="1.1" id="Layer_1" xmlns="http://www.w3.org/2000/svg" xmlns:xlink="http://www.w3.org/1999/xlink" x="0px" y="0px"
	 viewBox="0 0 128 140.1" style="enable-background:new 0 0 128 140.1;" xml:space="preserve">
<style type="text/css">
	.st0{fill:#FFFFFF;}
	.st1{fill:none;stroke:#FFFFFF;stroke-width:0.9511;stroke-linecap:round;stroke-miterlimit:10;}
	.st2{fill:none;stroke:#FFFFFF;stroke-width:0.9814;stroke-miterlimit:10;}
</style>
<path class="st0" d="M91.4,72.5c-1.7,0.2-2.2,0.7-2.4,2.4c0,0.1-0.2,0.1-0.2,0c-0.2-1.7-0.7-2.2-2.4-2.4c-0.1,0-0.1-0.2,0-0.2
	c1.7-0.2,2.2-0.7,2.4-2.4c0-0.2,0.2-0.2,0.2,0c0.2,1.7,0.7,2.2,2.4,2.4C91.6,72.2,91.6,72.4,91.4,72.5z M80,5.4
	c-1.7-0.2-2.2-0.7-2.4-2.4c0-0.1-0.2-0.1-0.2,0c-0.2,1.7-0.7,2.2-2.4,2.4c-0.1,0-0.1,0.2,0,0.2c1.7,0.2,2.2,0.7,2.4,2.5
	c0,0.2,0.2,0.2,0.2,0C77.8,6.4,78.2,6,80,5.7C80.1,5.6,80.1,5.4,80,5.4z M25.1,42.6c-1.9,0-1.9,3,0,3C27.1,45.6,27.1,42.6,25.1,42.6
	z M74.3,99.4c-2.2,0-2.2,3.5,0,3.4C76.5,102.8,76.5,99.3,74.3,99.4z M102.7,57.5L102.7,57.5C102.7,57.6,102.7,57.6,102.7,57.5
	C102.6,57.6,102.6,57.6,102.7,57.5C102.6,57.6,102.7,57.5,102.7,57.5z M91.5,31.2C91.6,31.2,91.6,31.2,91.5,31.2
	C91.6,31.2,91.6,31.2,91.5,31.2C91.6,31.2,91.6,31.2,91.5,31.2z M68.5,41.9c0.2-0.2,0.3-0.2,0.4-0.3C68.9,41.7,68.8,41.8,68.5,41.9z
	 M43.7,62.5L43.7,62.5L43.7,62.5L43.7,62.5z M43.8,62.4L43.8,62.4L43.8,62.4L43.8,62.4z M66.5,71.8c0,0-0.2,0.1-0.2,0.2L66,72.1
	c-0.2,0.1-0.3,0.2-0.4,0.2l0,0c-1.9,0.8-4.7,1.2-4.7,1.2s0.7-5,1.7-7.6C64.1,67.7,64.8,70,66.5,71.8L66.5,71.8L66.5,71.8z
	 M69.8,51.2c-0.7,0-1.4,0-2.1,0.1c1-1.2,2-2.1,3.1-2.8l0,0c0.1,0,0.3-0.1,0.3-0.2c0.1-0.1,0.2-0.1,0.3-0.1c0.8,1.7,2.1,3,3.5,4
	C73.5,51.5,71.9,51.4,69.8,51.2z M50.4,61.6L50.4,61.6L50.4,61.6L50.4,61.6z M50.4,61.7L50.4,61.7L50.4,61.7L50.4,61.7L50.4,61.7z
	 M57.6,73.8c-2.2,0.1-5.3,0.3-7.1,1.4c0.1-0.2,0.2-0.4,0.2-0.6l0,0c0.2-0.4,0.3-2.9,0.2-3.2C49.5,48.1,61,59.6,62,50.7
	c0.7,1.3,1.1,2.6,1.3,3.7c-1.8,2.7-2.4,6.2-2,9.2C59.8,67,58.4,70.5,57.6,73.8z M45.6,40.3L45.6,40.3L45.6,40.3L45.6,40.3L45.6,40.3
	z M49.4,38.3L49.4,38.3L49.4,38.3L49.4,38.3L49.4,38.3z M69,17L69,17L69,17L69,17L69,17z M37.4,33.5L37.4,33.5L37.4,33.5L37.4,33.5z
	 M46.2,35.7L46.2,35.7 M50.7,20L50.7,20L50.7,20z M54,18.9L54,18.9L54,18.9L54,18.9z M50.6,21.4L50.6,21.4 M55.3,31.5
	C55.3,31.5,55.3,31.6,55.3,31.5C55.3,31.5,55.3,31.5,55.3,31.5L55.3,31.5z M33.6,36.6L33.6,36.6L33.6,36.6L33.6,36.6z M38.5,29.8
	L38.5,29.8L38.5,29.8L38.5,29.8z M64.6,14.4L64.6,14.4L64.6,14.4L64.6,14.4z M64.6,14.4L64.6,14.4L64.6,14.4L64.6,14.4z M74.3,17.8
	L74.3,17.8L74.3,17.8z M74.3,17.7L74.3,17.7L74.3,17.7L74.3,17.7L74.3,17.7z M74.3,17.6L74.3,17.6L74.3,17.6L74.3,17.6z M74.3,17.6
	L74.3,17.6L74.3,17.6L74.3,17.6z M60.3,79.1c0.2-2.4,0.4-4.9,0.4-4.9c1.1,0,1.2-0.2,1.7-0.2c1.5-0.3,3.1-1,4.5-1.6l0,0H67
	c1.2,1.5,2.7,3.6,4.7,4.1c0.8,0.8,2.6,1.7,3.7,2v0.1c0.9-0.2,2.7,0.8,3.2,0.7c0.2,0.2,0.3,0.2,0.6,0.3c-0.1-0.1-0.1-0.2-0.1-0.2
	c0.1,0,0.1,0,0.1,0c-0.1-0.2,0-0.4,0-0.5c0.1,0.2,0.2,0.2,0.2,0.4v-0.1c0,0.1,0,0.2,0.1,0.2c0-0.2,0-0.4,0-0.7
	c0.5-1.9,1.9-4.9,1.7-7c0.4-5.6,0.6-11.9-1.8-16.9c7.9,4.1,19.2,3.3,26.7,0.9c0,0,0,0-0.1-0.1c0.1,0,0.2,0.1,0.2,0.1
	c-0.3-0.2-0.4-0.2-0.5-0.3h0.1c0.1,0,0.2,0.1,0.3,0.1c0,0,0,0-0.1-0.1c0.1,0.1,0.2,0.1,0.2,0.2c-0.2-0.2-0.3-0.3-0.6-0.5
	c0.1-0.2-0.7-1.2-0.9-1.5l-0.7-1.7c-0.7-1.2-2-3.4-3.2-4.1c-3.2-3.7-12.6-13.2-17.8-11.5c-7.5,1.3-10.2,9.4-16,13.7
	c0.5-2.3,0.7-4.6,1.1-7l0,0l0,0v-0.1c0,0,0.1-0.3,0.1-0.4v-0.1v0.2c0-0.1,0.1-0.3,0.1-0.4c0,0,0-0.2,0-0.1l0,0l0,0
	c6.6-5.6,14.9-8.4,23.2-11c-0.2,0.1,0.1-0.1,0.2-0.1l0,0c0.7-0.2,1.3-0.4,1.9-0.6c0,0,0,0-0.1,0c0.1,0,0.1,0,0.2,0h-0.1
	c0.1,0,0.1,0,0.2,0c-0.2,0-0.3,0-0.6-0.1c0.2,0,0.2,0,0.3,0.1c-0.2-0.1-0.2-0.1-0.4-0.2c-0.2-0.3-2-1.3-2.3-2.1c-0.1,0-0.1,0-0.1,0
	c-11.6-8.2-33.3-4.1-23.2,13.6c-0.2,1.7-0.6,3.3-0.9,5c-0.3-4.6-4.9-13.3-4.1-17.1l1.1-2.4c-0.1-0.3,1.8-2.9,2-3.2l-1-1
	c0.3,1.5-2.7,3.9-2.9,7.7l-0.1,0.7c0,0.1,0,1.3-0.1,1.2c-0.8-2.2-1.7-4.3-3.3-6.1l-0.8,0.5c1.7,2.1,3.2,5.1,4.4,7.7
	c-0.4-0.4-0.8-0.7-1.2-0.9l0,0c-1.1-1.8-3.3-2.5-5.3-2.4c0.1,0.1-0.1,0.1-0.1,0.2c-0.2,0-0.3,0-0.5,0l0,0c0,0,0,0-0.1,0
	c0.1,0.1,0.1,0.1,0.1,0.1c0,0.1,0.2,0.2,0.2,0.4c0,0,0.1,0,0,0.1c1.2,1.6,3.4,3.2,5.5,2.4c2,1.2,3.1,3.8,3.8,6.1
	c-4.5-3.7-10.5-5.4-16-6.6L48.1,35l2.4,0.5c0.6,0.2,1.8,0.6,1.8,0.6c0.1,0-0.2,0-0.2,0s-0.4,0.1-0.6,0.2c0,0-1.6,0.6-2.1,0.8
	l0.2,0.5l0.7-0.2c0,0,0.6-0.3,0.7-0.3c2.1-1,5.1-0.2,7.1,1.1h0.1c2.2,1.1,4.4,2.8,6.4,4.1c1,3.1,1.2,6.6,0.5,9.7
	c-0.4,0.2-0.7,0.7-1.1,1.2C63.6,51.6,63,50,62,48.4c0-0.1,0-0.1,0-0.2c0,0,0,0.1-0.1,0.1c0-0.1,0-0.2,0.1-0.2
	c-0.9-3.7-0.8-4.6-4.9-4.6c-8.1-2.1-13,3.2-19.7,6.3c0.1,0,0.1,0,0.2,0c-0.1,0.1-0.1,0.1-0.2,0.2c0.1,0,0.1,0,0.2,0
	c-0.1,0.1-0.2,0.1-0.3,0.1c0,0.1-0.2,0.1-0.4,0.2l0,0c0.2,0,0.2,0,0.4,0c-0.1,0-0.1,0-0.2,0h0.2c0,0.1-0.2,0-0.2,0v0.1
	c-0.1,0-0.1,0-0.2,0l0,0l0,0l0,0c-0.1,0.1-0.1,0.2-0.2,0.3l0.1,0.2V51v0.1c0,0.1,0,0.1,0,0.2c-0.3,0.2,1,4.1,1,4.3
	c0.1,0.1,0.1,0.2,0.2,0.2c0,0,0,0.2,0.1,0.2c0,0,0.1,0.2,0.1,0.2v0.1c0,0,0,0,0,0.1c0,0,0.2,0.3,0.2,0.4l0,0c0,0.1,0.1,0.1,0.1,0.2
	l0,0l0,0c0.2,1.5-0.3,3.9-0.9,5.5c-0.1,0.1,0,0.2-0.1,0.2C37.1,63,37,63.4,37,63.9c0,0.9,0.4,2.1,1.2,2.5l0,0l0,0l0,0
	c0.2,0.1,0.5,0.4,0.6,0.2l0,0l0,0l0,0c0,0,0.1,0,0-0.1l0,0l0,0c0,0,0,0,0-0.1c0.1,0,0,0,0.1-0.1l0,0l0,0v-0.1c0-0.1,0-0.1,0-0.2
	c0,0,0,0,0-0.1c0-0.1,0-0.2,0-0.2l0,0l0,0c-0.1,0-0.1-0.1-0.1-0.1s0,0,0-0.1v-0.1l0,0c0-0.1-0.1-0.1-0.2,0c0,0,0,0-0.1,0l0,0l0,0
	l0,0l0,0l0,0l0,0c0,0,0,0-0.1,0l0,0l0,0l0,0l0,0l0,0L38,64.3l0,0l0,0l0,0l0,0c0,0,0-0.4,0-0.3v-0.6c0-0.2,0.1-0.4,0.1-0.6v-0.1l0,0
	c0.1-0.4,1.2-4.8,1.2-4.9c-0.1-0.5-2-6.8-2.3-6.7c0-0.2,0-0.2,0.1-0.4l0,0l0,0c0.2,0,0.7,0,0.7,0.1c4.2,0.8,7.6,4.5,12.1,4.6
	c0,0.1,0,0.2,0,0.2l-0.1,0.3c0,0.2-0.1,0.2-0.2,0.4c0,0,0,0.1-0.1,0.1l0,0l-0.1,0.2c0,0.1-0.1,0.2-0.1,0.2l0,0l0,0c0,0,0,0,0,0.1
	c0.1,0-0.2,0.4-0.2,0.5S49,57.5,49,57.6l-0.3-0.2l0,0c0,0.1-0.1,0.2-0.2,0.2v0.1l0,0c0,0,0,0.1-0.1,0.2l0,0c-0.8,1.3-2.3,2.2-3.6,3
	c-1.7,1-5.3,1.6-6.3,3.7c0,0.2,0,0.4,0.2,0.4c0,0.1-0.1,0.2,0,0.2l0,0c0,0.1,0,0.2,0,0.2l0,0h0.1l0,0l0,0l0,0c0-0.1,0-0.2,0-0.3
	v-0.1l0,0V65c0-0.1,0-0.1,0.1-0.2c0.1,0,0.1-0.1,0.1-0.1c0.7-1.2,2.6-1.3,3.7-2.1c0.1,0,0.2-0.1,0.2-0.1l0,0l0,0
	c0.1,0,0.2-0.1,0.2-0.1h0.1h0.1h0.1h0.1c0,0,0,0,0.1,0c0,0,0.1,0,0.1-0.1c0.1,0,0.1,0,0.2-0.1h0.1l0,0c0-0.1,0.1,0,0.1-0.1l0,0
	c0.1-0.1,0.2-0.1,0.2-0.2c0,0,0.9-0.4,1-0.5c0.6-0.2,2.1-1.3,2.1-1.3c0.7-0.5,1.2-1.2,1.7-2c0.5-0.9,1.3-2.1,1.3-3.2
	c1.1,0.1,2.2,0.4,3.2,0.4c-1.4,1.3-2.5,3.1-3,5l0,0v0.1c0,0.1-0.1,0.2-0.1,0.2c-0.1,0.1-0.1,0.2-0.1,0.3c0,0,0,0,0,0.1v0.1
	c0,0.1,0,0.1,0,0.2v0.1c0,0,0,0.1,0,0.2v0.1v0.1v0.1l0,0c-0.2,1.7-0.6,3.4-0.5,5.1c-0.1,2.8,0.7,6.1-1.1,8.5c0,0-0.3,0.2-0.5,0.3
	l0.2,0.3l0.4,0.3l0,0c0.1,0,0.6-0.2,0.7-0.3c0,0,0.2-0.2,0.2-0.3c0-0.1,0.2-0.1,0.2-0.1c1.7-0.8,3.7-1.2,5.6-1.3l1.8-0.1
	c0,0-0.5,2.8-0.6,4.6c-0.1,1.7-0.1,4.1,0,6.1s1.7,14.3,1.8,28.4c0,4.5,0.5,8.4-3.3,11.9l0,0c-3.9,3.4-9.2,3.4-14.1,3.2l0.1,0.4
	c0.8-0.1,2.5,0.2,3.3,0.4l-0.4,0.7l-1.6,0.4l0,0c0.3,0.2,1.3,0.2,1.7,0.2l1-0.8c1.2,0.3,3.3,0.2,5.1-0.7c-0.1,0.1-0.7,0.7-0.7,0.7
	c0.2,0,0.7-0.2,1-0.3c0,0,0.1,0.6,0.2,0.6c0.3-0.1,1.5-0.2,1.6-0.3c-0.1,0.1-1.5,1.2-2.2,1.4l0,0h0.5c0,0,2.3-1.5,3.7-1.7
	c2.1,0,0.7,2.2-0.1,2.3h-1.8c-0.2,0.4-1.5,0.7-1.8,0.9c0.7,0.2,1.6-0.1,2.1-0.6l1,0.1l-0.7,1.1l-0.7,0.3l-0.2,0.8l0.8,0.3l1.4-0.4
	c0.6-1.2,1.7-1.5,1.6,0.2c0.6,0.8,1.3-1.2,1.1-1.7c-0.2-1.7,1.9-0.8,1.7,0.6c0,0.1,2.2,2.7,2.3,1.1c-0.1-0.6-1-0.3-1.2-1.1
	c-0.2-0.7,0.2-1.6,0.2-1.6c1.7,0.8,3.2,1.5,3.9,3.3c3.9,2.2-0.1-4-1.8-4.2c0.1-0.1,1.5-3.1,2.7-2.7c0.1,0.1,0.3,0.4,0.4,0.5
	c-0.5,0.3-0.7,1.4-0.8,1.9l-0.6,0.4c0.1,0.2,0.2,0.7,0.3,0.8c0.8,0,1.2-0.5,1.2-1.2c0.7-0.2,2.5,1,3.6,0.8c2.3,0.2,1.2-1.3,0.2-1.6
	c-1.4-2.3,1.9-0.2,2.3-0.3c0.2,0,1.9-0.2,2.4-0.2l1.4,0.7c0.1,0.9,1.3,1.6,1.7,0.2c-1.1-3.6-11.2-4.6-11.9-11.2
	c-1.6-13.6-2.9-19.4-3.3-22.5c-0.4-3-0.7-6.1-1.2-7.9C60.7,86.3,60.1,81.5,60.3,79.1z"/>
<path class="st1" d="M37.8,29.2c-0.7-0.3-1.8-0.6-3.1-0.4c-1.1,0.2-1.3,0.7-3.2,1.7c-2.2,1.2-3,1.1-3.1,1.7c-0.2,0.7,1,0.9,2.5,3
	c0.7,1,0.8,1.4,1.5,2c0.2,0.2,1.1,0.8,2.3,1c1.3,0.2,2.3-0.4,2.7-0.6"/>
<g>
	<path class="st0" d="M68,13.3c0.1-0.6,0.2-1.1,0.7-1.6c0.2-0.2,0.5-0.4,0.7-0.5c0.3-0.1,0.6-0.2,0.9-0.2c0.6,0,1.2,0.1,1.7,0.2
		c0.2,0.1,0.5,0.2,0.8,0.3c0.2,0.2,0.5,0.3,0.7,0.4l0,0L73.3,12c0.2,0.1,0.5,0.2,0.7,0.2c0.2,0.1,0.2,0.1,0.4,0.2
		c0.1,0.1,0.1,0.1,0.2,0.2c0.1,0.1,0.1,0.1,0.1,0.2l0.1,0.2c0.2,0.4,0.5,0.8,0.7,1.2l1.7,2.4c0.1,0.2,0.3,0.4,0.4,0.7
		c0.2,0.2,0.2,0.5,0.3,0.7c0.1,0.2,0.2,0.5,0.1,0.8c0,0.1,0,0.2-0.1,0.2c-0.1,0.2-0.1,0.2-0.1,0.2c-0.1,0.1-0.2,0.2-0.2,0.3
		c-0.3,0.4-0.7,0.8-1.2,1.1c-0.5,0.2-1,0.4-1.6,0.4c-0.2,0-0.2-0.1-0.2-0.2c0-0.2,0.1-0.2,0.2-0.2c0.9-0.2,1.7-0.7,2.2-1.4
		c0.1-0.1,0.1-0.2,0.2-0.3c0-0.1,0.1-0.2,0.1-0.1v-0.1c0-0.2-0.1-0.4-0.2-0.6c-0.1-0.2-0.2-0.4-0.2-0.6c-0.1-0.2-0.2-0.3-0.4-0.5
		c-0.6-0.8-1.2-1.6-1.8-2.4c-0.2-0.4-0.6-0.9-0.8-1.3c0.1-0.2-0.5-0.3-0.9-0.5h-0.1h-0.1l0,0c-0.4-0.3-0.7-0.6-1.2-0.7
		c-0.4-0.2-0.9-0.2-1.4-0.2s-0.8,0.1-1.2,0.4c-0.3,0.3-0.5,0.7-0.6,1.2l0,0c0,0.2-0.2,0.2-0.3,0.2C68,13.7,68,13.5,68,13.3z"/>
</g>
<path class="st2" d="M48,15.6c-0.7-0.8-2.6-3.7-1.5-6.1C47,7.9,48.8,7.3,49,7.3c0.9-0.2,1.7-0.4,3-0.2c2.2,0.4,3.2,0.8,3.7,1.6
	c1.1,1.7-1.7,5.4-1.5,5.5c0.1,0,0.7-1.6,2.2-2.4c0.3-0.2,1.2-0.6,2.2-0.4c0.8,0.2,1.4,0.7,2,1.3c0.2,0.2,2.2,2.3,2.2,5.1
	c0,0.5-0.1,0.9-0.2,1.2c-0.5,0.7-1.7,0.8-2.5,0.7c-0.7-0.2-1.3-0.6-1.3-0.6s1.4,0.4,2,1.6c0.4,0.8,0.3,1.7,0.2,2.1
	c0,0.2-0.1,1-0.6,1.8c-0.2,0.5-1.8,3.2-4.3,3.1c-1.2-0.1-2.2-0.9-2.3-1.1c-0.8-0.7-1.2-1.7-1.2-1.7s0.4,0.7,0.2,1.7
	s-0.8,1.7-1.7,2.1c-0.3,0.2-0.7,0.2-0.9,0.2c-1.7,0.2-3.6,0.5-4.9-0.8c-0.7-0.7-0.9-1.6-1-1.9c-0.2-1.5,0.4-2.7,0.7-3.1
	c0.7-1.2,1.7-1.8,1.7-1.9c-0.1-0.1-0.9,0.7-2.2,0.9c-0.4,0.1-2,0.3-3.2-0.7c-0.5-0.4-0.7-0.8-1-1.5c-0.3-0.7-1.3-2.9-0.3-5
	c0.2-0.4,0.6-1.2,1.5-1.7c1.3-0.7,2.7-0.2,3.4,0c0.8,0.3,1.5,0.7,1.9,1.1C47.4,15.1,47.8,15.6,48,15.6z"/>
<ellipse class="st0" cx="50.9" cy="18.4" rx="1.4" ry="0.8"/>
<g>
	<path class="st0" d="M50.4,17.9c-0.1-0.5-0.2-1.1-0.2-1.6c-0.1-0.5-0.2-1.1-0.3-1.6c-0.4-1-0.9-2-1.3-3l0,0
		c0.6,0.9,1.2,1.8,1.7,2.8c0.2,0.5,0.3,1.1,0.5,1.6c0.1,0.6,0.2,1.1,0.3,1.7L50.4,17.9z"/>
</g>
<g>
	<path class="st0" d="M50.9,18c0.1-0.4,0.1-0.8,0.1-1.3c0-0.4,0.1-0.8,0-1.2c-0.1-0.9-0.2-1.7-0.2-2.6l0,0c0.2,0.8,0.3,1.7,0.4,2.6
		c0.1,0.5,0.1,0.9,0.1,1.3c0,0.4,0,0.9-0.1,1.3L50.9,18z"/>
</g>
<g>
	<path class="st0" d="M51.1,17.8l0.6-2.6c0.1-0.4,0.1-0.8,0.2-1.3l0.1-1.3l0,0C52,13,52,13.5,52,13.9c0,0.4,0,0.9-0.1,1.3l-0.5,2.6
		H51.1z"/>
</g>
<g>
	<path class="st0" d="M51.4,17.8c0.7-0.7,1.5-1.3,2.2-2c0.7-0.7,1.4-1.4,2.1-2.1l0,0c-0.7,0.7-1.2,1.5-1.9,2.2
		c-0.3,0.4-0.7,0.7-1,1.1l-1.1,1.1L51.4,17.8z"/>
</g>
<g>
	<path class="st0" d="M50.3,18.2L49,17.6c-0.4-0.2-0.8-0.4-1.3-0.6l-2.7-0.9l0,0c0.9,0.2,1.8,0.4,2.7,0.7c0.5,0.1,0.9,0.3,1.3,0.5
		l1.3,0.6L50.3,18.2z"/>
</g>
<g>
	<path class="st0" d="M51.5,18.2c0.8-0.4,1.6-0.9,2.5-1.2c0.8-0.4,1.7-0.7,2.5-1.1l0,0c-0.8,0.5-1.6,0.9-2.4,1.3
		c-0.8,0.4-1.6,0.9-2.4,1.4L51.5,18.2z"/>
</g>
<g>
	<path class="st0" d="M51.9,18.2l1.1,0.7c0.3,0.2,0.7,0.4,1.1,0.6c0.3,0.1,0.7,0.2,1.2,0.2s0.8,0.1,1.2,0.1l0,0
		c-0.4,0.1-0.8,0.1-1.2,0.1s-0.8,0-1.2-0.1c-0.4-0.2-0.7-0.3-1.2-0.5l-1.1-0.6L51.9,18.2z"/>
</g>
<g>
	<path class="st0" d="M51.8,18.7c0.6,0.7,1.1,1.2,1.7,1.9c0.3,0.2,0.6,0.6,0.9,0.8l0.9,0.9l0,0c-0.7-0.5-1.3-1-2-1.6
		c-0.6-0.6-1.2-1.2-1.7-1.8L51.8,18.7z"/>
</g>
<g>
	<path class="st0" d="M51.7,19l0.5,1.2c0.2,0.4,0.3,0.7,0.5,1.2c0.4,0.7,0.9,1.4,1.3,2.2l0,0c-0.5-0.7-1-1.3-1.5-2.1
		c-0.2-0.3-0.4-0.7-0.6-1.2l-0.6-1.2L51.7,19z"/>
</g>
<g>
	<path class="st0" d="M51.4,18.7c-0.1,0.9-0.2,1.7-0.3,2.7c-0.2,0.9-0.3,1.7-0.4,2.7l0,0c0.1-0.9,0.2-1.7,0.2-2.7s0.1-1.7,0.2-2.7
		H51.4z"/>
</g>
<g>
	<path class="st0" d="M50.9,19c-0.4,1.4-0.8,2.8-1.2,4.1l0,0c0.2-1.4,0.6-2.8,0.9-4.2L50.9,19z"/>
</g>
<g>
	<path class="st0" d="M50.6,18.5L49,20c-0.5,0.5-1,1-1.5,1.5l0,0c0.4-0.6,0.8-1.2,1.3-1.7l1.5-1.5L50.6,18.5z"/>
</g>
<g>
	<path class="st0" d="M50.4,18.9c-0.4,0-0.8,0-1.2,0.1c-0.2,0-0.4,0-0.7,0c-0.2,0-0.4,0.1-0.7,0.1l0,0c0.2-0.1,0.4-0.2,0.6-0.2
		c0.2-0.1,0.4-0.2,0.6-0.2c0.2-0.1,0.4-0.1,0.7-0.1s0.4,0,0.7,0L50.4,18.9z"/>
</g>
<g>
	<path class="st0" d="M44.9,38.3c-0.1,0-0.3,0.2-0.3,0.4c-0.1,0.2,0,0.4,0,0.7c0.2,0.5,0.4,0.9,0.8,1.3c0.3,0.4,0.7,0.7,1.2,0.7
		c0.5,0.1,0.7-0.1,1-0.6l0,0c0.1-0.1,0.2-0.1,0.2-0.1s0.1,0.1,0.1,0.1c0.1,0.3-0.1,0.7-0.4,0.9c-0.3,0.2-0.7,0.2-1,0.2
		c-0.2-0.1-0.6-0.2-0.8-0.3s-0.5-0.4-0.7-0.6c-0.4-0.4-0.7-0.9-0.9-1.5c-0.1-0.2-0.1-0.2-0.1-0.4s0-0.4,0.1-0.5
		c0.1-0.3,0.2-0.6,0.7-0.7c0.2-0.1,0.3,0,0.4,0.2C45.2,38,45.1,38.2,44.9,38.3C45,38.3,45,38.3,44.9,38.3L44.9,38.3z"/>
</g>
<path class="st0" d="M48.7,34.4c0.2-1-0.4-1.4-0.8-1.7s-0.5-0.4-1.1-0.3c-0.8-0.2-3.1-0.6-4.1-1.5c-1-0.9-2-2.1-2.5-3.6
	c-0.8,1.2-0.7,2.2-0.7,2.5c0,0,0.1,1.4,0.6,2.2c-0.7,0.2-1.1,0.2-1.6,0.4c-0.5,0.2-2.1,0.8-2.7,0.8c0.8,0.2,1.6,0.7,1.6,0.7
	s1.4,1,2.2,1.2c-0.5,0.9-0.8,1.5-0.8,2.2c-0.1,0.7-0.2,1.4,0.3,2.4c0.7-1.2,1.3-1.8,1.3-1.8s1.7-1.3,2.2-1.6
	c0.5-0.2,1.6-0.6,2.3-0.6c0.7,0,1.7,0.1,2.2,0.2C47.6,35.9,48.5,35.3,48.7,34.4z"/>
<path class="st0" d="M64.7,23.7c0.6,0.7,1.2,0.6,1.7,0.4c0.4-0.1,0.6-0.1,0.9-0.6c0.6-0.5,2.2-1.7,3.5-1.9c1.2-0.2,2.6-0.2,4,0.5
	c-0.2-1.3-1.1-1.8-1.2-2c0,0-1-0.7-1.8-1c0.3-0.5,0.5-0.9,0.7-1.3c0.2-0.4,0.7-1.9,1.1-2.3c-0.7,0.4-1.4,0.7-1.4,0.7
	s-1.6,0.4-2.1,0.7c-0.3-0.9-0.5-1.4-1-1.9c-0.4-0.5-0.8-1-1.8-1.2c0.3,1.2,0.5,2,0.5,2s-0.1,1.9-0.2,2.4c-0.2,0.5-0.6,1.4-1,1.9
	s-1.1,1.1-1.5,1.5C64.5,21.9,64.1,23,64.7,23.7z"/>
<path class="st0" d="M49.8,37.2c-0.2-0.3-0.5-0.3-0.7-0.3s-0.2,0-0.4,0.2c-0.3,0.2-1.1,0.6-1.7,0.6s-1.2-0.1-1.7-0.5
	c0,0.6,0.3,0.8,0.4,1c0,0,0.4,0.4,0.7,0.6c-0.2,0.2-0.2,0.3-0.3,0.6c-0.1,0.2-0.4,0.8-0.6,1c0.3-0.2,0.7-0.2,0.7-0.2s0.7-0.1,1-0.2
	c0.1,0.4,0.2,0.7,0.3,0.9s0.3,0.5,0.7,0.7c-0.1-0.5-0.1-0.9-0.1-0.9s0.2-0.8,0.2-1.1s0.3-0.6,0.6-0.7s0.6-0.4,0.7-0.6
	C49.8,38,50,37.6,49.8,37.2z"/>
<g id="Isolation_Mode">
	<path class="st0" d="M59.3,96.7c-2.6-2.2-6.1-3.7-6.7-7.2l0,0c0-0.1,0.2-0.1,0.2-0.1l0,0c0.1-2-2.9-5.4-4.6-6.5
		c-1.7-1.4-4-1.2-6.1-1.3c-1.2,0.1-2.6-0.5-3.8,0.1c-0.2,0.6-1.2,0.8-1.8,0.7l0,0c0,0-0.1,0-0.1-0.1c0.1,0.1,0.2,0.2,0.2,0.2
		c3.9,5.1,8.5,12.2,15.7,7.2c0.2,1,0.6,1.9,1.2,2.7c-1,0.5-2.6,1.4-3.7,3.1c-2.2-0.3-4.4,0.5-6.4,1.3c-3.3,1.2-3.4,5.1-4.1,8.1
		c-0.3,0.7-0.4,1.6-0.2,2.3c0.3,0,0.3,0.4,0.6,0.6c0,0.5,0.2,1.1-0.1,1.5l0,0l-0.1,0.1c0.1-0.1,0.2-0.1,0.3-0.2
		c0.3,0,0.7-0.3,1.2-0.2c0-0.1,0.1-0.1,0.2,0V109c7.7-2.2,14-3.9,9-13.3v-0.1c1.1-1.4,2.6-2.2,3.5-2.7c0.3,0.4,0.7,0.7,1,1.1l0,0
		c1.3,1.4,3.1,2.4,4.4,3.8"/>
</g>
</svg>
