<?xml version="1.0" encoding="utf-8"?>
<!-- Generator: Adobe Illustrator 25.3.1, SVG Export Plug-In . SVG Version: 6.00 Build 0)  -->
<svg version="1.1" xmlns="http://www.w3.org/2000/svg" xmlns:xlink="http://www.w3.org/1999/xlink" x="0px" y="0px"
	 viewBox="0 0 669.2 522.4" style="enable-background:new 0 0 669.2 522.4;" xml:space="preserve">
<style type="text/css">
	#Layer_1_copy_2 {padding: 20px;}
	.st0{fill:#A4F6FF;opacity: 0.5;}
	.st1{fill:#2E335E;}
	.st2{fill:url(#SVGID_1_);}
	.st3{fill:url(#SVGID_2_);}
	.st4{fill:url(#SVGID_3_);}
	.st5{fill:url(#SVGID_4_);}
	.st6{fill:#FFFFFF;}
	.st7{fill:#A7B0B4;}
	.st8{fill:#353535;}
	.st9{fill:url(#SVGID_5_);}
</style>
<defs>
	<filter id="f1" x="-50%" y="-50%" width="200%" height="200%">
		<feGaussianBlur in="SourceGraphic" stdDeviation="15" />
	</filter>
</defs>
<g id="Layer_1_copy_2" filter="url(#f1)">
	<g>
		<path class="st0" d="M363.7,105.9c-1.1,0.2-1.8,1.2-1.6,2.3l0,0.1c1.4,8,2.9,16,3.1,23.9c0.3,6.3,0,12.5-0.9,18.5
			c5,2.6,9.9,5.6,14.8,8.5c0-0.9,0-1.9,0-2.8c-0.5-18.1-6.4-34.3-13.3-49.3C365.5,106.2,364.6,105.7,363.7,105.9z"/>
		<path class="st0" d="M103.3,150.6L103.3,150.6c10.5-0.1,20.3,3.1,28.2,8.6l-1.5-6.2c16.8,11.2,29.5,37.9,30.3,39.6c0,0,0,0,0,0.1
			c0,0,0,0,0,0c8.4,13.2,16.3,27.4,26.9,41.2c7,9.1,15.5,18.2,26.8,25.5c0.7,0.5,1.4,0.9,2.1,1.4l2.3,1.2l4.6,2.4
			c3.1,1.5,6.5,2.6,9.8,3.8c2.9,0.8,5.9,1.5,8.8,2.1l-2.2-5.1c-0.9-1.8-1.3-3.8-2-5.7c-0.6-1.9-1.1-3.9-1.7-5.8l-1.1-5.8
			c-0.4-1.9-0.8-3.9-0.9-5.8c-0.3-3.2-0.7-6.5-0.7-9.6c-13.2,0.2-30-3.7-44-20.4l17.2-0.1c-14-12.2-27-28.1-42.5-42.2
			c-8.2-7.4-17.4-14.3-28-18.6c-1.3-0.5-2.6-1.1-4-1.5l-4.1-1.1c-2.7-0.9-5.6-1-8.3-1.4c-1.4-0.2-2.8-0.2-4.2-0.1l-4.1,0
			c-2.7,0.3-5.4,0.8-8.1,1.2c-0.7,0.1-1.2,0.7-1.1,1.5C102.1,150.1,102.7,150.6,103.3,150.6z"/>
		<path class="st0" d="M579.1,231.9c-7.7,3.3-15.5,8-22.7,14.2c-7.3,6.2-14.1,13.7-20.2,21.8c-9.1,12.1-16.8,25.1-24.3,37.4
			l14.3-8.6c-15.4,43.7-60.4,58.1-61.8,58.6c-3,1-6.1,1.8-9.2,2.4c-1.3,0.2-2.5,0.4-3.8,0.4c0.1-0.4,0.2-0.8,0.1-1.1
			c-0.5-1.8-3.6-2.9-4.2-4.6c-0.2-0.6-0.5-1.2-0.9-1.7c7.7-6,15.1-12.5,22.3-19.7c4.8-4.9,9.4-10.1,13.6-15.9
			c4.2-5.8,8.1-12.2,11.1-19.2c3-7,5.2-14.7,5.8-22.6c0.7-7.9-0.1-15.7-1.9-22.9c-3.6-14.4-10.3-26-16.8-36.6
			c-5.3-8.7-10.7-16.9-15.1-25v0c-0.7-1.1-19.9-33.1-11.9-48l4.4,9.6c2.2-9.5,7.9-18.6,15-26.6c7.6-8.8,16.9-16.6,26.5-23.9l0,0
			c0.7-0.5,0.9-1.5,0.5-2.2c-0.5-0.8-1.5-1.1-2.4-0.7c-10.7,5.9-21.2,12.4-30.7,20.7c-4.8,4.2-9.3,8.7-13.2,13.9
			c-3.9,5.2-7.3,11.2-9.4,17.8c-1.1,3.2-1.8,6.7-2.3,10.1c-0.4,3.5-0.6,7-0.4,10.5c0.3,7,1.8,13.7,3.7,20
			c3.9,12.7,9.5,23.9,14.2,34.8c3.9,9.1,7.3,18,8.8,26.2c10-7.3,15.4-15.2,15.4-15.2c7.4,12.6-14.4,39.3-25.4,51.5
			c-0.3,0.3-0.6,0.6-0.9,1c-1.2,1.5-2.6,2.9-4.1,4.3c-0.5,0.5-0.9,0.9-1,1c0,0-0.1,0.1-0.1,0.1c-3,2.9-6.2,5.7-9.7,8.3
			c-5.8,4.4-12.1,8.6-18.7,12.5c-1.3-0.8-3.1-1.1-4.2-2.2c-1.3-1.3-2.8-2.2-4.1-3.5c-1.4-1.2-0.1-5.5-1.6-6.6c0,0,0,0-0.1,0
			c0.9-3.7,1.8-7.3,2.6-11.1l1.5-8l0.7-4l0.5-4.1l1-8.2c0.2-2.8,0.3-5.6,0.4-8.4c0-1.4,0.2-2.8,0.2-4.2l-0.1-4.3
			c-0.2-2.9-0.1-5.7-0.5-8.6c-1.1-11.6-4.1-23.6-10-34.3c-5.7-10.7-13.9-19.6-22.6-26.5c-13.6-10.8-28.1-17.4-41.4-24.7
			c0,0-0.1,0-0.1,0c-0.1,0-0.2-0.1-0.3-0.1c-4-1.8-36.3-16.6-37-28.6l5.7,3.1c-4.7-7.3-7.3-16.2-7.8-25.5c0-0.7-0.5-1.2-1.2-1.3
			c-0.8-0.1-1.5,0.4-1.6,1.2v0c-1.3,10-0.2,20.7,4.2,30.5c2,5,5.1,9.4,8.3,13.6c3.4,4.1,7,8,10.9,11.4c7.7,7,15.8,13.1,23.5,19.1
			c7,5.5,13.6,11.1,19,17l-2.1-20.8c25,21.7,18,66.5,18,66.5c0,2-0.5,4.1-0.8,6.1l-0.5,3c-0.2,1-0.5,2.1-0.7,3.1
			c-0.5,2.1-0.9,4.2-1.5,6.2l-1.9,6.3l-1,3.1l-1.2,3.1l-2.4,6.2c-1,2.4-2.1,4.8-3.1,7.2c-1.6-0.4-3-1-4.7-1.3
			c-1.8-0.4-2.4-7.3-4.2-7.6c-0.6-0.1-1.3,0.6-2,1.7c-1.9-4.4-3.7-8.8-5-13.1c0,0-23.9-38.3-11.9-54.3l10.5,18.9
			c0.2-0.6,0.3-1.2,0.5-1.8c2-6.4,5.2-13.2,8.9-20.5c-1.2-2.4-2.4-4.7-3.8-6.8c-3.5-5.5-8.1-11.1-13.9-14.4c-1.6,2-3.3,4.1-5.1,6.2
			c-5.2,6.2-10.9,13.1-15.9,21.3c-5.1,8.2-9.1,18-11.3,28.1c-2,9.2-2.6,18.5-2.3,27.5c-5.8-3.8-10.8-8.1-14.8-13l-1.1-1.3
			c-0.3-0.5-0.6-0.9-0.9-1.4l-1.9-2.8c-0.7-0.9-1.1-2-1.7-2.9l-1.6-3c0,0-26.6-33-24.5-54.4l18,17c-0.1-3.6-0.1-7.3-0.1-11
			c0-12.4,0.3-25.6-0.9-39c-1.2-13.4-4-27.2-9.8-39.7c-5.7-12.6-13.9-23.6-23.4-32.7c-9.6-9-20.3-16.3-31.2-22.7
			c-0.9-0.5-2.1-0.4-2.9,0.5c-0.8,0.9-0.7,2.4,0.3,3.2l0,0c9.5,8.1,18.3,16.7,25.5,26.3c4.1,5.5,7.5,11.4,10.2,17.4l5.1-5.9l2.3,36
			l0,0c0.4,5.9,0.2,11.9-0.3,17.9c-1,11.6-3.3,23.5-5.5,36c-2.2,12.5-4.4,25.9-4.2,40.6c-0.1,3.6,0.4,7.5,0.7,11.2
			c0.1,1.9,0.5,3.8,0.9,5.8l1.1,5.8c0.5,1.9,1.1,3.8,1.7,5.8c0.6,1.9,1.1,3.9,2,5.7l2.4,5.6c0.4,0.9,0.8,1.9,1.2,2.8l1.5,2.6
			c5.1,9.5,11.7,17.8,18.9,25c-1.7-0.3-3.6-0.8-4.4,0c-1.4,1.2,1.1,6.4-0.2,7.7c-1.3,1.3-6-0.7-7.2,0.7c-0.3,0.3-0.7,0.6-1,0.9
			c-2.2-2.9-4.4-5.7-6.8-8.2l-4.4-4.7c-1.5-1.4-3-2.8-4.6-4.1c-6.1-5.4-12.3-9.3-18.3-12.5c-3-1.5-5.8-2.8-8.7-4.1
			c-2.8-1-5.6-2.1-8.3-3c-10.8-3.4-20.7-5-30.3-6.5c-19-2.9-37-4.7-54.9-12.9c-8.9-4.1-17.7-10-25.7-18.1
			c-8.1-8-15.3-18.2-21.5-29.3l0-0.1c-0.5-0.9-1.4-1.5-2.2-1.3c-0.8,0.2-1.1,1.4-0.6,2.5c5,12.1,11.5,24.3,19.9,35
			c8.3,10.8,18.2,19.8,28.4,26.6c10.2,6.9,20.5,11.9,30.5,16c10,4.2,19.9,7.5,29.4,11c3.1,1.1,6.2,2.3,9.2,3.5L180,288.2
			c42.4,12.9,59.8,44.6,60.9,46.6c0,0,0,0,0,0.1l0,0c2.9,4.5,5.2,9.5,7.2,15.2c-1.1,0.6-2.3,1.2-2.6,2.1c-0.6,1.8-3.7,2.9-4.2,4.7
			c-0.5,1.8,4,4.8,3.6,6.6c-0.2,0.7-0.6,1.4-1.1,2.1c-0.1,0-0.1,0-0.2,0c-1-0.2-2-0.3-2.9-0.5l-2.8-0.8c-1.8-0.6-3.9-0.9-5.6-1.7
			c0,0-34.8-7-48.9-41.6l11.5,6.8c-1.6-3.2-3.2-6.5-4.7-10c-7.8-3.8-14.8-8.8-22.6-12.6c2.4,11.1,5.1,22.7,9.5,34.5
			c4.3,11.7,10.5,23.7,18.8,33.9c8.3,10.3,18.3,18.3,28.4,24.1c2.5,1.7,5,2.7,7.6,4l3.8,1.9c1.3,0.6,2.5,1,3.8,1.5
			c2.1,0.8,4.2,1.7,6.3,2.5c0,1.5-0.4,3.1,0,4.5c0.5,1.8,0.8,3.6,1.3,5.3c0.6,1.8,1.8,3.2,2.5,4.9c0.7,1.7,2,3.1,2.7,4.7
			c0.7,1.7-0.6,4.3,0.3,5.9c0.8,1.6,1.2,3.6,2.1,5.2c0.9,1.6-0.7,4.9,0.3,6.4c1,1.5,7.5-0.7,8.6,0.8c1.1,1.5,0.2,4.4,1.4,5.8
			c1.2,1.4,2.6,2.6,3.8,4c1.2,1.4,1.6,3.6,2.9,4.9c1.3,1.3,0.7,4.8,2,6c1.4,1.2,7.4-3,8.8-1.8c1.4,1.1,2.8,2.1,4.3,3.2
			c1.5,1.1,2.7,2.2,4.2,3.2c1.5,1,1.8,3.8,3.4,4.8c1.6,0.9,3.9,0.3,5.6,1.1c1.6,0.8,2.3,3.5,4,4.2s4.5-1.4,6.2-0.8
			c1.7,0.7,1.4,6.9,3.2,7.5s3.9,0.1,5.7,0.6c1.7,0.5,3.7,0.4,5.5,0.7c1.8,0.4,3.4,2.1,5.2,2.4c1.8,0.3,3.7,0.4,5.6,0.6
			c1.8,0.2,3.9-3.3,5.8-3.2c1.8,0.1,3.6,4.3,5.4,4.3c1.9,0,3.5-6.7,5.3-6.7c1.8-0.1,4,4.6,5.8,4.5c1.8-0.2,3-5.1,4.8-5.4
			c1.8-0.3,3.4-0.5,5.2-0.9c1.8-0.4,3.5-0.3,5.3-0.8c1.8-0.5,3.4-0.8,5.2-1.4c1.7-0.6,3.1-1.7,4.8-2.4c1.7-0.6,4.7,2,6.4,1.2
			c1.7-0.8,2.8-2.7,4.4-3.5c1.6-0.8,2-3.7,3.6-4.7c1.6-0.9,3-1.8,4.5-2.8c1.5-1,5.1,1.1,6.6,0c1.5-1.1,4.5-0.3,5.9-1.4
			c1.4-1.2-0.6-6.4,0.7-7.6c1.4-1.2,6,1,7.3-0.3s0-5.1,1.2-6.4c1.2-1.4,4.3-1.1,5.4-2.5c1.1-1.4,0.9-3.9,2-5.4
			c1.1-1.5,5.1-1,6.1-2.5c1-1.5-0.5-4.7,0.4-6.3c0.9-1.6,0-4.1,0.8-5.7c0.8-1.6,3.9-2.1,4.7-3.8c0.7-1.7,2.9-2.8,3.6-4.5
			c0.6-1.7-3.3-5-2.7-6.8c0.6-1.8,2.1-3.1,2.6-4.8c0.5-1.8,0.2-3.6,0.6-5.4c0.3-1.2,0.2-2.3,0.2-3.5c2.9-1,5.9-2,8.8-3.3
			c9.2-4,18.7-9.6,27.4-17.1c8.7-7.5,16.4-16.7,22.5-26.2c6.1-9.5,10.9-19.2,15.1-28.5c8.4-18.7,14.8-36.5,23.5-52.9
			c4.4-8.1,9.4-15.9,15.2-22.8c5.8-6.9,12.5-13,19.7-17.9c0.5-0.3,0.8-1,0.7-1.6C580.3,232,579.7,231.6,579.1,231.9z"/>
		<path class="st0" d="M177.2,258.8c-0.2-0.5-0.3-0.9-0.5-1.4c-1.2-3.3-2.6-6.4-4.2-9.4c-1.7-3-3.4-5.9-5.4-8.4
			c-3.9-5.2-8.5-9.4-13.1-12.7c-4.7-3.3-9.5-5.8-14.3-7.8c-3.2-1.3-3.8,1.1-0.6,3.5c12.8,9.5,19,23.1,19,23.1l-0.6-10.4
			c4.5,4.3,7.1,13,8.4,21.9C169.6,257.7,173.4,258.3,177.2,258.8z"/>
		<path class="st0" d="M504.4,236.1c2.3,5.1,4.3,10.6,5.8,16.5c0.3,1.2,0.6,2.3,0.8,3.6c0.5-1.2,6.9-17.8,20.2-27.6l-5.3,12.5
			c0.2-0.2,0.4-0.4,0.6-0.5c4.4-3.5,9.1-7.1,13.9-10.9c4.7-3.8,9.6-8,14-12.9c4.3-4.9,8.2-10.7,10.3-16.8c2.2-6.1,2.9-12.2,2.7-17.8
			c0-0.9-0.7-1.4-1.6-1.2c-0.8,0.2-1.4,0.9-1.5,1.6l0,0.1c-0.9,5.4-2.6,10.8-5.3,15.4c-2.6,4.7-6.3,8.5-10.4,11.7
			c-8.3,6.5-18.3,10.9-28.7,16.6C514.9,228.9,509.6,232,504.4,236.1z"/>
		<polygon class="st0" points="315.5,75.4 304.5,57 293.8,75.2 304.5,81.5 		"/>
		<polygon class="st0" points="315.5,77 304.5,83.7 293.8,77 304.5,91.9 		"/>
		<path class="st0" d="M361.2,99.3c6.5,0,11.8-5.3,11.8-11.8c0-6.5-5.3-11.8-11.8-11.8s-11.8,5.3-11.8,11.8
			C349.4,94,354.7,99.3,361.2,99.3z"/>
		<path class="st0" d="M80.5,163.1c8.5,0,15.5-6.9,15.5-15.5c0-8.5-6.9-15.5-15.5-15.5c-8.5,0-15.5,6.9-15.5,15.5
			C65.1,156.2,72,163.1,80.5,163.1z"/>
		<path class="st0" d="M192.4,69.2c10.9,0,19.7-8.8,19.7-19.7c0-10.9-8.8-19.7-19.7-19.7c-10.9,0-19.7,8.8-19.7,19.7
			C172.7,60.4,181.5,69.2,192.4,69.2z"/>
		<path class="st0" d="M90.8,189.8c0-9.8-7.9-17.8-17.8-17.8c-9.8,0-17.8,8-17.8,17.8c0,9.8,8,17.8,17.8,17.8
			C82.8,207.5,90.8,199.6,90.8,189.8z"/>
		<path class="st0" d="M137.6,210.6c0-7-5.7-12.7-12.7-12.7c-7,0-12.7,5.7-12.7,12.7c0,7,5.7,12.7,12.7,12.7
			C131.9,223.3,137.6,217.6,137.6,210.6z"/>
		<path class="st0" d="M518,109.9c4.4,0,11.7-8.1,14.5-20.9c2.3-9.9,2.2-12.2,2.2-12.2s-8.1-1.2-16.7-5.2
			c-8.6,4.1-16.7,5.2-16.7,5.2s-0.1,2.3,2.2,12.2C506.3,101.7,513.6,109.9,518,109.9z"/>
		<path class="st0" d="M605.9,209.7c-7.6-5.4-15.7-6.7-18.1-3.3l-6.9,10l0,0c-1.5,2.6,0.3,6.9,4.2,11c0.5,0.5,3.9,3.7,5.4,4.8
			c7.6,5.2,15.7,6.7,18.1,3.3l6.9-10.2C617.9,221.9,613.7,214.8,605.9,209.7z"/>
		<path class="st0" d="M593,162.5c5.1-10,5.3-19.9,0.8-22.2l-13.2-6.5l0,0.1c-3.4-1.4-8.2,1.5-12.5,7c-0.5,0.6-3.8,5.3-4.8,7.3
			c-4.9,10-5.3,19.9-0.8,22.2l13.3,6.5C580.4,178.9,588.2,172.6,593,162.5z"/>
	</g>
</g>
<g id="Layer_1">
	<g id="Layer_5_copy">
		<g id="Layer_6_1_">
		</g>
		<g id="Layer_2_copy">
		</g>
	</g>
	<g id="Layer_5_1_">
		<g>
			<g id="Layer_1_1_">
				<g>
					<path class="st1" d="M365.2,132.1c0.3,6.3,0,12.5-0.9,18.5c5,2.6,9.9,5.6,14.8,8.5c0-0.9,0-1.9,0-2.8
						c-0.5-18.1-6.4-34.3-13.3-49.3c-0.4-0.8-1.2-1.3-2.1-1.1c-1.1,0.2-1.8,1.2-1.6,2.3l0,0.1C363.6,116.2,365,124.2,365.2,132.1z"
						/>
					<path class="st1" d="M103.3,150.6L103.3,150.6c10.5-0.1,20.3,3.1,28.2,8.6l-1.6-6.2c16.8,11.2,29.6,37.9,30.3,39.6
						c0,0,0,0,0,0.1c0,0,0,0,0,0c8.4,13.2,16.3,27.4,26.9,41.2c7,9.1,15.5,18.2,26.8,25.4c0.7,0.5,1.4,0.9,2.1,1.4l2.3,1.2l4.6,2.4
						c3.1,1.5,6.5,2.6,9.8,3.8c2.9,0.8,5.9,1.5,8.8,2.1l-2.2-5.1c-0.9-1.8-1.3-3.8-1.9-5.7c-0.6-1.9-1.1-3.9-1.7-5.8l-1.1-5.8
						c-0.4-1.9-0.8-3.9-0.9-5.8c-0.3-3.2-0.7-6.5-0.7-9.6c-13.2,0.2-30.1-3.6-44-20.4l17.2-0.1c-14-12.2-27-28.1-42.6-42.2
						c-8.2-7.4-17.4-14.3-28-18.6c-1.3-0.5-2.6-1.1-4-1.6l-4.1-1.1c-2.7-0.9-5.6-1-8.3-1.4c-1.4-0.2-2.8-0.2-4.2-0.1l-4.1,0
						c-2.7,0.3-5.4,0.8-8.1,1.2c-0.7,0.1-1.2,0.7-1.1,1.5C102.1,150.1,102.7,150.6,103.3,150.6z"/>
					<path class="st1" d="M412.7,306.7c0.4-1.5,0.7-3.1,1.1-4.6c0.9-3.7,1.8-7.4,2.6-11.1l1.5-8l0.7-4l0.5-4.1l1-8.2
						c0.2-2.8,0.3-5.6,0.4-8.5c0-1.4,0.2-2.8,0.2-4.2l-0.1-4.3c-0.2-2.9-0.1-5.7-0.5-8.6c-1.1-11.6-4.1-23.6-10-34.3
						c-5.7-10.7-13.9-19.6-22.6-26.5c-13.6-10.8-28.1-17.4-41.4-24.7c0,0-0.1,0-0.1,0c-0.1,0-0.2-0.1-0.3-0.1
						c-4-1.8-36.3-16.6-37-28.6l5.7,3.1c-4.7-7.3-7.4-16.2-7.8-25.4c0-0.7-0.5-1.2-1.2-1.3c-0.8-0.1-1.5,0.4-1.6,1.2v0
						c-1.3,10-0.2,20.7,4.2,30.5c2,5,5.1,9.4,8.3,13.6c3.4,4.1,7,8,10.9,11.4c7.7,7,15.8,13.1,23.5,19.1c7,5.5,13.6,11.1,19,17.1
						l-2.1-20.8c25,21.7,18,66.5,18,66.5c0,1.9-0.5,4.1-0.8,6.1l-0.5,3.1c-0.2,1-0.5,2.1-0.7,3.1c-0.5,2.1-0.9,4.2-1.5,6.2l-1.9,6.3
						l-1,3.1l-1.2,3.1l-2.4,6.2c-1,2.4-2.1,4.9-3.2,7.3c-0.8,1.7-1.5,3.4-2.3,5.1l-0.5,1.1c-0.5,1.1-0.9,2.4-1.2,3.6
						c-0.7,3.1-0.8,6.2-0.3,9.2c0,0,0,0.1,0,0.2l0,0c0,0,0,0,0-0.1c0,0,0-0.1,0-0.1c-0.5-1.6-1.2-3.2-2-4.7c1-5.1,0.5-10.5-1.9-15.5
						l0,0c-0.9-2-1.9-4.1-2.7-6.1c-1.9-4.4-3.7-8.8-5-13.1c0,0-23.9-38.3-11.9-54.3l10.5,18.9c0.2-0.6,0.3-1.2,0.5-1.8
						c2-6.4,5.2-13.1,8.9-20.6c-1.2-2.4-2.4-4.7-3.8-6.8c-3.5-5.5-8.1-11.1-13.9-14.4c-1.6,2-3.3,4.1-5.1,6.2
						c-5.1,6.2-10.9,13.1-15.9,21.3c-5.1,8.2-9.1,18-11.3,28.1c-2,9.2-2.6,18.5-2.3,27.5c-5.8-3.8-10.8-8.1-14.8-13l-1.1-1.3
						c-0.3-0.4-0.6-0.9-0.9-1.4l-1.9-2.8c-0.7-0.9-1.1-1.9-1.7-2.9l-1.6-3.1c0,0-26.6-33-24.5-54.4l18,17c-0.1-3.6-0.1-7.3-0.1-11
						c0-12.4,0.3-25.6-0.9-39c-1.2-13.4-4-27.2-9.8-39.7c-5.6-12.6-13.9-23.6-23.4-32.7c-9.6-9.1-20.3-16.3-31.2-22.7
						c-0.9-0.5-2.1-0.4-2.9,0.5c-0.8,0.9-0.7,2.3,0.3,3.2l0,0c9.5,8.1,18.3,16.7,25.5,26.3c4.1,5.5,7.5,11.4,10.2,17.4l5.1-5.9
						l2.3,36l0,0c0.4,5.9,0.2,11.9-0.3,17.9c-1,11.6-3.3,23.5-5.5,36c-2.2,12.5-4.4,25.9-4.2,40.6c-0.1,3.6,0.4,7.5,0.7,11.2
						c0.1,1.9,0.5,3.8,0.9,5.8l1.1,5.8c0.5,1.9,1.1,3.9,1.7,5.8c0.6,1.9,1.1,3.9,1.9,5.7l2.4,5.6c0.4,0.9,0.8,1.9,1.2,2.8l1.5,2.6
						c5.1,9.5,11.7,17.8,18.9,25c3.7,3.7,7.6,7.2,11.5,10.4l8.8,6.7c3,2.1,6,4,9,6c1.5,1,3,2,4.5,2.9l4.6,2.6l9.2,5.1
						c1.4,0.8,3,1.5,4.6,2.1c14.9,5.2,31.3-2.7,36.5-17.6c1.8-5,2-10.2,1-15.1c0,0,0,0,0-0.1c0,0,0,0,0-0.1c0,0,0,0,0,0
						c0,0,0,0.1,0,0.1c2.4,7.1,8.3,12.9,16.2,14.8C397.5,326.4,409.8,318.9,412.7,306.7z"/>
					<path class="st1" d="M579.1,231.9c-7.7,3.3-15.5,8-22.7,14.2c-7.3,6.2-14.1,13.7-20.2,21.8c-9.1,12.1-16.8,25.1-24.3,37.4
						l14.3-8.6c-15.4,43.7-60.4,58.1-61.8,58.6c-3,1-6.1,1.8-9.2,2.4c-1.3,0.2-2.5,0.4-3.8,0.5c-4.8,0.5-9.8,0.4-14.7,0.1
						c-0.1,0-0.2,0-0.4,0c0,0,0,0,0,0c0.6-0.4,1.2-0.8,1.9-1.2l0.1-0.1c2.7-2,5.4-4,8-6.1c7.7-6,15.2-12.5,22.3-19.7
						c4.8-4.9,9.4-10.1,13.6-15.9c4.2-5.8,8.1-12.2,11.1-19.2c3-7,5.2-14.7,5.8-22.6c0.6-7.9-0.1-15.7-1.9-22.9
						c-3.6-14.4-10.3-26-16.8-36.6c-5.3-8.7-10.7-16.9-15.1-25.1v0c-0.7-1.1-19.9-33.1-11.9-47.9l4.4,9.6c2.2-9.5,7.9-18.6,15-26.6
						c7.6-8.8,16.9-16.6,26.5-23.9l0,0c0.7-0.5,0.9-1.5,0.5-2.2c-0.5-0.8-1.5-1.1-2.4-0.7c-10.7,5.9-21.2,12.4-30.7,20.7
						c-4.8,4.2-9.3,8.7-13.2,13.9c-3.9,5.2-7.3,11.2-9.4,17.8c-1.1,3.2-1.8,6.7-2.3,10.1c-0.4,3.5-0.6,7-0.4,10.5
						c0.3,6.9,1.8,13.6,3.7,20c3.9,12.7,9.5,23.9,14.2,34.8c3.9,9.1,7.3,17.9,8.8,26.2c10-7.3,15.4-15.2,15.4-15.2
						c7.4,12.6-14.4,39.3-25.4,51.5c-0.3,0.3-0.6,0.6-0.9,1c-1.2,1.5-2.6,2.9-4.1,4.3c-0.5,0.5-0.9,0.9-1,1c0,0-0.1,0.1-0.1,0.1
						c-3,2.9-6.2,5.7-9.7,8.3c-5.9,4.4-12.2,8.6-18.8,12.5c-3,1.8-6,3.5-9.1,5.1c-0.9,0.5-1.8,1-2.6,1.7
						c-9.8,7.2-11.9,21.1-4.7,30.9c4.4,6,11.4,9.2,18.4,9c-8,4.9-14.3,15-15,25.7c-1,13.6,7.3,22.8,18.5,20.7h0
						c6-1.2,12-2.6,18.1-4.6c2.9-1,5.9-2,8.8-3.3c9.2-4,18.7-9.6,27.4-17.1c8.7-7.5,16.4-16.7,22.5-26.2
						c6.1-9.5,10.9-19.2,15.1-28.5c8.4-18.7,14.8-36.5,23.5-52.9c4.4-8.1,9.4-15.9,15.2-22.8c5.8-6.9,12.5-12.9,19.7-17.9
						c0.5-0.3,0.8-1,0.7-1.6C580.3,232,579.7,231.6,579.1,231.9z"/>
					<path class="st1" d="M177.2,258.8c-0.2-0.5-0.3-0.9-0.5-1.4c-1.2-3.3-2.6-6.4-4.2-9.4c-1.7-3-3.4-5.9-5.4-8.4
						c-3.9-5.2-8.5-9.4-13.2-12.7c-4.7-3.3-9.5-5.8-14.3-7.8c-3.2-1.3-3.8,1.1-0.6,3.4c12.8,9.5,19,23.1,19,23.1l-0.6-10.4
						c4.6,4.3,7.1,13,8.4,21.9C169.6,257.7,173.4,258.3,177.2,258.8z"/>
					<path class="st1" d="M293.9,371.6c-3.2-10.5-7.1-21.4-12.5-32.5l-3-5.7c-1-1.9-1.9-3.8-3.2-5.7l-3.5-5.6l-1.8-2.8l-2-2.7
						c-2.7-3.5-5.3-7.1-8.3-10.1l-4.4-4.7c-1.5-1.4-3.1-2.8-4.6-4.1c-6.1-5.4-12.3-9.3-18.3-12.5c-3-1.5-5.9-2.8-8.7-4.1
						c-2.8-1-5.6-2.1-8.3-3c-10.8-3.4-20.7-5-30.3-6.5c-19-2.9-37-4.7-54.9-12.9c-8.9-4.1-17.7-10-25.7-18.1
						c-8.1-8-15.3-18.2-21.5-29.4l0-0.1c-0.5-0.9-1.4-1.5-2.2-1.3c-0.8,0.2-1.1,1.4-0.6,2.6c5,12.1,11.5,24.3,19.8,35
						c8.3,10.8,18.2,19.8,28.4,26.6c10.2,6.9,20.5,11.9,30.5,16c10,4.2,19.9,7.5,29.4,11c3.1,1.1,6.2,2.3,9.2,3.5L180,288.2
						c42.4,12.9,59.8,44.6,60.9,46.6c0,0,0,0,0,0.1l0,0c3,4.6,5.3,9.6,7.3,15.5c1.7,5.1,3,10.6,4.1,16.4l-2.9-0.3
						c-1.9-0.3-3.9-0.7-5.8-1c-1-0.2-2-0.3-2.9-0.5l-2.8-0.8c-1.8-0.6-3.9-0.9-5.6-1.7c0,0-34.8-7-48.9-41.6l11.5,6.8
						c-1.6-3.2-3.2-6.5-4.7-10c-7.8-3.8-14.9-8.8-22.6-12.6c2.4,11.1,5.1,22.7,9.5,34.5c4.3,11.7,10.5,23.7,18.8,33.9
						c8.3,10.3,18.3,18.3,28.4,24.1c2.5,1.7,5,2.7,7.6,4l3.8,1.9c1.3,0.6,2.5,1,3.8,1.5c2.5,1,5.1,2,7.6,3l7.5,2.3l3.8,1.1l3.7,0.9
						l7.5,1.7c4.9,1,9.8,1.7,14.7,2.5c11.4,1.9,20.6-7.6,20.6-21.4C304.9,385.9,300.4,376.9,293.9,371.6z"/>
					<path class="st1" d="M511,256.2c0.5-1.2,7-17.8,20.2-27.6l-5.3,12.5c0.2-0.2,0.4-0.4,0.6-0.5c4.4-3.5,9.1-7.1,13.9-10.9
						c4.7-3.8,9.6-8,14-12.9c4.3-4.9,8.2-10.7,10.3-16.9c2.2-6.1,2.9-12.2,2.7-17.8c0-0.9-0.7-1.4-1.6-1.2c-0.8,0.2-1.4,0.9-1.5,1.6
						l0,0.1c-0.9,5.4-2.6,10.8-5.3,15.4c-2.6,4.7-6.3,8.5-10.4,11.7c-8.3,6.5-18.3,10.9-28.7,16.6c-5.1,2.7-10.3,5.9-15.5,9.9
						c2.3,5.1,4.3,10.6,5.8,16.5C510.5,253.8,510.8,254.9,511,256.2z"/>
				</g>
			</g>
			<g id="Layer_2_1_">
				
					<radialGradient id="SVGID_1_" cx="344.855" cy="374.2264" r="107.5922" gradientTransform="matrix(1 0 0 1 0 10.3226)" gradientUnits="userSpaceOnUse">
					<stop  offset="0" style="stop-color:#0E87C0"/>
					<stop  offset="0.6221" style="stop-color:#0A688C"/>
					<stop  offset="0.9441" style="stop-color:#074362"/>
					<stop  offset="1" style="stop-color:#12405A"/>
				</radialGradient>
				<path class="st2" d="M451.6,396.1c-0.2,1.8-3.9,3.1-4.2,4.9c0,0.2-0.1,0.5-0.1,0.8c-0.1,1.5,0.1,3.1-0.3,4.6
					c-0.4,1.8-0.2,3.6-0.6,5.4s-2.1,3.1-2.6,4.8c-0.6,1.8,3.3,5.1,2.7,6.8c-0.7,1.7-2.8,2.9-3.6,4.5c-0.7,1.7-3.8,2.2-4.7,3.8
					c-0.8,1.6,0.1,4.1-0.8,5.7c-0.9,1.6,0.6,4.7-0.4,6.3c-1,1.5-5,1-6.1,2.5c-1.1,1.5-0.9,4-2,5.4c-1.2,1.4-4.2,1.2-5.4,2.5
					c-1.2,1.4,0.1,5.1-1.2,6.4c-1.3,1.3-5.9-0.9-7.3,0.3s0.7,6.4-0.7,7.6c-1.4,1.1-4.4,0.3-5.9,1.4c-1.5,1.1-5-1-6.6,0
					c-1.5,1-2.9,1.9-4.5,2.8c-1.6,0.9-1.9,3.8-3.6,4.7c-1.6,0.8-2.7,2.7-4.4,3.5c-1.7,0.7-4.6-1.9-6.4-1.2c-1.7,0.7-3,1.8-4.8,2.4
					c-1.8,0.6-3.4,0.9-5.1,1.4c-1.8,0.5-3.5,0.4-5.3,0.8s-3.4,0.6-5.2,0.9s-3,5.2-4.8,5.4c-1.8,0.2-4-4.5-5.8-4.5
					c-1.8,0.1-3.5,6.7-5.3,6.7c-1.8,0-3.6-4.2-5.4-4.3c-1.8-0.1-4,3.3-5.8,3.2c-1.8-0.2-3.8-0.4-5.6-0.6c-1.8-0.3-3.5-2-5.2-2.4
					c-1.8-0.4-3.8-0.3-5.5-0.7c-1.8-0.5-3.9,0-5.7-0.6s-1.5-6.8-3.2-7.5c-1.7-0.6-4.5,1.5-6.2,0.8s-2.4-3.4-4-4.2s-4-0.2-5.6-1.1
					s-1.9-3.8-3.4-4.8c-1.6-1-2.8-2.2-4.2-3.2c-1.5-1.1-2.9-2-4.3-3.2c-1.4-1.2-7.4,3-8.8,1.8c-1.4-1.2-0.8-4.7-2-6
					c-1.3-1.3-1.6-3.6-2.9-4.9c-1.2-1.4-2.6-2.6-3.8-4c-1.1-1.4-0.3-4.3-1.4-5.8c-1.1-1.5-7.6,0.7-8.6-0.8c-1-1.5,0.6-4.8-0.3-6.4
					c-0.9-1.6-1.3-3.5-2.1-5.1c-0.8-1.6,0.5-4.2-0.3-5.9c-0.8-1.7-2.1-3-2.7-4.7c-0.6-1.7-1.9-3.2-2.5-4.9c-0.6-1.8-0.9-3.5-1.3-5.3
					c-0.5-1.8,0.2-3.7-0.1-5.6c-0.4-1.8-3.2-3.1-3.5-4.9c-0.3-1.8-1.4-3.6-1.6-5.4c-0.2-1.8-2.2-3.6-2.3-5.5
					c-0.1-1.8-0.3-3.8-0.3-5.7c0-1.9,5.4-3.6,5.5-5.4c0.1-1.8-0.3-3.6-0.1-5.4c0.2-1.8-1.7-3.9-1.4-5.7c0.3-1.8,2.6-3.2,3-5
					s-4.1-4.8-3.6-6.6c0.5-1.8,3.6-2.9,4.1-4.7c0.6-1.8,4.3-2.4,4.9-4.1c0.7-1.7,2.6-2.7,3.4-4.4c0.8-1.7,0.6-3.6,1.4-5.2
					c0.8-1.7-1.4-4.9-0.5-6.5s5.8-0.6,6.8-2.2c1-1.5-2.1-5.9-1.1-7.3c1.1-1.5,1.6-3.5,2.7-5c1.2-1.4,3.1-2.3,4.3-3.7
					c1.2-1.4,5.9,0.6,7.2-0.7c1.3-1.3-1.1-6.5,0.2-7.7c1.3-1.2,5.6,0.9,7-0.2c1.4-1.2-0.4-6.6,1.1-7.7c1.5-1.1,3.3-1.9,4.8-2.9
					c1.6-1,5.9,2.5,7.5,1.6s2.5-2.9,4.1-3.7c1.6-0.8,1.4-5.8,3-6.5c1.7-0.7,4.3,0.4,6-0.2c1.7-0.6,3.9,0.1,5.7-0.5
					c1.8-0.6,2.4-5.1,4.2-5.6c1.8-0.5,4.2,1.2,6,0.9s3.6-1.5,5.4-1.8c1.8-0.3,4.2,3.4,6,3.2c1.8-0.2,3.6,1.2,5.5,1.2
					c1.8-0.1,3.5-0.8,5.3-0.8c1.9,0,3.9-6.4,5.7-6.2c1.9,0.1,3.1,7.9,4.9,8.1c1.8,0.2,4.6-7.1,6.5-6.9s2.4,7.2,4.2,7.6
					c1.8,0.4,3.4,1,5.1,1.5c1.8,0.5,3.1,1.7,4.9,2.3c1.8,0.6,5.5-4.7,7.2-4.1c1.7,0.6,1.4,6.1,3.1,6.8c1.7,0.8,6.1-4.3,7.8-3.4
					c1.6,0.9,3,2.6,4.5,3.5c1.6,0.9,1.8,4.2,3.4,5.2c1.5,1,2.3,3,3.8,4.1c1.5,1.1,4.6,0,6,1.2c1.4,1.2,0.2,5.4,1.6,6.6
					s2.8,2.2,4.1,3.5s3.7,1.4,4.9,2.8c1.2,1.4,5.9-0.1,7.1,1.3c1.1,1.4-1.5,5.9-0.4,7.4s4,1.7,5,3.3c1,1.5,1.8,3.2,2.8,4.8
					s0,4.2,0.9,5.8c0.8,1.6,1.9,3.1,2.6,4.8c0.7,1.7,1.2,3.5,1.9,5.2c0.6,1.7,2.5,3,3.1,4.8c0.6,1.7,3.7,2.8,4.2,4.6
					s-3.1,4.6-2.7,6.4c0.4,1.8-1,3.8-0.7,5.6c0.3,1.8-0.9,3.6-0.7,5.5c0.2,1.4,1.8,2.6,2.5,3.9c0.2,0.4,0.4,0.8,0.5,1.3
					c0.1,1.8-0.1,3.6-0.1,5.4c0,1.8,0.8,3.6,0.7,5.5C450.9,392.4,451.8,394.3,451.6,396.1z"/>
			</g>
			<g id="Layer_3">
				<g>
					
						<linearGradient id="SVGID_2_" gradientUnits="userSpaceOnUse" x1="-704.1014" y1="376.6315" x2="-704.1014" y2="468.5099" gradientTransform="matrix(0.5545 0.8322 -0.8322 0.5545 1135.0945 709.5256)">
						<stop  offset="0" style="stop-color:#FFFFFF"/>
						<stop  offset="1" style="stop-color:#FFFFFF;stop-opacity:0"/>
					</linearGradient>
					<path class="st3" d="M419,412.7c-20.7,13.8-41.1-6.3-59.5-33.9c-18.4-27.6-27.8-52.2-7.1-66c20.7-13.8,52.3-2.6,70.8,25
						C441.6,365.3,439.7,398.9,419,412.7z"/>
					
						<linearGradient id="SVGID_3_" gradientUnits="userSpaceOnUse" x1="-1064.9052" y1="-712.5776" x2="-1064.9052" y2="-639.274" gradientTransform="matrix(0.9971 7.580000e-02 -9.670000e-02 1.2709 1356.1353 1288.121)">
						<stop  offset="0" style="stop-color:#FFFFFF"/>
						<stop  offset="1" style="stop-color:#FFFFFF;stop-opacity:0"/>
					</linearGradient>
					<path class="st4" d="M418,373.1c-2.4,31.6-28,13.4-61.1,10.8c-33-2.5-61.1,11.7-58.7-20c2.4-31.6,31.2-55.2,64.2-52.7
						C395.5,313.8,420.4,341.4,418,373.1z"/>
					
						<linearGradient id="SVGID_4_" gradientUnits="userSpaceOnUse" x1="-859.1206" y1="-258.4526" x2="-859.1206" y2="-188.4422" gradientTransform="matrix(1.0404 0.5012 -0.4339 0.9009 1180.0117 979.1392)">
						<stop  offset="0" style="stop-color:#FFFFFF"/>
						<stop  offset="1" style="stop-color:#FFFFFF;stop-opacity:0"/>
					</linearGradient>
					<path class="st5" d="M423.6,383.8c-10.3,21.4-26.2,0.3-52.2-12.3c-26.1-12.6-52.5-11.8-42.2-33.2c10.3-21.4,39.8-28.6,65.8-16
						C421.2,334.9,434,362.4,423.6,383.8z"/>
				</g>
			</g>
			<g id="Layer_4">
				<g>
					<path class="st6" d="M429.7,373.7c-1.1,31-36,55.6-48.4,59.3c-17.1-2.5-39.6-10.3-39.6-10.3c-13.6-28.3-8.1-52.2-0.6-67.9
						c1.1-2.4,2.3-4.5,3.5-6.5c6,3.3,30.3,11.1,49.2,18.5C403.7,370.7,417.5,375.7,429.7,373.7z"/>
					<path class="st7" d="M395.4,433.4c-3.5,0.7-8.5,0.5-14-0.4c9.1-2.8,26.3-14.7,35.1-33.3c4.4-9.4-0.6-20.5-10.6-23.3
						c-0.1,0-0.1,0-0.2-0.1c-4.5-1.3-9.6-3.2-15-5.4c-18.8-7.7-40.1-19.3-46.1-22.6c4.9-8.3,9.6-13,9.6-13s20.9,11.8,38.9,19.2
						c4.4,1.8,8.5,3.3,12.2,4.4c3.8,1.1,7.1,1.7,9.5,1.5c14.2-1.2,18.9-5.5,18.9-5.5c2.3,6.5,3.5,12.6,3.8,18.4
						C438.8,408.1,407.4,430.8,395.4,433.4z"/>
					<path class="st8" d="M405.5,378.2c-4.3,21.8-24.2,39.6-24.2,39.6s2.3-17.5,6.6-39.3c1.8-9,3.6-17.4,5.2-24
						c4.4,1.8,8.5,3.3,12.2,4.4C406.5,364.6,406.9,371.1,405.5,378.2z"/>
					<circle class="st6" cx="404" cy="373.7" r="4.3"/>
					<circle class="st6" cx="397.3" cy="377.9" r="1.5"/>
				</g>
			</g>
			<g id="Layer_5">
				
					<radialGradient id="SVGID_5_" cx="379.4577" cy="271.7408" r="127.9274" fx="410.7856" fy="324.1312" gradientTransform="matrix(1 0 0 1 0 10.3226)" gradientUnits="userSpaceOnUse">
					<stop  offset="0" style="stop-color:#0E87C0"/>
					<stop  offset="0.6221" style="stop-color:#0A688C"/>
					<stop  offset="0.9441" style="stop-color:#074362"/>
					<stop  offset="1" style="stop-color:#12405A"/>
				</radialGradient>
				<path class="st9" d="M336.7,297.8l2.3-11.9c0,0,105.6,78.4,60.8,58.3c-54.9-24.6-158.1-38.8-143.5-130.7
					C256.9,273,336.7,297.8,336.7,297.8z M423.9,346.6c0,0,64.5-22.9,70.9-90.5c0,0-7.2,25-23.4,43.2l-4.2-8.9
					C467.2,290.5,455.7,319.5,423.9,346.6z M395.8,195.1c12.8,51.7,1.8,82.5-5.3,95.9c2-1.2,4.4-3.4,5.6-2.9c1.6,0.9,3,2.6,4.5,3.5
					c1.6,0.9,1.8,4.2,3.4,5.2c1.5,1,2.3,3,3.8,4.1c0.3,0.2,0.7,0.4,1.1,0.4C426.3,228,395.8,195.1,395.8,195.1z M179,215.1
					c0,0,19.2,40.3,57.4,50.2c0,0-5.1-9.3-6.4-19.8c0,0-13.7,0-23.5-6.7l4.7-1.6C211.3,237.1,193.8,234.4,179,215.1z M481.2,371.6
					v-6.4c-10.5,8.3-22.9,11.8-31.2,13.2c0.2,0.4,0.4,0.8,0.5,1.3c0.1,1.8-0.1,3.6-0.1,5.4c0,1.8,0.8,3.6,0.7,5.5
					c-0.1,1.8,0.8,3.7,0.6,5.6c-0.2,1.8-3.9,3.1-4.2,4.9c0,0.2-0.1,0.5-0.1,0.8c60.1-25.2,73.5-77.9,73.9-79.7
					C504.3,352.7,481.2,371.6,481.2,371.6z M249.8,316.2l-8.1,0.9c22.8,26.3,24.5,44,31.3,59.3c-3.5,21.7,38.1,9.8,20.9-4.8
					c-34-88.1-103.3-95.5-103.3-95.5C226.9,287.8,249.8,316.2,249.8,316.2z M336,208.4c0,0-22.9,27.7-18,61.7l5.3-13.9l10.2,20
					C333.5,276.1,322.2,241.2,336,208.4z M243.4,374.3c0.1-1.3-0.8-2.7-1.2-4c-33.7-7.8-46.6-24.1-47.6-25.4
					c8.8,18.5,27.4,29.9,27.4,29.9l-6.8,1.6c7.7,7.4,16.1,12.4,23.4,15.6c-0.2-0.4-0.3-0.8-0.3-1.2c-0.1-1.8-0.3-3.8-0.3-5.7
					c0-1.9,5.4-3.6,5.5-5.4C243.6,377.9,243.2,376.1,243.4,374.3z"/>
			</g>
			<g id="Layer_6">
			</g>
		</g>
		<polygon class="st1" points="304.5,81.5 293.8,75.2 304.5,57 315.5,75.4 		"/>
		<polygon class="st1" points="304.5,91.9 293.8,77 304.5,83.7 315.5,77 		"/>
		<path class="st1" d="M361.2,75.7c-6.5,0-11.8,5.3-11.8,11.8c0,6.5,5.3,11.8,11.8,11.8S373,94,373,87.5
			C373,81,367.7,75.7,361.2,75.7z M367.2,93.9c-0.1,0.1-0.3,0.1-0.5,0.1c-0.4,0-0.8-0.2-1-0.7l-4.2-9l-1.3,2.7h0.4
			c0.6,0,1.1,0.5,1.1,1.1s-0.5,1.1-1.1,1.1h-1.5l-1.9,4.1c-0.3,0.6-0.9,0.8-1.5,0.5c-0.6-0.3-0.8-0.9-0.5-1.5l1.5-3.1h-1
			c-0.6,0-1.1-0.5-1.1-1.1s0.5-1.1,1.1-1.1h2.1l2.7-5.8c0.2-0.4,0.6-0.6,1-0.6l0,0c0.4,0,0.8,0.2,1,0.7l5.2,11.2
			C368,92.9,367.8,93.6,367.2,93.9z"/>
		<path class="st1" d="M80.5,132.2c-8.5,0-15.5,6.9-15.5,15.4s6.9,15.4,15.5,15.4S96,156.2,96,147.7C96,139.1,89.1,132.2,80.5,132.2
			z M80,151.9c0,0.6-0.5,1-1,1s-1-0.5-1-1v-2.8l-4.8-3.6v6.4c0,0.6-0.5,1-1,1s-1-0.5-1-1v-8.4c0-0.4,0.2-0.8,0.6-0.9
			c0.3-0.2,0.8-0.1,1.1,0.1l6.8,5.1c0.3,0.2,0.4,0.5,0.4,0.8C80,148.6,80,151.9,80,151.9z M89.8,151.9c0,0.6-0.5,1-1,1s-1-0.5-1-1
			v-6.4l-4.8,3.6v2.8c0,0.6-0.5,1-1,1s-1-0.5-1-1v-3.3c0-0.3,0.2-0.6,0.4-0.8l6.8-5.1c0.3-0.2,0.7-0.3,1.1-0.1
			c0.3,0.2,0.6,0.5,0.6,0.9C89.8,143.5,89.8,151.9,89.8,151.9z"/>
		<g>
			<path class="st1" d="M68.3,196.7h7.5c0.4-0.1,2.4-0.7,3.5-3h-11V196.7z"/>
			<path class="st1" d="M75.8,184h-7.5v3.2h10.9C78.2,185,76.3,184.2,75.8,184z"/>
			<path class="st1" d="M68.3,189.6v1.8h11.6c0-0.3,0-0.5,0-0.8c0-0.4,0-0.7-0.1-1L68.3,189.6L68.3,189.6z"/>
			<path class="st1" d="M73,172c-9.8,0-17.8,7.9-17.8,17.8s8,17.8,17.8,17.8s17.8-7.9,17.8-17.8S82.9,172,73,172z M84.8,189.6H82
				c0,0.3,0,0.7,0,1c0,0.3,0,0.5,0,0.8h2.8v2.3h-3.2c-1.1,3.3-3.8,4.8-5.4,5.1l-0.1,0h-9.9v-5.1h-2.3v-2.3h2.3v-1.8h-2.3v-2.3h2.3
				v-5.4l10.1,0c1.6,0.4,4.2,2.1,5.3,5.3h3.3L84.8,189.6L84.8,189.6z"/>
		</g>
		<path class="st1" d="M603.5,213.3c-3.6-2.4-7.2-3.1-8.2-1.6c-1,1.5,1,4.6,4.5,7c3.6,2.4,7.2,3.1,8.2,1.6S607,215.7,603.5,213.3z"
			/>
		<path class="st1" d="M534.7,76.8c0,0-8.1-1.2-16.7-5.2c-8.6,4.1-16.7,5.2-16.7,5.2s-0.1,2.3,2.2,12.2
			c2.9,12.8,10.1,20.9,14.5,20.9c4.4,0,11.7-8.1,14.5-20.9C534.8,79.1,534.7,76.8,534.7,76.8z M518,99.8c-5,0-9-4.1-9-9.1
			s4-9.1,9-9.1s9,4.1,9,9.1S523,99.8,518,99.8z"/>
		<path class="st1" d="M605.9,209.7c-7.6-5.4-15.7-6.7-18.1-3.3l-6.9,10l0,0c-1.5,2.6,0.3,6.9,4.2,11c0.5,0.5,3.9,3.7,5.4,4.8
			c7.6,5.2,15.7,6.7,18.1,3.3l6.9-10.2C617.9,221.9,613.7,214.8,605.9,209.7z M587.2,211.2c-0.2,0.1-0.3,0-0.3-0.1
			c0-0.3-0.2-0.6-0.3-1.1c0-0.1,0.2-0.1,0.3-0.3c0.2-0.1,0.3,0,0.3,0.1c0.2,0.4,0.2,0.8,0.2,1.1C587.5,211,587.4,211.2,587.2,211.2z
			 M597.5,223.1c-0.2,0-0.3,0.1-0.5,0c-4.5-3-7.9-7-9.6-10.8c0-0.1,0-0.1,0.2-0.3s0.3,0,0.3,0.1c1.7,3.6,4.9,7.5,9.6,10.5
			C597.5,222.8,597.7,223,597.5,223.1z M607.4,227.8c-0.5-0.1-1-0.3-1.5-0.4c-0.2,0-0.2-0.1-0.2-0.3s0.2-0.1,0.3-0.1
			c0.5,0.1,1,0.3,1.5,0.4c0.2,0,0.2,0.1,0.2,0.3S607.6,227.8,607.4,227.8z M612.4,228.2c-1,0.1-2.4,0-3.6-0.1
			c-0.2,0-0.3-0.1-0.3-0.3c0-0.1,0.2-0.3,0.3-0.3c1.2,0.1,2.4,0.3,3.6,0.1c0.2,0,0.3,0.1,0.3,0.3
			C612.7,228.1,612.5,228.2,612.4,228.2z M614.6,224.8c-2.1,3-9.4,1.5-16.5-3.4c-7.2-4.9-11.4-11.2-9.3-14.2c2.1-3,9.4-1.5,16.5,3.4
			C612.4,215.5,616.5,221.8,614.6,224.8z"/>
		<path class="st1" d="M524.3,89.3h-1.8c-0.6-1.7-2-2.6-2.8-2.8l-5.3,0v2.8h-1.2v1.2h1.2v1h-1.2v1.2h1.2v2.7h5.2l0,0
			c0.9-0.2,2.3-0.9,2.9-2.7h1.7v-1.2h-1.5c0-0.1,0-0.3,0-0.4c0-0.2,0-0.4,0-0.5h1.5L524.3,89.3L524.3,89.3z M515.5,87.6h4
			c0.3,0.1,1.3,0.5,1.8,1.7h-5.8V87.6z M519.5,94.3h-4v-1.6h5.8C520.8,93.9,519.8,94.3,519.5,94.3z M521.7,91.5h-6.1v-1h6.1
			c0,0.2,0,0.3,0,0.5C521.7,91.2,521.7,91.4,521.7,91.5z"/>
		<g>
			<path class="st1" d="M124.2,194.5c-2.7,0-5.3,0.9-7.4,2.3c2.2,2.4,4.6,5.1,4.9,5.4l0.2,0.2l0,0.3c0,0.4-0.1,0.6-0.4,0.9
				c-0.3,0.3-0.7,0.5-1.4,0.6c-0.4,0.1-0.5,0.1-0.7,0.3c-0.2,0.2-0.2,0.4-0.2,0.9c-0.1,0.8-0.2,1.2-0.5,2c-0.4,0.8-0.4,1.1-0.4,1.5
				c0.1,0.5,0.4,0.9,1,1.3c0.5,0.4,0.7,0.6,0.9,0.9c0.1,0.2,0.1,0.2,0.1,0.5c0,0.4-0.1,0.6-0.4,0.9c-0.5,0.5-1.4,0.9-2.4,1.2
				c-0.4,0.1-0.5,0.1-0.5,0c0-0.1-0.2-0.5-0.5-0.9c-0.3-0.5-0.5-0.8-0.6-1.2c-0.1-0.4-0.2-0.8-0.2-1.2c0-0.4,0.1-0.6,0.2-1
				c0.1-0.3,0.2-0.4,0.8-1.1c0.9-1.2,1.3-1.9,1.4-2.9c0.1-0.9,0.3-1.3,0.6-1.7c0.2-0.2,0.2-0.3,0.2-0.5c0-0.1-0.3-0.7-1.3-2.4
				c-1.5-2.7-1.5-2.7-1.5-2.7c0,0,0.7,1.1,1.6,2.4c1.1,1.7,1.6,2.4,1.7,2.5c0.2,0.2,0.4,0.3,0.6,0.3c0.2,0,0.5-0.1,0.7-0.2
				c0.3-0.2,0.4-0.4,0.2-0.7c-0.2-0.2-2.2-2.8-4.5-5.5c-3.3,2.4-5.4,6.2-5.4,10.5c0,7.2,5.8,13,13,13c7.2,0,13-5.8,13-13
				C137.2,200.4,131.4,194.5,124.2,194.5z M121.1,198.1c0.2,0,0.8,0,1.2,0.1c0.9,0.2,1.7,0.8,2.6,1.7l0.2,0.3l0.3-0.1
				c1.4-0.2,2.8-0.1,4,0.5c0.3,0.1,0.8,0.4,0.9,0.5c0,0,1.1,0.9,1.1,0.9l0.1,0.1c0.6,0.7,1.1,1.7,1.2,2.4l0,0.2l-0.1-0.2
				c-0.2-0.3-0.4-0.5-0.6-0.6c-0.4-0.3-0.9-0.4-2.1-0.4c-1.1-0.1-1.7-0.1-2.3-0.3c-1-0.3-1.5-0.8-2.8-2.4c-0.5-0.7-0.9-1.1-1.2-1.4
				c-0.8-0.7-1.5-1.1-2.4-1.2C121,198.1,121,198.1,121.1,198.1z M128.2,207.4c0-0.2-0.1-0.4-0.1-0.5l-0.1-0.2l0.1,0.1
				c0.2,0.2,0.3,0.4,0.4,0.7c0.1,0.2,0.1,0.3,0.1,0.7s0,0.5-0.1,0.7c-0.1,0.3-0.3,0.6-0.5,0.8c-0.4,0.5-1,0.7-1.9,0.8
				c-0.2,0-0.6,0.1-0.9,0.1c-0.9,0.1-1.6,0.1-2.1,0.3c-0.1,0-0.2,0.1-0.2,0c0,0,0.4-0.2,0.7-0.4c0.4-0.2,0.9-0.3,1.9-0.5
				c0.5-0.1,1-0.2,1.1-0.2C127.8,209.5,128.4,208.6,128.2,207.4z M121.8,201.6c-0.5-0.7-0.8-1.8-0.8-2.7l0-0.3l0.1,0
				c0.2,0,0.6,0.2,0.8,0.3c0.5,0.3,0.7,0.7,0.9,1.7c0.1,0.3,0.2,0.6,0.2,0.8c0.1,0.2,0.3,0.6,0.5,0.9c0.1,0.2,0.1,0.3-0.3,0.3
				C122.8,202.6,122.2,202.2,121.8,201.6z M121.7,205.1c0.1-0.3,0.4-0.6,0.7-0.7c0.2-0.1,0.6,0,0.8,0.1c0.4,0.2,0.6,0.6,0.6,0.9
				c-0.1,0.4-0.7,0.6-1.3,0.7c-0.3,0-0.5,0-0.6-0.2C121.7,205.7,121.6,205.3,121.7,205.1z M128.9,216.6c-0.3,0.2-0.6,0.2-0.9,0.2
				c-0.6,0-1.1-0.3-1.5-0.9c-0.1-0.1-0.3-0.5-0.4-0.8c-0.4-1-0.7-1.3-1.2-1.6c-0.4-0.3-1-0.3-1.4-0.1c-0.6,0.3-0.7,1-0.3,1.5
				c0.2,0.2,0.5,0.3,0.7,0.4c0.5,0.1,0.9-0.3,0.9-0.8c0-0.3-0.1-0.5-0.4-0.6c-0.4-0.2-0.8,0-0.8,0.4c0,0.2,0.1,0.3,0.2,0.3
				c0.1,0.1,0.1,0.1,0,0c-0.4-0.1-0.4-0.5-0.2-0.8c0.3-0.4,1.1-0.2,1.3,0.3c0.1,0.2,0.1,0.6,0,0.8c-0.2,0.5-0.8,0.8-1.4,0.7
				c-0.4-0.1-0.6-0.2-1.1-0.7c-0.9-0.9-1.2-1.1-2.4-1.3l-0.2,0l0.3-0.2c0.9-0.8,2.1-1.3,3.1-1.5c0.4-0.1,1.2,0,1.6,0.1
				c0.7,0.2,1.3,0.6,1.6,1c0.3,0.4,0.4,0.8,0.6,1.7c0.1,0.3,0.1,0.7,0.1,0.8c0.1,0.4,0.3,0.8,0.5,1c0.4,0.3,1.1,0.3,1.7,0.1
				c0.1,0,0.2-0.1,0.2-0.1C129.5,216.2,129.2,216.5,128.9,216.6z M133.1,212.5c-0.3,1.1-0.9,1.9-1.8,2.4c-0.1,0.1-0.2,0.1-0.3,0.1
				c0,0,0-0.1,0.1-0.3c0.3-0.6,0.3-1.2,0.1-1.9c-0.1-0.4-0.4-0.9-1-1.8c-0.7-1-0.8-1.3-1-1.6c-0.3-0.7-0.4-1.4-0.2-2
				c0-0.1,0.1-0.1,0.1-0.1c0,0,0.1,0,0.2,0.1c0.1,0.1,0.4,0.3,1.3,0.7c1,0.6,1.6,1,2,1.5c0.3,0.4,0.6,0.9,0.7,1.5
				C133.3,211.4,133.2,212.2,133.1,212.5z M133.5,210c0,0,0-0.1,0-0.2c0-0.5-0.3-1-0.7-1.4c-0.5-0.4-1.2-0.8-2.8-1.4
				c-2.5-1-3.3-1.9-3.3-3.3c0-0.2,0-0.4,0-0.4c0,0,0.1,0.1,0.2,0.2c0.5,0.4,1.1,0.6,2.6,0.8c0.9,0.1,1.4,0.2,1.9,0.4
				c1.5,0.5,2.4,1.5,2.7,2.9c0.1,0.4,0,1.1-0.1,1.6C133.8,209.4,133.6,210,133.5,210z"/>
			<path class="st1" d="M116.8,211.1c0.2,0.1,0.4,0.1,0.5-0.2c0.1-0.2,0.1-0.5-0.2-0.7c-0.2-0.1-0.5-0.1-0.5,0.1
				c0,0.1,0,0.1,0.1,0.1c0.1,0.1,0.1,0.1,0,0.3C116.7,210.9,116.7,211,116.8,211.1z"/>
		</g>
		<g>
			<path class="st1" d="M572.2,162.7c-4.7,0-8.5-3.8-8.5-8.5c0-4.7,3.8-8.5,8.5-8.5s5.8-1.9,0-1.9s-10.5,4.7-10.5,10.4
				s4.7,10.4,10.5,10.4V162.7z"/>
			<path class="st1" d="M572.2,146.8c-4.1,0-7.4,3.3-7.4,7.4s3.3,7.4,7.4,7.4C574.2,161.6,573,146.8,572.2,146.8z M572.9,158.6v1.5
				h-1.4v-1.4c-1,0-1.9-0.3-2.5-0.6l0.4-1.7c0.6,0.3,1.5,0.6,2.4,0.6c0.8,0,1.4-0.3,1.4-0.9c0-0.6-0.5-0.9-1.5-1.2
				c-1.5-0.5-2.6-1.2-2.6-2.6c0-1.3,0.9-2.3,2.4-2.6v-1.4h0.8l0.2,1.3l0,1.6c0,0-1.2,0.4-1.2,0.8c0,0.5,0.5,0.8,1.7,1.2
				c1.7,0.6,2.4,1.4,2.4,2.7C575.5,157.2,574.5,158.3,572.9,158.6z"/>
		</g>
		<path class="st1" d="M582.2,157c-2.6,0-5.3-3.4-7.4-1.9c-2.7,2-4.6,5-5,8.3c-0.7,5.9,3.5,10.8,9.6,10.8s11.5-4.8,12.2-10.7
			c0.4-3.5-0.9-6.6-3.3-8.6C586.6,153.5,584.7,157,582.2,157z M575.7,158.1h11.3l-0.4,3.1h-3.9l-0.5,4.1c-0.5,0-1.1,0.1-1.8,0.1
			c-0.6,0-1.2,0-1.7-0.1l0.5-4.1h-3.9L575.7,158.1z M582.1,166.3l-0.5,3.8h-3.5l0.5-3.8c-2.7-0.2-5-0.8-4.9-1.8
			c0.1-1.2,3.2-1.6,4.5-1.7l0,0.5c-2.6,0.3-3.8,0.9-3.9,1.2c-0.1,0.5,2,1.3,6.1,1.3s6.4-0.9,6.4-1.3c0-0.3-1.1-0.9-3.7-1.2l0.1-0.5
			c1.3,0.1,4.3,0.6,4.1,1.7C587.3,165.5,584.9,166.1,582.1,166.3z"/>
		<g>
			<path class="st1" d="M582.4,149.6l1,0.3c0.3,0,1.6,0,2.7-1.3l-6.8-2.1l-0.3,0.9c0.6,0.3,1.2,0.6,1.9,1.1
				C581.5,148.8,582,149.2,582.4,149.6z"/>
			<path class="st1" d="M586,141.5l-4.6-1.4l-0.7,2.1l6.7,2.1C587.3,142.6,586.2,141.7,586,141.5z"/>
			<path class="st1" d="M579.9,144.9l7.1,2.2c0.1-0.2,0.1-0.3,0.2-0.5c0.1-0.2,0.1-0.5,0.2-0.7l-7.1-2.2L579.9,144.9z"/>
			<path class="st1" d="M586.7,133c-6-1.8-12.5,1.9-14.5,8.5c-2,6.5,1.3,13.3,7.4,15.1s12.5-1.9,14.5-8.5S592.7,134.8,586.7,133z
				 M590.4,146.8l-1.7-0.5c0,0.2-0.1,0.4-0.2,0.7c-0.1,0.2-0.1,0.4-0.2,0.5l1.7,0.5l-0.5,1.5l-2-0.6c-1,1.5-2.4,2.1-3.5,2.3
				c1.1,1.4,1.4,3.3,0.6,4.5c-0.9,1.4-4.2,0.8-7.5-1.4c-3.2-2.2-4.9-5.5-4-6.8c0.6-0.9,2.6-1.5,4.7-0.7l0.2-0.7l-1.4-0.4l0.5-1.5
				l1.4,0.4l0.4-1.2l-1.4-0.4l0.5-1.5l1.4,0.4l1.1-3.6l6.2,1.9c0.9,0.6,2.2,2.1,2.2,4.5l2,0.6L590.4,146.8z"/>
		</g>
		<path class="st1" d="M581.1,148.2c-3.3-2.3-6.7-2.9-7.8-1.4l-2.9,4.3l0,0c-0.7,1.1,0.1,2.9,1.8,4.7c0.2,0.2,1.7,1.6,2.3,2.1
			c3.3,2.2,6.7,2.9,7.8,1.4l2.9-4.4C586.2,153.5,584.5,150.4,581.1,148.2z M573.1,148.9c-0.1,0.1-0.1,0-0.1-0.1
			c0-0.1-0.1-0.3-0.1-0.4c0-0.1,0.1-0.1,0.1-0.1s0.1,0,0.1,0.1c0.1,0.2,0.1,0.3,0.1,0.4C573.2,148.8,573.2,148.9,573.1,148.9z
			 M577.5,154c-0.1,0-0.1,0.1-0.2,0c-1.9-1.3-3.4-3-4.1-4.6c0-0.1,0-0.1,0.1-0.1c0.1-0.1,0.1,0,0.1,0.1c0.7,1.5,2.1,3.2,4.1,4.5
			C577.5,153.9,577.6,153.9,577.5,154z M581.8,156c-0.2-0.1-0.5-0.1-0.6-0.2c-0.1,0-0.1-0.1-0.1-0.1c0-0.1,0.1-0.1,0.1-0.1
			c0.2,0.1,0.5,0.1,0.6,0.2c0.1,0,0.1,0.1,0.1,0.1C581.9,156,581.8,156,581.8,156z M583.9,156.2c-0.5,0.1-1,0-1.5-0.1
			c-0.1,0-0.1-0.1-0.1-0.1c0-0.1,0.1-0.1,0.1-0.1c0.5,0.1,1,0.1,1.5,0.1c0.1,0,0.1,0.1,0.1,0.1S583.9,156.2,583.9,156.2z
			 M584.8,154.7c-0.9,1.3-4,0.6-7-1.5c-3.1-2.1-4.9-4.8-4-6.1s4-0.6,7,1.5S585.7,153.4,584.8,154.7z"/>
		<g id="Layer_2_2_">
		</g>
		<g id="Layer_3_1_">
			<g>
				<path class="st1" d="M199.9,52.8c1.9-0.4,1.6-0.4-1.3-0.1c0.1,0.2,0.2,0.3,0.3,0.5C200.6,52.7,201.3,52.5,199.9,52.8z"/>
				<path class="st1" d="M201,52.8C201,52.8,201.1,52.7,201,52.8c-0.1,0-0.5,0.1-1.1,0.3c1.4-0.5,0.7-0.3-1.1,0.2
					c0.1,0.1,0.2,0.3,0.2,0.4C200.2,53.2,200.8,52.9,201,52.8z"/>
				<path class="st1" d="M198.3,52.3c1.4,0,2.1,0,0.6-0.1c2.4,0.1,2.5,0.1,0.3-0.2c0.1,0.1,0.1,0.1,0.1,0.2
					c-0.1-0.1-0.1-0.1-0.1-0.2c-0.3,0-0.7-0.1-1.1-0.1C198.1,52,198.2,52.1,198.3,52.3z"/>
				<path class="st1" d="M198.8,52.5c1.5-0.1,0.8-0.1-0.5-0.1c0.1,0.1,0.1,0.3,0.2,0.4C201.4,52.4,201.5,52.4,198.8,52.5z"/>
				<path class="st1" d="M199.4,54.1c2.2-1.4,2.1-1.4-0.1-0.2c2.2-1.2,2.2-1.2-0.1-0.2c0.1,0.2,0.2,0.4,0.4,0.7
					C201.5,52.8,201.5,52.8,199.4,54.1z"/>
				<path class="st1" d="M200.2,54.9c0.2-0.3,0.4-0.5,0.5-0.7c-0.1,0-0.2,0.1-0.3,0.1c0,0-0.1,0-0.2,0c-0.1,0.1-0.3,0.3-0.5,0.5
					c0.1,0.1,0.1,0.2,0.1,0.3C200,55,200.1,55,200.2,54.9z"/>
				<path class="st1" d="M200.2,54.3c-0.1,0-0.1,0-0.2,0c0.3-0.1,0.1-0.2,0.2-0.3c0.1-0.1,0.3-0.2,0.5-0.2c0.5-0.5,0.6-0.6-0.2,0.1
					c0.4-0.3,0.6-0.6,0.8-0.7c0,0,0,0-0.1-0.1c-0.3,0.2-0.8,0.6-1.7,1.2c0.1,0.1,0.2,0.3,0.2,0.4C199.9,54.6,200,54.5,200.2,54.3z"
					/>
				<path class="st1" d="M200.5,50c1,1.3,1.1,1.5,0.4,0.3C200.8,50.2,200.6,50.1,200.5,50z"/>
				<path class="st1" d="M200.7,50.8c0.4,0.4,0.5,0.5,0.2,0.1C200.9,50.9,200.8,50.9,200.7,50.8z"/>
				<path class="st1" d="M196.8,48.9c0.6,0.8,1.3,1.8,2.3,3.1c1,0.1,1.6,0.2,1.9,0.2c0,0-0.1,0-0.1-0.1c-0.2,0-0.5-0.1-1-0.2
					c0.4,0.1,0.7,0.2,1,0.2c-0.1-0.1-0.1-0.2-0.2-0.2c-0.2-0.1-0.4-0.1-0.7-0.2c0.3,0.1,0.5,0.2,0.7,0.2c-0.1-0.1-0.2-0.2-0.3-0.3
					c-0.5-0.2-1.2-0.5-2.2-1c1,0.4,1.7,0.8,2.2,0.9c-0.1-0.1-0.2-0.2-0.3-0.3c-0.2-0.1-0.5-0.2-0.7-0.4c0.3,0.1,0.5,0.3,0.7,0.4
					c-0.6-0.6-1.2-1.2-1.7-1.7C197.7,49.2,197.2,49,196.8,48.9z"/>
				<path class="st1" d="M201.3,51.2c-0.1-0.1-0.2-0.1-0.3-0.2C201.5,51.5,201.6,51.6,201.3,51.2z"/>
				<path class="st1" d="M199.5,50.6c2.3,1.5,2,1.2-0.8-0.9c2.9,2.2,3.4,2.5,1.8,1.1c0.8,0.7,0.8,0.6,0.1,0
					c-0.8-0.5-1.5-0.9-2.2-1.2C198.7,49.8,199.1,50.2,199.5,50.6z"/>
				<path class="st1" d="M198.2,48.3c1,1,1.8,1.8,2.3,2.3c0.1,0.1,0.2,0.1,0.3,0.2c-0.1-0.1-0.1-0.2-0.2-0.3
					c0.1,0.1,0.2,0.2,0.3,0.3c0.1,0.1,0.2,0.2,0.4,0.2c-0.2-0.2-0.4-0.6-0.8-1.1C199.6,49.3,198.8,48.8,198.2,48.3z"/>
				<path class="st1" d="M201.4,54.1c0.1,0,0.1-0.1,0.2-0.1C201.9,53.2,201.9,53.2,201.4,54.1z"/>
				<path class="st1" d="M200.4,56.4c0-0.1,0.1-0.1,0.1-0.2c-0.1-0.1-0.2-0.3-0.3-0.4c-0.5,0.8-1.1,1.8-1.6,2.7
					c0.5-0.9,1.1-1.9,1.6-2.7c-0.1-0.1-0.1-0.2-0.2-0.4c-0.1,0.2-0.3,0.4-0.4,0.6c0.1-0.2,0.3-0.4,0.4-0.6c0,0,0-0.1-0.1-0.1
					c0,0,0,0,0,0c-0.1,0-0.1,0-0.1-0.1c0,0,0,0,0.1,0c-0.1-0.1-0.1-0.2-0.1-0.2c-0.1,0-0.1,0.1-0.1,0.1c0.1,0,0.2,0,0.2,0
					c0,0.1-0.2,0.2-0.4,0.2c0,0,0,0-0.1,0c-0.4,0.4-0.9,0.8-1.3,1.3c0.5-0.5,0.9-0.9,1.3-1.3c-0.1,0-0.2,0-0.3,0
					c0.1-0.1,0.2-0.1,0.3-0.2c0.1,0,0.2,0,0.2,0c0.1-0.1,0.1-0.1,0.2-0.2c-0.1-0.1-0.2-0.3-0.3-0.4c-0.2,0.2-0.5,0.4-0.8,0.6
					c0.3-0.2,0.5-0.4,0.8-0.6c-0.1-0.2-0.3-0.5-0.4-0.7c-0.3,0.1-0.6,0.2-0.9,0.4c0.3-0.1,0.6-0.3,0.9-0.4c-0.1-0.2-0.2-0.3-0.3-0.4
					c-0.7,0.2-1.5,0.4-2.4,0.6c0.9-0.2,1.7-0.5,2.4-0.7c-0.1-0.2-0.2-0.3-0.3-0.5c-0.2,0-0.4,0-0.6,0.1c0.2,0,0.4,0,0.6-0.1
					c-0.1-0.1-0.2-0.3-0.2-0.4c-0.3,0-0.6,0-0.9,0c0.1,0.2,0.2,0.5,0.3,0.8c-0.1-0.3-0.2-0.5-0.3-0.8c-0.7,0-1.5,0-2.1,0
					c0.7,0,1.4,0,2.1,0c-0.7-1.5-1.2-2.6-1.6-3.5c-0.1,0-0.2,0.1-0.3,0.2c0.1,0.2,0.1,0.4,0.2,0.6c-0.1-0.2-0.1-0.4-0.2-0.6
					c-0.1,0.1-0.2,0.3-0.3,0.5c0,0.1,0,0.2,0.1,0.3c0-0.1,0-0.2-0.1-0.3c-0.1,0.3-0.2,0.7-0.2,1.2c0.1,0.9,0.2,1.9,0.4,3.2
					c-0.1-1.2-0.3-2.2-0.4-3c-0.1,1.3,0.1,3.3,0.5,6c0.1,0,0.1,0,0.2,0c0.2,0,0.1,0.1-0.2,0.2c0.1,0.7,0.2,1.5,0.3,2.3
					c0.1,0,0.1,0,0,0c0.1,0.3,0.1,0.7,0.2,1c1.7-0.7,3-1.3,4.6-2.4c0,0,0,0,0,0c-0.2,0-0.3,0.1-0.4,0.1c-0.1,0-0.1-0.1-0.2-0.1
					c0.1-0.1,0.2-0.2,0.6-0.2c0.1,0,0.2,0,0.3,0c0.1-0.2,0.1-0.5,0.2-0.7c-0.1-0.2-0.3-0.5-0.4-0.7
					C200.5,56.3,200.4,56.3,200.4,56.4z M198.4,55.3c0.1,0,0.2,0,0.3,0c0.1,0,0,0.1-0.1,0.2c-0.3,0.1-0.4,0-0.7,0.1
					C197.9,55.5,198.3,55.4,198.4,55.3z M196.4,55l0.2,0.1c-0.1,0-0.2,0.1-0.3,0.1C196.1,55.1,196.2,55,196.4,55z M197.2,58.7
					c-0.2,0.1-0.4,0.1-0.7,0.1c-0.2-0.1-0.4-0.1-0.4-0.2c0-0.1,0.1-0.1,0.3-0.1c0.2,0,0.4,0,0.5-0.1
					C197.1,58.5,197.2,58.6,197.2,58.7L197.2,58.7z M198.5,56.9c0,0.1-0.4,0.2-0.6,0.3c-0.5,0.1-0.3,0-0.5-0.1
					c0.5-0.2-0.3-0.1,0.2-0.3c0.1,0,0.3-0.1,0.4-0.1C197.8,56.9,198.8,56.6,198.5,56.9z"/>
				<path class="st1" d="M201.4,54.6c0.1-0.2,0.1-0.3,0.1-0.4c-0.1,0-0.1,0-0.2,0.1c0,0,0,0-0.1,0c-0.2,0.5-0.5,1.1-0.9,2
					c0.1,0.3,0.3,0.5,0.4,0.8c0.4-1.4,0.6-2.4,0.8-2.8c0,0-0.1,0-0.1,0C201.6,54.2,201.5,54.4,201.4,54.6z"/>
				<path class="st1" d="M201.7,54C201.7,54,201.7,54,201.7,54L201.7,54C201.7,53.8,201.7,53.8,201.7,54z"/>
				<path class="st1" d="M201.9,49.9c0.2,1.3,0.2,1.3,0.2,0.1C202,49.9,202,49.9,201.9,49.9z"/>
				<path class="st1" d="M200.1,55.2C200,55.2,200,55.2,200.1,55.2C200,55.2,200,55.2,200.1,55.2C200,55.2,200,55.2,200.1,55.2z"/>
				<path class="st1" d="M201.5,49.6c0.4,1.3,0.5,1.6,0.2,0.4c0.1,0.6,0.2,1,0.3,1.1c0,0,0,0,0,0c0-0.2,0-0.6-0.1-1.2
					C201.8,49.8,201.6,49.7,201.5,49.6z"/>
				<path class="st1" d="M198.2,52.3c-0.1-0.2-0.2-0.3-0.3-0.5c0,0-0.1,0-0.1,0c0,0,0.1,0,0.1,0c-1.3-2.2-2.1-3.4-0.7-0.8
					c-0.5-1-0.9-1.7-1.2-2.2c-0.1,0-0.2,0-0.2,0c0.3,0.8,0.8,1.9,1.5,3.5C197.6,52.3,197.9,52.3,198.2,52.3z"/>
				<path class="st1" d="M200.7,55C200.7,55,200.8,55,200.7,55C201.1,54.3,201,54.4,200.7,55z"/>
				<path class="st1" d="M200.4,55.3L200.4,55.3c-0.2,0-0.3,0-0.2-0.1c0,0,0.1-0.1,0.2-0.1c0.3-0.4,0.5-0.7,0.6-1
					c-0.1,0-0.1,0.1-0.2,0.1c0,0-0.1,0-0.1,0c-0.1,0.2-0.3,0.5-0.6,0.7c0,0,0,0,0.1,0c0.1,0,0.1,0.1,0.1,0.1c-0.1,0-0.2,0.1-0.3,0.1
					c0,0,0,0-0.1,0.1c0.1,0.1,0.1,0.2,0.2,0.4C200.3,55.5,200.4,55.4,200.4,55.3z"/>
				<path class="st1" d="M200.5,55.1c0,0,0.1,0,0.1,0C201,54.3,201,54.2,200.5,55.1z"/>
				<path class="st1" d="M198,51.8c0.4,0,0.8,0.1,1.1,0.1c-1-1.3-1.8-2.4-2.3-3.1c-0.1,0-0.3-0.1-0.4-0.1c0.3,0.5,0.7,1.2,1.2,2
					C196,48.2,196.7,49.5,198,51.8z"/>
				<path class="st1" d="M187.7,35.2c0.1,0,0.4-0.1,0.6-0.1c0,0-0.1-0.1-0.1-0.2C188.1,35.1,187.9,35.2,187.7,35.2z"/>
				<path class="st1" d="M194.6,60.8c0.1,0,0.2-0.1,0.3-0.1c0,0-0.1,0-0.1,0C194.9,60.7,194.5,60.6,194.6,60.8z"/>
				<path class="st1" d="M194.5,37.6L194.5,37.6c-0.1,0.1-0.2,0-0.3,0c0,2.7,0.1,4.2,0.2,1.2c-0.1,1.8-0.1,2.9-0.1,3.4
					c0.1-0.1,0.1-0.2,0.2-0.2c0.1-0.7,0.3-2.2,0.6-4.3C194.9,37.6,194.7,37.6,194.5,37.6z"/>
				<path class="st1" d="M205.1,38.8c0-0.1,0-0.1,0-0.1c0,0,0.1,0,0.1,0c0,0-0.1-0.1-0.1-0.1c-0.4,0.3-0.7,0.5-1.1,0.7
					c0,0,0.1,0,0.1,0.1C204.4,39.2,204.8,39,205.1,38.8z"/>
				<path class="st1" d="M197.5,48.3c-0.3-0.3-0.6-0.5-0.7-0.6c0.3,0.5,1.5,1.5,3.6,2.8c-0.5-0.5-1.3-1.3-2.2-2.2
					c-0.6-0.4-1-0.8-1.4-1c-0.1,0.1-0.1,0.2,0,0.3C197,47.8,197.2,48,197.5,48.3z"/>
				<path class="st1" d="M198.4,42.9c0.7-0.4,1.4-0.8,2.3-1.4C199.6,42.1,198.7,42.7,198.4,42.9z"/>
				<path class="st1" d="M198,47c-0.2,0-0.4,0-0.5,0c0.5,0.3,1.3,0.7,2.3,1.3c-2.9-1.5-1.2-0.5,1.5,1.1c-0.1-0.3-0.2-0.7-0.3-1.1
					C199.8,47.8,198.8,47.3,198,47z"/>
				<path class="st1" d="M194,37.7c-0.3,0-0.5-0.1-0.8-0.2c0.8,6.2,0.9,6.6,0.7,1.3C194,41.7,194,40.3,194,37.7
					C194,37.6,194,37.6,194,37.7L194,37.7z"/>
				<path class="st1" d="M187,55.7l0.2-0.1c0,0.1-0.3,0.1-0.1,0.2c0.1,0,0.3,0.1,0.3,0.1c-0.1,0.1,0.2,0.2,0.2,0.3
					c1-1.8,2.2-3.9,3-5.3C189.7,51.9,188.5,53.5,187,55.7C187,55.7,187,55.7,187,55.7z M187.7,56C187.7,56,187.6,56,187.7,56l-0.1,0
					L187.7,56z"/>
				<path class="st1" d="M187.5,33.5c-0.4,0.3-0.8,0.6-1.2,1c0.2-0.1,0.4-0.2,0.6-0.2c0.2-0.1,0.3-0.1,0.5-0.2
					c0.1,0,0.2-0.1,0.3-0.1C187.6,33.8,187.6,33.7,187.5,33.5z"/>
				<path class="st1" d="M200.8,47.2c0.1,0.4,0.2,0.8,0.3,1.2c0.2,0.1,0.4,0.2,0.6,0.3c0-0.2-0.1-0.5-0.1-0.7c0,0.3,0.1,0.5,0.1,0.7
					c0.1,0,0.1,0.1,0.2,0.1c-0.1,0-0.1-0.1-0.2-0.1c0.1,0.4,0.1,0.8,0.1,1.1c0.1,0,0.1,0.1,0.2,0.1c0-0.2,0-0.5,0-0.9
					c0.1,1.8,0.1,0.4,0.1-1.5c-0.4-0.1-0.7-0.2-1.1-0.3C201,47.2,200.9,47.2,200.8,47.2z"/>
				<path class="st1" d="M188,47.1c0.1,0.1,0.2,0.1,0.2,0.2c0.6-0.2,1-0.5,1.2-0.7c-0.5,0.1-1.1,0.3-1.7,0.5
					C187.9,47.1,187.9,47.1,188,47.1z"/>
				<path class="st1" d="M186.2,56.7c0-0.1,0.1-0.1,0.1-0.2c-0.2,0-0.5,0-0.7-0.1C185.8,56.5,186,56.6,186.2,56.7z"/>
				<path class="st1" d="M200.9,52.1C201,52.1,201,52.1,200.9,52.1C201.1,52.1,201.1,52.1,200.9,52.1z"/>
				<path class="st1" d="M201.3,53.7C201.4,53.5,201.4,53.5,201.3,53.7C201.2,53.7,201.3,53.7,201.3,53.7z"/>
				<path class="st1" d="M200.4,51.5c0.1,0.1,0.2,0.2,0.2,0.2C201.4,52,201.3,51.9,200.4,51.5z"/>
				<path class="st1" d="M200.9,53.7c0.3-0.4,0.2-0.3-0.1,0C200.8,53.8,200.9,53.7,200.9,53.7z"/>
				<path class="st1" d="M201.3,52c-0.1,0-0.3-0.1-0.6-0.2c0.1,0.1,0.1,0.1,0.2,0.2C201.1,52.1,201.2,52.1,201.3,52
					C201.3,52.1,201.3,52.1,201.3,52z"/>
				<path class="st1" d="M200.1,51.2c0.1,0.1,0.2,0.2,0.3,0.3C201.2,51.8,201.1,51.7,200.1,51.2z"/>
				<path class="st1" d="M201.9,49.7c0-0.3-0.1-0.7-0.1-1.1c-0.2-0.1-0.4-0.2-0.6-0.3c0.1,0.4,0.2,0.8,0.3,1.1
					C201.6,49.5,201.7,49.6,201.9,49.7z"/>
				<path class="st1" d="M199.5,50.6c0.2,0.2,0.4,0.4,0.6,0.6C201.4,51.9,201.2,51.7,199.5,50.6z"/>
				<path class="st1" d="M198.1,47c0.8,0.3,1.8,0.8,3,1.3c-0.1-0.4-0.2-0.8-0.3-1.2C199.7,47.1,198.8,47,198.1,47z"/>
				<path class="st1" d="M200.3,47c-1.3-0.3-2.3-0.6-2.8-0.7C198.1,46.5,199,46.8,200.3,47z"/>
				<path class="st1" d="M201.4,53.3c-0.1,0.1-0.2,0.2-0.4,0.4c0.1,0,0.1,0,0.2,0C201.3,53.5,201.4,53.4,201.4,53.3
					C201.4,53.3,201.4,53.3,201.4,53.3z"/>
				<path class="st1" d="M196.9,47.2c0.3,0.2,0.7,0.5,1.2,0.9c-0.1,0-0.1-0.1-0.1-0.1c0.1,0,0.1,0.1,0.1,0.2
					c0.6,0.5,1.4,1.1,2.4,1.8c-0.3-0.3-0.6-0.8-0.9-1.2c0.4,0.5,0.7,0.9,0.9,1.2c0.1,0.1,0.3,0.2,0.4,0.3c-0.1-0.2-0.3-0.5-0.5-0.9
					c0.2,0.4,0.4,0.7,0.6,0.9c0,0,0,0,0,0c0,0,0,0,0,0c0.8,1.2,0.6,0.9-0.4-1c0.5,1,0.9,1.6,1.1,1.9c0,0,0.1-0.1,0.1-0.1
					c-0.1-0.2-0.2-0.6-0.3-1.1c0.4,1.2,0.3,0.8,0-0.5c-2.8-1.6-4.6-2.6-1.8-0.8c-1.2-0.8-2.1-1.3-2.6-1.6
					C196.9,47.2,196.9,47.2,196.9,47.2z"/>
				<path class="st1" d="M201.4,53.8C201.4,53.8,201.4,53.9,201.4,53.8c-0.2,0.3-0.4,0.7-0.6,1.1c0.1,0,0.1,0,0,0.1
					c0,0-0.1,0.1-0.1,0.1c0,0,0,0.1-0.1,0.1c0,0,0-0.1,0.1-0.1c0,0-0.1,0-0.1,0.1c-0.1,0.1-0.2,0.3-0.3,0.5c0.1,0.2,0.2,0.3,0.2,0.4
					c0.4-0.9,0.7-1.6,0.9-2c0,0,0,0,0,0c0,0,0,0,0.1,0C201.6,53.6,201.6,53.5,201.4,53.8z"/>
				<path class="st1" d="M201.8,54L201.8,54C201.9,53.8,201.8,53.8,201.8,54z"/>
				<path class="st1" d="M203.2,53.8c0.2,0.3,0.4,0.7,0.8,1.3c-0.9-1.3-0.5-0.6,0.2,0.6c0.1-0.1,0.2-0.2,0.2-0.4
					C203.9,54.6,203.5,54.1,203.2,53.8C203.3,53.8,203.2,53.8,203.2,53.8z"/>
				<path class="st1" d="M202.9,53.8C202.9,53.8,202.9,53.8,202.9,53.8C202.8,53.6,202.8,53.6,202.9,53.8z"/>
				<path class="st1" d="M203.8,55.3c-0.3-0.6-0.6-1.1-0.7-1.3c-0.1,0-0.1,0-0.1,0c0.2,0.4,0.5,1.2,1,2.3c0.1-0.1,0.2-0.3,0.3-0.4
					C203.5,54.6,203,53.9,203.8,55.3z"/>
				<path class="st1" d="M203.5,53.6C203.5,53.7,203.5,53.7,203.5,53.6c0,0.1,0.2,0.3,0.3,0.4C203.6,53.9,203.5,53.8,203.5,53.6
					c-0.1,0.1-0.1,0.1-0.2,0.2c0.3,0.4,0.6,0.9,1.2,1.6c0.1-0.2,0.2-0.3,0.3-0.5C204.2,54.3,203.7,53.9,203.5,53.6z"/>
				<path class="st1" d="M203.2,50.6c0,0-0.1,0-0.1-0.1C202.8,51.2,202.9,51.2,203.2,50.6z"/>
				<path class="st1" d="M203.2,53.6c0,0,0.1,0,0.1-0.1C202.8,53.1,202.8,53.1,203.2,53.6z"/>
				<path class="st1" d="M203.1,53.7C203.1,53.7,203.1,53.7,203.1,53.7C203,53.5,203,53.5,203.1,53.7z"/>
				<path class="st1" d="M205.3,54.7c0.1,0.1,0.3,0.2,0.4,0.3C205.6,54.9,205.5,54.8,205.3,54.7c-0.1,0.2-0.2,0.4-0.2,0.5
					c0.3,0.3,0.7,0.7,1,1l0.2-0.1c-0.1,0.1-0.1,0.1-0.1,0.2c0.1,0.1,0.2,0.2,0.3,0.3c-0.1-0.1-0.2-0.2-0.3-0.3
					c-0.1,0.2-0.2,0.3-0.5,0.5c-0.2,0.1,0.1-0.2-0.3,0c0.1-0.1,0.4-0.4,0.6-0.6l0,0c-0.4-0.4-0.7-0.7-1-1c-0.1,0.2-0.2,0.4-0.3,0.6
					c0,0,0,0,0.1,0.1c0,0,0,0-0.1-0.1c-0.1,0.2-0.2,0.3-0.3,0.5c0.4,0.6,0.8,1.4,1.1,2l0,0l0,0c0,0,0,0.1,0.1,0.1
					c0.3-0.3,0.5-0.6,0.5-0.7l-0.1,0.1c0.5-0.5,0.7-0.8,0.8-1l-0.1,0c0.2-0.2,0,0,0.2-0.1c0.1-0.2,0.3-0.4,0.3-0.5
					c0.1-0.2,0.2-0.3,0.4-0.4c0.1-0.1,0.1-0.2,0.2-0.2c0,0,0,0,0,0c-0.8-0.5-1.7-1-2.4-1.3C205.4,54.4,205.4,54.5,205.3,54.7z"/>
				<path class="st1" d="M203.4,50.7c0,0-0.1,0-0.1-0.1C202.9,51.3,202.9,51.3,203.4,50.7z"/>
				<path class="st1" d="M203.6,52.6c-0.1,0-0.1-0.1-0.2-0.1C203.2,52.5,203.3,52.5,203.6,52.6z"/>
				<path class="st1" d="M206.6,49.7C206.6,49.7,206.6,49.7,206.6,49.7c0.1-0.1,0.1-0.2,0.2-0.3c0,0-0.1,0.1-0.2,0.1
					C206.6,49.6,206.6,49.7,206.6,49.7z"/>
				<path class="st1" d="M206.5,49.8C206.5,49.8,206.5,49.8,206.5,49.8C206.5,49.9,206.5,49.8,206.5,49.8
					C206.5,49.8,206.5,49.8,206.5,49.8L206.5,49.8z"/>
				<path class="st1" d="M205.9,50.7c0.1,0,0.2-0.1,0.4-0.2C206.1,50.6,206,50.6,205.9,50.7c-0.1,0.1-0.2,0.2-0.3,0.2
					c-0.1,0-0.2,0-0.2,0c-0.1,0-0.1,0.1-0.2,0.1c-0.1,0.1-0.2,0.3-0.4,0.4c0,0-0.1,0-0.1,0.1c0.4,0.2,0.8,0.5,1.2,0.7
					c-0.4-0.2-0.8-0.5-1.2-0.7c-0.1,0-0.1,0.1-0.2,0.1c0,0,0-0.1,0-0.2c0,0,0,0-0.1,0c-1.6,0.7-1.6,0.8,0,0.2
					c-0.9,0.3-1.4,0.5-1.4,0.5c0,0,0,0,0,0c0,0,0.5-0.1,1.5-0.3c-2.1,0.5-1.8,0.5,1,0.4c-2.6,0.1-2.6,0.2,0,0.3
					c-2.6-0.1-2.5,0,0.2,0.3c0.3-0.8,0.6-1.7,0.7-2.6c-0.1,0.1-0.2,0.2-0.4,0.4C206.1,50.6,206,50.6,205.9,50.7z"/>
				<path class="st1" d="M205.6,39.3c-0.2-0.1-0.2-0.2-0.4-0.4c0,0-0.1-0.1-0.1-0.1c-0.3,0.2-0.6,0.4-0.9,0.6
					c0.1,0.1,0.2,0.2,0.2,0.2c0.1,0.2,0.2,0.3,0.4,0.4c-0.2-0.1,0,0.1,0,0.2c0.2,0.3,0.3,0.3,0.1,0.4c-0.1,0.2,0.1,0.5,0.1,0.5
					c-0.1,0.1-0.4,0.1-0.2,0.4c-0.1,0-0.4,0-0.6-0.1c-0.3-0.1-0.6-0.2-0.8-0.3c-0.2-0.2-0.5-0.5-0.7-0.8c-0.4,0.2-0.7,0.4-1.1,0.6
					c-0.6,0.4-1.2,0.8-1.7,1.2c0,0,0.1,0,0.1,0c0,0-0.1,0-0.1,0c-0.6,0.4-1.1,0.8-1.5,1.1c0.9-0.4,2.1-0.9,3.7-1.6
					c-1.6,0.7-2.9,1.3-3.8,1.7c-0.3,0.2-0.5,0.4-0.7,0.6c0.3-0.1,0.6-0.2,1-0.3c-0.4,0.1-0.7,0.2-1,0.3c-0.2,0.2-0.3,0.3-0.4,0.5
					c0.4-0.1,0.9-0.2,1.5-0.3c-0.6,0.1-1.1,0.3-1.5,0.3c-0.1,0.2-0.2,0.3-0.2,0.5c0.8,0,2,0,3.8-0.1c-5,0.2-5,0.3,0,0.5
					c-5.4-0.2-4.9-0.1,1.6,0.7c0-0.3,0-0.7,0-1c0,0.3,0,0.7,0,1c0.1,0,0.3,0,0.4,0c-0.1,0-0.3,0-0.4,0c0,0.3,0,0.7,0,1
					c1.3,0.2,2.8,0.4,4.6,0.6c-1.8-0.2-3.3-0.4-4.6-0.5c0,0,0,0.1,0,0.2c1,0.3,2,0.6,3.2,0.9c-1.1-0.3-2.2-0.6-3.2-0.9
					c0,1.9,0,3.3,0.1,1.5c0,0.4,0,0.7,0,1c0.1,0,0.1,0.1,0.1,0.1c0.1-0.5,0.1-1.2,0.3-2.2c-0.1,0.9-0.2,1.6-0.2,2.2
					c0.1,0,0.1,0.1,0.2,0.1c0-0.1,0-0.1,0-0.2c0,0.1,0,0.1,0,0.2c0.1,0,0.1,0.1,0.2,0.1c0-0.1,0.1-0.2,0.1-0.2
					c0,0.1-0.1,0.2-0.1,0.2c0.1,0.1,0.2,0.1,0.3,0.2c0.2-0.3,0.4-0.7,0.6-1.1c-0.3,0.5-0.4,0.9-0.6,1.2c0,0,0.1,0,0.1,0.1
					c0.2-0.3,0.4-0.6,0.7-1.1c-0.3,0.5-0.5,0.8-0.7,1.1c0,0,0.1,0,0.1,0.1c0.3-0.4,0.8-1,1.4-1.9c-0.6,0.8-1.1,1.5-1.4,1.9
					c0.1,0,0.1,0.1,0.1,0.1c0.1-0.1,0.1-0.1,0.2-0.2c-0.1,0.1-0.1,0.1-0.2,0.2c0.1,0,0.1,0.1,0.2,0.1c0.1,0,0.1-0.1,0.2-0.1
					c-0.1,0-0.1,0.1-0.1,0.1c0.1,0,0.1,0.1,0.2,0.1c0.4-0.3,1-0.8,1.8-1.3c-0.8,0.6-1.4,1-1.8,1.3c0.1,0,0.1,0,0.1,0.1
					c0.2-0.2,0.5-0.3,0.9-0.6c-1.6,1-0.2,0.2,1.5-0.8c0,0,0-0.1,0-0.1c-0.1,0.1-0.2,0.2-0.2,0.2c0.1-0.1,0.2-0.2,0.2-0.3
					c0,0,0-0.1,0-0.1c0,0,0,0.1,0,0.1c0,0,0.1-0.1,0.1-0.1c0.1-0.1,0.2-0.3,0.3-0.5c0,0-0.1,0-0.1,0c0.2-0.2,0.4-0.4,0.5-0.7
					c0,0,0-0.1,0.1-0.1c-0.1-2.2-0.5-4.4-1.4-6.4c-0.2-0.4-0.3-0.5-0.1-0.2c1,1.7,1.7,3.7,2,5.8c0.2-0.3,0.4-0.5,0.4-0.6
					c-0.1,0.5,0.1,0,0.1,0.1c0,0.2-0.1,0.4-0.1,0.4c0.1-0.2,0.1-0.4,0.2-0.5c-0.6-2.5-1.4-4.9-2.8-6.9
					C205.8,39.6,205.7,39.5,205.6,39.3z"/>
				<path class="st1" d="M204.2,53c-0.1,0-0.1-0.1-0.2-0.1C203.6,52.7,203.6,52.8,204.2,53z"/>
				<path class="st1" d="M205.9,53.3c0.1,0,0.1,0,0.2,0c0,0,0-0.1,0.1-0.1c0.1-0.1,0.2-0.3,0.3-0.4c-0.1,0-0.2,0-0.4,0
					C206.1,53,206,53.1,205.9,53.3z"/>
				<path class="st1" d="M204.2,53c0.1,0,0.2,0.1,0.3,0.1C204.4,53,204.3,53,204.2,53c0.3,0.2,0.5,0.3,0.7,0.5
					C204.7,53.3,204.4,53.1,204.2,53c-1.5-0.5-1.2-0.3,1.2,0.7c0.1-0.2,0.1-0.3,0.2-0.5c-0.7-0.2-1.3-0.3-1.6-0.4
					C204,52.9,204.1,52.9,204.2,53z"/>
				<path class="st1" d="M203.3,53.5C203.3,53.5,203.4,53.5,203.3,53.5C203.3,53.4,203.2,53.4,203.3,53.5z"/>
				<path class="st1" d="M203.6,52.6c0.2,0,0.5,0.1,0.9,0.2c-1.4-0.3-0.8-0.1,1.1,0.4c0.1-0.2,0.1-0.3,0.2-0.5
					c-1.3-0.2-2.1-0.2-2.3-0.2C203.5,52.5,203.5,52.6,203.6,52.6z"/>
				<path class="st1" d="M206.5,50.2c0,0,0,0.1,0,0.1c0.1,0,0.1-0.1,0.1-0.2C206.7,50.1,206.6,50.2,206.5,50.2z"/>
				<path class="st1" d="M202.6,50.3c-0.1,0.4-0.1,0.7-0.2,0.9c0,0,0.1,0,0.1,0c0.1-0.2,0.2-0.5,0.3-0.8
					C202.8,50.4,202.7,50.3,202.6,50.3z"/>
				<path class="st1" d="M202.8,50.4c-0.1,0.4-0.2,0.7-0.2,0.8c0,0,0.1,0,0.1,0.1c0.1-0.1,0.2-0.4,0.4-0.7
					C203,50.5,202.9,50.5,202.8,50.4z"/>
				<path class="st1" d="M204.5,51.3c0,0,0.1,0,0.1,0c0.2-0.2,0.3-0.3,0.5-0.4c0.1,0,0.1,0,0.1,0.1c0.1,0,0.1-0.1,0.2-0.1
					c0,0,0,0-0.1,0c0.3-0.2,0.4-0.5,0.5-0.6c0.1,0,0.2-0.2,0.4-0.3c-1.6,0.9-2.7,1.6-1.1,0.8c-0.3,0.2-0.6,0.3-0.8,0.5
					C204.4,51.2,204.4,51.3,204.5,51.3z"/>
				<path class="st1" d="M194,27.3c-10.5,0-19.1,8.5-19.1,19.1s8.5,19.1,19.1,19.1S213,56.9,213,46.4S204.5,27.3,194,27.3z
					 M203.9,35.6c-0.1,0-0.3-0.1-0.4-0.2c-0.1-0.2,0.2-0.2,0.4,0C204.1,35.5,203.9,35.5,203.9,35.6z M196.3,28.1
					c0.2,0.1-0.2,0.1,0.2,0.2c-0.2,0.1-0.7,0.2-1.1,0.2l-0.3,0C195.6,28.3,195.9,28.1,196.3,28.1z M194.4,33.1c0.1-0.1,0.5,0,0.7,0
					c0.2,0,0.1,0.1,0.1,0.2c0,0.1-0.5,0.1-0.7,0.1C194.3,33.3,194.4,33.2,194.4,33.1z M191.2,31.5c0.2-0.2,0.6,0,0.6-0.1
					c0.2,0,0.5,0,0.8,0c0,0.1-0.1,0.2-0.4,0.3s-0.6,0.2-0.9,0.3c-0.2,0.1-0.4,0-0.5,0C190.8,31.8,190.6,31.7,191.2,31.5z
					 M182.7,35.6c0.2-0.2,0.2-0.1,0.2,0c-0.2,0.2-0.4,0.3-0.6,0.4C182.2,36,182.5,35.8,182.7,35.6z M178.1,45.2
					c0.2-0.4,0.4-1,0.8-1.4c0,0,0,0-0.1,0c0,0,0.1-0.1,0.1,0l0,0c0.1,0,0.1-0.1,0.2-0.2c0.1-0.1,0.4-0.3,0.5-0.4
					c0-0.1,0.1-0.2,0.2-0.3c0.1-0.1,0,0,0,0c0,0.1-0.1,0.2,0,0.2c0-0.1,0.1-0.1,0.1,0c0,0.1,0,0.4-0.1,0.6c0,0-0.1,0.1-0.2,0.2
					c0,0.2-0.4,0.5-0.4,0.8c-0.1,0-0.1,0.1-0.1,0.1c0,0-0.1,0.1-0.1,0.2c-0.1,0.1-0.1,0.3-0.2,0.4h0c-0.1,0.3-0.2,0.4-0.3,0.5
					c-0.1,0.1-0.2,0.2-0.3,0.5c0-0.3-0.1-0.1-0.1-0.5c0,0,0-0.1,0-0.3c0-0.1,0-0.2,0-0.3C178.2,45.4,178.1,45.3,178.1,45.2z
					 M177.8,49.1c-0.1,0-0.1-0.2-0.2-0.4c-0.1-0.2-0.1-0.5-0.1-0.2c0-0.1,0-0.2-0.1-0.2c0-0.1,0-0.2,0-0.3c0,0,0,0,0,0
					c-0.2-0.1-0.4-0.3-0.4-0.8c0.1-0.6,0.2-1.5,0.2-1.6c0-0.4,0.1-0.5,0.2-0.6c0.1-0.1,0.2-0.4,0.2-0.3c0.1-0.1,0.1-0.3,0.1-0.2
					c0.1-0.2,0.2-0.1,0.2,0c0,0,0,0,0,0.1c0.1,0.2,0.1,0.2,0.1,0.6c0,0,0,1.1-0.2,1.8c0,0.2,0,0.3-0.1,0.5c0,0.1,0.1,0.2,0.1,0.3
					c0,0,0.2,0.7,0.1,0.8c0,0.1,0.1,0.3,0.1,0.3c0,0.1,0,0.2,0,0.4c0,0.1,0,0.1,0,0.2c0,0.1-0.1,0-0.2,0
					C177.9,49.4,177.8,49.4,177.8,49.1z M184.1,58.3l-0.6-0.1l0-0.1c-0.4-0.2-0.6-0.3-0.9-0.6c-0.4-0.5-0.4-1-0.7-1.5
					c0-0.2,0.1,0.1,0.3,0.2c0-0.1,0.2-0.1,0-0.2c0.2,0.1,0.3,0,0.4,0l-0.1-0.2c0.2,0.1,0.3,0.2,0.5,0.2c-0.1-0.2-0.2-0.2-0.2-0.3
					c0.2,0.4,0.6,0.5,0.9,0.8l0-0.1c0.1,0.2,0.1,0.4,0.4,0.5l0-0.1c0.2,0.3,0.3,0.6,0.5,0.9C184.8,58.3,184.4,58.2,184.1,58.3
					C184.1,58.3,184.1,58.3,184.1,58.3z M195,58.7c0.4-0.1,0.5-0.1,0.2,0c-3.2,1.1-7.2,1.7-10-0.6C188.4,58.9,191.7,59.6,195,58.7z
					 M189.4,56.3c0.2,0,0.2,0.1,0.2,0.2c-0.1,0-0.2,0-0.3,0C189.3,56.3,189.3,56.3,189.4,56.3z M203.4,60.1c-0.2,0.1,0.1-0.1,0-0.1
					C203.5,60,203.4,60.1,203.4,60.1z M204.5,59.1c-0.2,0.2-0.3,0.1-0.6,0.4c-0.1,0.1,0,0,0.1,0c-0.2,0.1-0.4,0.2-0.4,0.3
					c-0.1,0.1-0.1,0.2-0.2,0.2c-0.6,0.3-1.3,0.7-2,1c0,0,0.1,0,0.1,0c0,0-0.1,0-0.1,0l0,0c-0.1,0-0.2,0-0.4,0.1
					c-0.2,0-0.4,0.1-0.6,0.1c0.4-0.1,0-0.1-0.1-0.1c-0.1,0.1-0.3,0.1-0.5,0.2c-0.2,0-0.3,0.1-0.4,0.1l0.5-0.1
					c0.1-0.1,0.3-0.2,0.2-0.2c-0.1,0-0.2,0.1-0.3,0.1c0.1,0,0.2,0,0.3-0.1c0.1-0.1-0.2-0.1-0.4,0c0.6-0.2,0.8-0.4,1.1-0.6
					c0,0-0.1,0-0.2,0c0.1,0,0.4-0.1,0.5-0.1c0.2-0.2,0.9-0.3,1.1-0.5c0.1,0,0.1,0,0.2,0c0.1,0,0.2-0.1,0.3-0.1
					c0.2-0.1,0.4-0.2,0.6-0.3v0c0.4-0.2,0.6-0.3,0.8-0.3c0.2-0.1,0.4-0.1,0.7-0.3c-0.4,0.3,0,0.2-0.4,0.6
					C204.4,59.1,204.5,59.1,204.5,59.1z M202,56.2c0.1,0,0.1-0.1,0.2-0.1c0.1,0,0.2,0,0.2-0.1c0.2,0,0.2,0.1,0.1,0.2
					c-0.1,0.1-0.3,0.2-0.5,0.1C201.9,56.4,201.8,56.3,202,56.2z M205.9,58.6L205.9,58.6L205.9,58.6L205.9,58.6z M208.8,48
					C209,47.6,208.8,48.1,208.8,48c0.1,0.1,0,0.2-0.1,0.4v0.1c-0.1,0.1-0.1,0-0.2,0.2l-0.1,0.4c-0.1,0.2-0.1,0-0.1,0
					c-0.1,0.1-0.1,0.2-0.2,0.3c-0.1,1.4-0.4,2.8-1.1,4.1c0.2-1,0.4-2.1,0.5-3.2c-0.1,0.1-0.1,0.2-0.2,0.3c0-0.1,0.1-0.2,0.1-0.2
					c-0.1,0.1-0.3,0.4-0.4,0.4c0.3-0.4-0.2,0-0.2-0.1c0.1-0.1,0.1-0.3,0.3-0.5c-0.1,0.1-0.3,0.2-0.4,0.3c-0.1,0.8-0.2,1.6-0.4,2.3
					c0,0,0,0,0,0.1c0.1,0,0.2,0,0.4,0c0,0,0.1-0.1,0.1-0.1c0.1-0.1,0.3-0.2,0.3-0.2c0.1,0,0.3,0,0,0.4c0,0.2-0.4,0.3-0.4,0.4
					c-0.1,0.1-0.2,0.2-0.3,0.2c0.5,0.2,1.1,0.3,1.8,0.5c-0.7-0.2-1.3-0.3-1.8-0.5c-0.1,0-0.1,0.1-0.2,0.1c0,0,0-0.1,0-0.2
					c-0.1,0-0.1,0-0.2,0c-0.1,0.2-0.1,0.3-0.2,0.5c0.2,0.1,0.4,0.2,0.6,0.3c-0.2-0.1-0.4-0.2-0.6-0.3c-0.1,0.1-0.1,0.2-0.1,0.4
					c0.7,0.4,1.6,0.9,2.3,1.4c0.1-0.1,0.1-0.2,0.2-0.3c-0.1,0.2-0.1,0.2-0.1,0.3c0.1,0.1,0.3,0.2,0.4,0.2c-0.1-0.1-0.3-0.1-0.4-0.2
					c0,0.1,0,0.1,0.1,0.1c0.1,0,0.1,0-0.1,0.4c0,0-0.1,0.3-0.3,0.6c-0.1,0.2-0.3,0.4-0.3,0.5c0,0,0,0,0,0.1c0,0,0-0.1,0-0.1
					c0,0-0.1,0,0.1-0.2c-0.1,0.1-0.1,0.2-0.2,0.3s-0.2,0.2-0.3,0.3s-0.2,0.2-0.4,0.3c-0.1,0.1-0.3,0.3-0.4,0.4c-0.1,0-0.1-0.1-0.4,0
					c0,0,0,0,0,0c0,0,0,0,0,0c0,0,0,0,0,0c0,0,0,0,0,0c0,0,0-0.1-0.1-0.1l0,0l-0.1,0l0.1-0.1c-0.4-0.6-0.8-1.3-1.2-2
					c-0.5,0.8-1.1,1.5-2,2c0.5-0.7,1-1.4,1.4-2.1c-0.5-1.1-0.8-1.9-1.1-2.3l0,0c0,0,0,0,0,0c-0.4-0.9-0.4-0.6,0.1,0.7
					c-0.7-1.9-0.7-1.9-0.2,0.1c-0.2-1-0.3-1.4-0.3-1.1l0,0l0,0c0,0.3,0.1,1.3,0.3,3.2c-0.4-3.6-0.5-3.9-0.4-1
					c-0.1-2.6-0.1-2.6-0.3,0c0.1-2.9,0.1-2.5-0.4,1c0.4-3.6,0.5-4.2,0-2.1c0.1-0.3,0.1-0.5,0.1-0.6c0,0,0,0-0.1,0
					c-0.1,0.4-0.4,1.5-0.8,2.9c0,0.1,0.1,0.1,0.1,0.2c0,0-0.1-0.1-0.1-0.2c-0.1,0.2-0.1,0.5-0.2,0.7c0,0,0.1,0,0.1,0
					c0,0,0,0.1-0.1,0.2c0,0.1-0.1,0.2-0.1,0.3c0-0.1,0.1-0.2,0.1-0.3c0,0,0,0,0,0c-0.1,0-0.1,0-0.2,0c-1.3,1.1-2.4,1.8-3.2,2.3
					c0,0,0.1,0,0.1,0c0.1,0.1-0.2,0.2-0.5,0.2c-1.4,0.7-2.2,0.7-2.5,0.5c0.1,0,0.2-0.1,0.3-0.1c-0.4,0.1-0.7-0.1-1.1,0
					c0.1-0.1-0.3-0.2-0.4-0.1c-0.1-0.2-0.2-0.3-0.2-0.5c0.2,0,0.6,0,0.5-0.2c0.2,0,0.6,0.1,0.7,0c0.4,0.2,0.6,0.2,0.9,0.4
					c0.1,0.1-0.3,0.2-0.1,0.2c0.3-0.1,0.6-0.2,0.9-0.3c-0.1-0.4-0.1-0.7-0.2-1c0,0-0.1,0-0.1,0c-3.3,1.1-6.8,1.2-7,0.6
					c2.6,0.1,4.3,0.1,6.7-0.6c0.2,0,0.3-0.1,0.4-0.1c-0.1-0.8-0.2-1.6-0.4-2.3c0,0-0.1,0-0.1,0c-0.2,0-0.1-0.1-0.1-0.1
					c0.1,0,0.1,0,0.2-0.1c-0.5-2.9-0.9-4.8-1.4-6c0,0.3,0,0.6-0.1,0.9c0-0.3,0-0.7,0-1c-0.1-0.2-0.2-0.4-0.3-0.6
					c-0.1,0.9-0.3,2.1-0.4,3.6c0.2-1.5,0.3-2.7,0.4-3.6c-0.2-0.2-0.4-0.4-0.6-0.4c-0.3,1-0.7,2.5-1.2,4.2c0.4,0,0.7,0,1.1,0
					c0,0,0,0,0-0.1c0.2,0.1,0.8,0.2,1.1,0.2c0.2,0.1-0.2,0.1-0.1,0.1c0,0.1,0.2,0.1,0.3,0.1c-0.1,0.2-0.2,0.3-0.2,0.5
					c-0.2-0.1-0.4,0.2-0.6,0.1c-0.1,0.1-0.3,0.1-0.3,0.2c-0.1,0-0.1-0.1-0.2-0.1c-0.4,0.1-0.9,0.1-1.1,0.2c0-0.1,0.2-0.1,0.2-0.2
					c-0.1,0-0.3,0-0.5,0c-0.1,0.5-0.3,0.9-0.4,1.4c0.1-0.5,0.3-1,0.4-1.4c0,0-0.1,0-0.1,0c0.2,0-0.1-0.1-0.1-0.1
					c-0.4-0.1-0.4,0-0.3-0.1c-0.1-0.1-0.5-0.2-0.6-0.2c0,0,0.1,0,0.2,0c-0.1-0.1,0.2-0.2-0.2-0.3c0.1-0.1,0.3-0.2,0.5-0.2
					c0.3-0.1,0.6-0.2,0.8-0.2c0.1,0,0.1,0,0.1,0c0.5-1.8,0.9-3.2,1.1-4.2c-0.2,0-0.5,0-0.7,0.1c-0.4,0.9-0.9,2-1.5,3.3
					c0.6-1.3,1.1-2.4,1.4-3.3c-0.2,0.1-0.4,0.2-0.6,0.4c-0.1,0.2-0.3,0.5-0.4,0.7c0.1-0.3,0.3-0.5,0.4-0.7c-0.1,0.1-0.2,0.2-0.3,0.2
					c-0.9,1.5-2.6,4.3-3.9,6.6c0.1-0.3,0.3-0.5,0.4-0.8c0,0,0,0,0,0c-0.4,0-0.2,0.1-0.1,0.2l-0.2-0.1c0.1,0.1-0.1,0.2-0.3,0.2
					l-0.1-0.1c-0.3,0,0.1,0.2-0.1,0.3c-0.1-0.1,0-0.3-0.5-0.4c0,0,0,0,0,0c-0.1,0.1-0.1,0.1-0.1,0.2c0.3,0.2,0.5,0.3,0.8,0.5
					c0.4,0.1,0.5,0.2,0.2,0.1c-0.4-0.1-0.8-0.3-1.1-0.4c-0.5,0.7-1.1,1.5-1.6,2.3c0.6-0.8,1.1-1.6,1.6-2.3c-2.3-0.9-4.6-2.1-5.4-4.5
					c1.1,1.2,2.3,2.3,3.7,3.2c0.2-0.1,0.4-0.2,0.4-0.3c-0.1-0.1-0.1,0-0.2-0.1c0.3,0.1,0.7,0.1,1,0.2l-0.1-0.1
					c0.3,0,0.6,0.1,0.9,0.2c0.1,0,0.1,0,0.2,0c0.1,0,0.1,0.2,0.3,0.2c1.6-2.3,2.8-4,3.3-5.2c-0.4,0.5-0.8,1.1-1.3,1.7
					c0.5-0.6,0.9-1.2,1.3-1.7c0.3-0.7,0.5-1.3,0.4-1.7c-1.1,1.1-2.8,2.8-4.8,4.8c2.1-2.1,3.8-3.8,4.8-4.9c-0.1-0.2-0.2-0.4-0.4-0.5
					c-0.8,0.6-1.8,1.3-3,2.2c1.3-0.9,2.2-1.7,3-2.2c-0.1-0.1-0.2-0.1-0.4-0.1c-0.4,0.2-0.7,0.5-1.2,0.7c0.4-0.3,0.8-0.5,1.1-0.7
					c-0.2,0-0.4,0-0.7,0c-0.2,0.1-0.4,0.2-0.7,0.4c0.2-0.1,0.4-0.2,0.7-0.4c-0.1,0-0.3,0-0.5,0c0,0.1,0,0.1,0,0.2
					c-0.2,0.3-0.6,0.3-1.1,0c-0.4,0.2-0.8,0.3-1.2,0.5c0.4-0.2,0.8-0.4,1.2-0.5c0,0,0,0-0.1,0c0,0,0,0-0.1,0
					c-1.6,0.2-3.7,0.8-6.5,1.5c0.7,1.4,1.6,2.8,2.7,3.9c0.3,0.3,0.4,0.4,0.1,0.2c-1.4-1-2.7-2.4-3.5-4c-0.1,0-0.1,0-0.2,0
					c1.1,2,2.1,3.4,3.8,5c-0.5-0.3-1.1-0.7-1.6-1.2c-1.8-1.8-2.3-3-2.5-3.8c-0.6,0.2-1.2,0.3-1.8,0.5c0.6-0.2,1.2-0.3,1.8-0.5
					c0-0.2,0-0.3-0.1-0.5c0.1,0.2,0.2,0.3,0.3,0.4c0.1,0,0.1,0,0.2-0.1c-0.8-1.5-1.2-3.2-0.8-5c0.3,1.6,0.8,3.2,1.5,4.8
					c2.6-0.7,4.7-1.2,6.2-1.8c-0.1-0.2-0.2-0.4-0.2-0.5c-1.2,0.3-2.5,0.7-4,1.1c1.5-0.4,2.8-0.8,4-1.1c0,0,0-0.1,0-0.1
					c0,0,0,0,0.1,0c-0.3-0.2-0.4-0.4-0.3-0.6c0.1-0.2,0.4-0.2,0.7,0c0.2,0.1,0.3,0.3,0.3,0.5c0,0,0.1,0,0.1,0
					c0.7-0.2,1.4-0.4,1.9-0.5c0.1-0.1,0.1-0.2,0.2-0.3c0,0-0.1,0-0.1,0c0,0,0.1,0,0.1,0c0.1-0.1,0.1-0.3,0.1-0.4
					c-1,0.1-2.4,0.3-4.2,0.5c1.9-0.2,3.3-0.4,4.2-0.5c0-0.1-0.1-0.2-0.1-0.3c-0.6,0-1.2,0-2.1,0.1c5-0.2-2.4-0.2-7.2-0.3
					c4.8-0.1,12.2,0,7.2-0.3c0.7,0,1.3,0,1.8,0.1c-0.1-0.1-0.3-0.3-0.4-0.4c-0.9-0.1-2-0.2-3.4-0.4c1.3,0.1,2.4,0.3,3.3,0.4
					c-1.3-1-3.9-2.2-7.7-4c-0.4,1.5-0.6,3-0.5,4.4c-0.1-0.8-0.2-1.7-0.3-2.5c0.1-0.7,0.2-1.5,0.3-2.2c-0.6-0.3-1.2-0.6-1.9-0.9
					c0.7,0.3,1.3,0.6,1.9,0.9c0.3-1.6,1-3.1,2.2-4.2c-0.2,0.4-0.4,0.8-0.6,1.2c0,0,0.1-0.1,0.1-0.1l0.3-0.2
					c-0.1,0.1-0.3,0.3-0.5,0.5c0,0,0,0,0,0c-0.4,1-0.8,2-1.1,3c4.7,2.1,7.6,3.3,9,3.3c-0.1,0-0.3-0.1-0.4-0.1c0.2,0,0.3,0.1,0.4,0.1
					c0.2,0,0.4,0,0.6-0.1c-1-0.4-2.5-1.1-4.6-2c2.3,1,3.8,1.7,4.6,2c0.1,0,0.1-0.1,0.2-0.1c-0.5-0.3-1.4-0.8-2.6-1.5
					c1.3,0.7,2.1,1.1,2.7,1.4c0,0,0.1-0.1,0.1-0.2c-0.5-0.4-1.3-0.9-2.5-1.7c1.2,0.8,2,1.3,2.6,1.6c0-0.1,0-0.1,0.1-0.2
					c-0.7-0.5-2-1.5-4-3c1.8,1.4,3.2,2.4,4,3c0-0.1,0-0.2,0-0.4c-0.2-0.1-0.4-0.3-0.6-0.5c0.2,0.2,0.4,0.4,0.6,0.5
					c0-0.1,0-0.1,0-0.2c-1-1-2.9-3-5.4-5.5c2.4,2.4,4.3,4.3,5.4,5.3c0-0.1,0-0.2-0.1-0.3c0,0-0.1-0.1-0.1-0.1c0,0,0.1,0,0.1,0.1
					c-0.1-0.3-0.2-0.7-0.4-1.1c-0.5-0.7-1.1-1.5-1.8-2.4c0.7,0.9,1.3,1.7,1.8,2.4c-0.5-1.4-1.3-3.2-2.5-5.6
					c-0.3,0.1-0.5,0.2-0.7,0.2c-0.2,0.1-0.4,0.1-0.7,0.2c0,0,0.1,0,0.1,0c-0.3,0-0.7,0.2-1.1,0.4c-0.2,0.1-0.4,0.2-0.5,0.3
					c-0.2,0.1-0.3,0.1-0.4,0.2c-0.3,0.1-0.6,0.2-0.8,0.3c-0.6,0.8-1.1,1.6-1.5,2.4c0,0.1-0.1,0.2-0.1,0.3c0.1,0-0.1,0.1-0.1,0.1
					c0.1-0.1,0.1-0.2,0.2-0.4c0.3-0.8,0.6-1.6,1.1-2.3c-0.1,0-0.2,0-0.2,0c0.6-0.5,0-0.1,0-0.2c0.2-0.1,0.5-0.3,0.5-0.3
					c-0.4,0.1-0.6,0.5-0.8,0.5c0.2-0.2,0.3-0.2,0.3-0.3c0.1-0.1,0.1-0.1,0.1-0.2c0-0.1,0-0.1,0.1-0.2c0.1-0.2,0.7-0.5,1-0.7
					c0,0,0.1-0.1,0.1-0.1c-0.4,0.3,0-0.1-0.1,0c0.1,0,0.1-0.1,0.2-0.1c0.2-0.2,0.3-0.5,0.5-0.7c0.6-0.6,1.2-1.1,1.9-1.5
					c-0.1-0.2-0.2-0.3-0.2-0.5c0.1,0.2,0.2,0.3,0.2,0.5c1.1-0.6,2.2-1.1,3.5-1.3c-1.1,0.5-2.2,1.1-3.2,1.9c0.1,0.1,0.1,0.3,0.2,0.5
					c0.2-0.1,0.4-0.1,0.8-0.2c-0.1,0.1-0.2,0.1-0.3,0.2c0.2,0,0.6-0.1,0.8-0.1c-0.7,0.2,0.2,0.1,0.1,0.2c-0.1,0.1-0.4,0.2-0.8,0.4
					c0.2,0,0.5,0,0.6,0c-0.1,0-0.2,0-0.3,0.1c-0.1,0.1,0,0.1,0.2,0c-0.3,0.1-0.2,0.1-0.3,0.2c0.2,0,0.5-0.1,0.8-0.2
					c0.2,0,0.5-0.1,0.7-0.1c0.2,0,0.1,0.1,0.2,0.2c-0.4,0-0.8,0.3-1.1,0.3c-0.2,0-0.9,0.1-0.9,0c0,0-0.1,0-0.1,0
					c0,0,0.1,0.1,0.1,0.1c0,0,0,0,0,0c0,0,0,0,0,0c1.1,2.2,1.9,3.9,2.7,5.1c0.4,0.5,0.6,1,0.9,1.4c0.2,0.3,0.5,0.6,0.7,0.8
					c-0.2-0.5-0.7-1.5-1.5-2.9c0.8,1.4,1.3,2.4,1.7,3.1c0.2,0.1,0.4,0.2,0.5,0.2c-0.1-0.4-0.3-1-0.6-1.9c1.2,3.4,0.3,0.4-1.2-5.1
					c0,0,0,0,0,0c0,0,0,0,0,0c-0.1-0.3-0.2-0.6-0.2-0.9c0,0,0,0-0.1,0c-0.4,0-0.6,0.1-0.8,0c-0.2-0.1,0.3-0.3,0.7-0.3c0,0,0,0,0.1,0
					c-0.1-0.2-0.1-0.4-0.1-0.6c0.1,0.2,0.1,0.4,0.2,0.6c0.2,0,0.3,0,0.4,0.1c-0.1,0.1-0.1,0.2-0.3,0.2c0.1,0.3,0.2,0.6,0.2,0.9
					c0.1-0.1,0.3-0.1,0.5-0.2c0.3-0.1,0.7-0.2,1-0.2c0.2,0,0.5,0.1,0.7,0.1c0.1,0.2-0.3,0.3-0.3,0.4c-0.3,0-0.8-0.1-1,0
					c-0.2,0-0.4,0-0.5,0c-0.1,0-0.3,0-0.4-0.1c1.6,5.6,2.4,8.5,1.6,5c0.2,1,0.4,1.6,0.5,2c0.1,0,0.1,0,0.1-0.1
					c-0.1-0.7-0.2-2.4-0.6-5.2c-0.1,0-0.1,0-0.2,0c-0.4-0.1-0.1-0.3,0-0.5c0,0,0,0,0,0l0.1,0c0-0.1,0-0.1,0-0.2c0,0.1,0,0.2,0,0.2
					l0.4-0.2l0,0c0.2,0,0.4-0.1,0.6-0.1c0-1.6,0-3.5,0.1-5.1c0,1.6,0.1,3.5,0.1,5.1c0.1,0,0.2,0,0.4,0c0.2,0,0.4,0,0.6,0.1v0v0
					c0.3,0.1,0.6,0.2,1,0.3c0.1,0.1-0.2,0-0.3,0.1c0,0-0.1,0.1,0.1,0.1c-0.2,0-0.2,0.1-0.3,0.2l0.2,0c-0.2,0-0.4,0-0.5,0.2
					c0.1,0,0,0-0.2,0.1c-0.2,1.9-0.4,3.3-0.5,4.2c0.7-1.2,1.4-3.5,2.4-6.8c-0.4-0.1-0.8-0.2-0.9-0.4c0.2-0.1-0.1-0.4,0.5-0.3
					c0.1,0,0.3,0.1,0.4,0c0.1,0,0.1,0.1,0.2,0.1c0.2-0.5,0.3-1.1,0.5-1.7c-0.6-0.1-1.1-0.2-1.7-0.2c-0.5,0-0.7,0-0.3,0
					c0.7,0,1.4,0.1,2.1,0.1c0-0.1,0-0.1,0.1-0.2c0,0.1,0,0.1-0.1,0.2c1.4,0.2,2.8,0.4,4.1,1.1c0-0.1-0.6-0.4-0.2-0.5
					c0.1-0.1,0.5,0,0.8,0.1c0.5,0.2,0.2,0.3,0.2,0.5c-0.5-0.1-0.2,0.1-0.2,0.2c0.5,0.3,1,0.7,1.5,1.1c-1.9-1-3.9-1.9-6.1-2.3
					c-0.2,0.6-0.3,1.2-0.5,1.7c0.1,0,0.2,0,0.3,0.1c-0.1,0.1,0.1,0.5-0.1,0.5c-0.1,0-0.2,0-0.3,0c-0.9,3-1.4,5.2-1.6,6.6
					c0.1-0.2,0.1-0.4,0.2-0.7c-0.1,0.3-0.2,0.5-0.2,0.7c-0.1,0.5-0.1,0.9,0,1.3c0.4-0.6,1-1.8,1.9-3.4c-2.3,4.4-2.3,4.4,0.4,0.3
					c-2.9,4.7-2.5,4.2,1.6-1.4c-2.3,3.1-3.5,4.7-3.7,5.1c0,0,0,0,0,0c0.2-0.1,0.7-0.7,1.6-1.7c-0.7,0.8-1.2,1.4-1.5,1.7
					c0.1,0,0.1,0.1,0.2,0.1c0.4-0.3,0.9-0.8,1.7-1.5c-0.9,0.8-1.4,1.3-1.6,1.5c0,0,0.1,0,0.1,0c0.6-0.4,2.2-1.6,4.9-3.6
					c-5.6,4.2-6.1,4.6-1.4,1.6c-3.1,2-0.4,0.5,2.9-1.4c0,0,0,0-0.1-0.1c0,0-0.1,0-0.1,0c0-0.3-0.3-0.8-0.6-1
					c-0.1-0.2,0.2,0.1,0.2-0.1c0.1-0.1-0.1-0.2-0.1-0.3c0.3-0.1,0.4-0.2,0.7-0.4c0,0.3,0.5,0.1,0.6,0.3c0.2,0,0.3,0.1,0.4,0
					c0,0.1-0.1,0.1,0.1,0.2c0.1,0.1,0.2,0.1,0.3,0.2c0.4-0.2,0.7-0.5,1.1-0.7c-0.2-0.3-0.4-0.5-0.7-0.8c-0.4-0.4-0.4-0.5-0.1-0.2
					c0.4,0.4,0.7,0.7,1,1.1c0,0,0,0,0.1,0c0.2-0.1,0.4-0.2,0.6-0.3c-0.2,0.1-0.4,0.2-0.6,0.3c0.2,0,0.4,0.1,0.6,0.2
					c0.3,0.3,0.8,0.6,1,0.9c0,0-0.1-0.1-0.1,0c0.2,0.2,0.3,0.3,0.3,0.4c0,0.1,0.2,0.3,0.1,0.2c0,0.1,0.1,0.2,0,0.1
					c0,0.1-0.1,0.1-0.2,0.1c0,0,0,0,0-0.1c-0.1,0-0.2-0.1-0.5-0.3c0,0-0.1,0-0.1-0.1c1.5,2,2.5,4.3,2.4,6.8c0.1,0,0.1,0,0.1,0.2
					C209,47.4,208.7,48.1,208.8,48z M185.2,55.2L185.2,55.2L185.2,55.2C185.2,55.3,185.2,55.2,185.2,55.2z M181.4,46.6
					c0.1-0.1,0.1-0.2,0.2-0.3c0.1-0.1,0.3-0.1,0.2,0c0,0-0.1,0.1-0.1,0.2c0,0-0.1,0.1-0.1,0.1C181.5,46.7,181.4,46.7,181.4,46.6z
					 M181.6,45c0.1-0.1,0.2-0.3,0.4-0.4c0.1,0,0.1,0,0.2,0c0,0.1,0,0.2-0.3,0.4c-0.1,0-0.2,0.2-0.3,0.2
					C181.6,45.1,181.6,45,181.6,45z M183,41.9c-0.1,0.1-0.5,0.4-0.7,0.3c-0.2,0,0.1-0.3,0.3-0.4c0.2-0.1,0.3-0.1,0.4-0.1
					C183,41.8,182.8,42,183,41.9z M183.5,42.9L183.5,42.9c0.1-0.1,0.3-0.2,0.4-0.4c0.2,0,0.3-0.1,0.4-0.1c0.1,0,0,0.1-0.1,0.2
					c-0.1,0.1-0.3,0.2-0.3,0.3C183.7,43,183.5,43,183.5,42.9z M184.6,40.2c-0.1,0.1,0.3-0.1,0.3-0.1c0.2,0.1,0.4,0,0.5,0.1
					c-0.1,0.1-0.5,0.3-0.2,0.3c-0.2,0.1-0.5,0.2-0.5,0.3c-0.4,0.1-0.6,0.2-0.9,0.2c-0.1,0-0.1-0.2,0-0.2
					C183.7,40.9,184.4,40.5,184.6,40.2z M198.5,33.7c-0.1,0-0.4,0-0.5-0.1c-0.2-0.1-0.2-0.2,0-0.2c0.2,0,0.3,0,0.5,0.1
					C198.6,33.6,198.6,33.7,198.5,33.7z M198.8,33.9c0,0.1,0,0.2-0.1,0.2c-0.2,0-0.5,0-0.6-0.2c-0.1-0.1,0-0.1,0.1-0.2
					C198.4,33.8,198.6,33.8,198.8,33.9z M198.3,35.7C198.4,35.7,198.4,35.7,198.3,35.7c0.2-0.1,0.6-0.2,0.8,0s0.3,0.5,0.1,0.7
					c-0.1,0.2-0.4,0.2-0.6,0.2c0,0.1-0.1,0.2-0.1,0.4c-0.3,0.4-0.8,0.5-1.2,0.2c-0.4-0.3-0.5-0.8-0.2-1.2S197.9,35.4,198.3,35.7z
					 M199,34.6c-0.1-0.1-0.4-0.2-0.3-0.3c0.1-0.1,0.4-0.1,0.5,0c0.1,0.1,0.2,0.2,0.2,0.3C199.3,34.6,199.2,34.6,199,34.6z
					 M199.5,35.7c0.1-0.1,0.3-0.2,0.4-0.1s0.2,0.3,0.1,0.4s-0.3,0.2-0.4,0.1C199.4,36,199.4,35.8,199.5,35.7z M199.9,34.9
					c-0.1,0-0.2-0.1-0.3-0.2c0-0.1,0.1-0.1,0.3-0.1c0.3,0.1,0.4,0.2,0.6,0.4C200.4,35.1,200.1,34.9,199.9,34.9z M210.4,48.2
					c0,0.3,0.1,0.1,0.1,0.3c0-0.3-0.2-0.3-0.2-0.2l0,0.3c-0.1-0.2-0.1-0.4-0.2-0.6c-0.1-0.2-0.1-0.4-0.1-0.7c0-0.4,0.2-0.1,0.2-0.4
					c0,0.3,0.1,0.1,0.1,0.3c0.2,0,0.1,0.6,0.2,0.8C210.6,47.9,210.4,47.9,210.4,48.2z"/>
				<path class="st1" d="M196.9,45.8c0.4,0.1,0.9,0.2,1.6,0.4c-2.8-0.6-1.4-0.2,2.2,0.8c-0.1-0.2-0.1-0.4-0.1-0.6
					c0.1,0.2,0.1,0.4,0.2,0.6c0,0,0,0,0,0c0.4,0.1,0.9,0.1,1.4,0.2c0-0.3,0-0.7,0-1c-2.8-0.3-4.6-0.5-5.4-0.6
					C196.8,45.7,196.9,45.8,196.9,45.8z"/>
				<path class="st1" d="M202.5,50.2c-0.1,0.5-0.1,0.8-0.1,1c0,0,0,0,0,0c0-0.1,0.1-0.4,0.2-0.8C202.6,50.3,202.5,50.2,202.5,50.2z"
					/>
				<path class="st1" d="M204,53.9c-0.6-0.5-0.7-0.6-0.5-0.4c0,0,0.1,0,0.1,0.1c0.2,0.2,0.7,0.7,1.2,1.3c0.1-0.2,0.2-0.3,0.2-0.5
					C202.8,52.8,202.5,52.6,204,53.9z"/>
				<path class="st1" d="M202.3,50.1c0,1,0,1,0.1,0.1C202.4,50.2,202.4,50.1,202.3,50.1z"/>
				<path class="st1" d="M202.2,47.5c0,0,0-0.1,0-0.2c-0.3,0-0.6-0.1-0.8-0.1C201.6,47.3,201.9,47.4,202.2,47.5z"/>
				<path class="st1" d="M203.2,51.2c0.1,0,0.1-0.1,0.2-0.1c0.1-0.1,0.2-0.1,0.3-0.1c0,0,0.1,0,0.1-0.1c-0.1,0-0.1-0.1-0.2-0.1
					C203.4,51,203.3,51.1,203.2,51.2z"/>
				<path class="st1" d="M205.2,54c0.1-0.1,0.1-0.2,0.1-0.3c-2.4-1-2.4-1-0.2,0.2C204,53.3,204.3,53.5,205.2,54z"/>
				<path class="st1" d="M205,54.4c0.1-0.1,0.1-0.2,0.2-0.3c-0.9-0.5-1.3-0.7-0.1,0C202.8,52.7,202.9,52.8,205,54.4z"/>
				<path class="st1" d="M203.7,51C203.7,51,203.7,51,203.7,51c0.1,0,0,0.1-0.1,0.2c0.1-0.1,0.2-0.1,0.3-0.2
					C203.9,51,203.8,51,203.7,51C203.7,50.9,203.7,51,203.7,51z"/>
				<path class="st1" d="M202.9,51.4C203,51.4,203,51.4,202.9,51.4c0.1-0.1,0.1-0.1,0.2-0.2c0.1-0.1,0.2-0.3,0.4-0.5
					c-0.1,0-0.1-0.1-0.1-0.1C203,51.2,202.9,51.5,202.9,51.4z"/>
				<path class="st1" d="M204.1,51.1c0,0-0.1,0-0.1-0.1C203.2,51.6,203.2,51.6,204.1,51.1z"/>
				<path class="st1" d="M204.4,51.3c-0.1,0-0.1-0.1-0.2-0.1C203.2,51.8,203.3,51.8,204.4,51.3z"/>
				<path class="st1" d="M204.6,51.3C204.6,51.3,204.5,51.3,204.6,51.3C204.5,51.3,204.5,51.3,204.6,51.3
					C204.6,51.3,204.6,51.3,204.6,51.3z"/>
			</g>
		</g>
		<path class="st1" d="M580.1,149.6c-1.5-1-3-1.3-3.5-0.7s0.4,1.9,1.9,2.9c1.5,1,3,1.3,3.5,0.7C582.4,152,581.5,150.6,580.1,149.6z"
			/>
	</g>
</g>
</svg>
