<?xml version="1.0" encoding="utf-8"?>
<!-- Generator: Adobe Illustrator 25.4.1, SVG Export Plug-In . SVG Version: 6.00 Build 0)  -->
<svg version="1.1" id="Layer_1" xmlns="http://www.w3.org/2000/svg" xmlns:xlink="http://www.w3.org/1999/xlink" x="0px" y="0px"
	 viewBox="0 0 128 140.1" style="enable-background:new 0 0 128 140.1;" xml:space="preserve">
<style type="text/css">
	.st0{fill:url(#SVGID_1_);}
	.st1{fill:url(#SVGID_00000142166855244819803770000014521150390318276750_);}
	.st2{fill:url(#SVGID_00000029744730595201273160000012998271758440467877_);}
	.st3{fill:url(#SVGID_00000078725941512535221110000013314197343081184916_);}
	.st4{fill:url(#SVGID_00000156578592564670998500000017235960650455693215_);}
	.st5{fill:url(#SVGID_00000085228049373500065170000003750032295880772031_);}
	.st6{fill:url(#SVGID_00000122691022108207383920000006157402031452490133_);}
	.st7{fill:url(#SVGID_00000003082934660572054670000015903285855193119116_);}
	.st8{fill:url(#SVGID_00000138558757855956273150000007786039098279347841_);}
	.st9{fill:url(#SVGID_00000013915357844032875500000011340448187310315137_);}
	.st10{opacity:0.64;}
	.st11{fill:#FFEC00;}
	.st12{opacity:0.57;}
	.st13{opacity:0.22;}
	.st14{fill:#FFE000;}
</style>
<radialGradient id="SVGID_1_" cx="18.6752" cy="378.5413" r="124.4093" fx="-99.8054" fy="416.489" gradientTransform="matrix(-0.5302 0.8479 0.4524 0.2829 -42.1225 2.4912)" gradientUnits="userSpaceOnUse">
	<stop  offset="0.4487" style="stop-color:#FFD238"/>
	<stop  offset="0.4799" style="stop-color:#F26F33"/>
	<stop  offset="0.5259" style="stop-color:#F16028"/>
	<stop  offset="1" style="stop-color:#FAA41C"/>
</radialGradient>
<path class="st0" d="M112,30.9c-0.9,5.1-1.7,10.1-2.5,15c-5.2,32.5-9.7,60.5-45.5,79.9v4.4c45.9-24.1,44.5-61.6,52.4-102.6
	c-0.1,0-0.1,0-0.2,0L112,30.9z"/>
<radialGradient id="SVGID_00000063600081188781705860000011300059953577690782_" cx="117.4309" cy="-94.3317" r="27.2981" gradientTransform="matrix(0.9764 0.216 6.081835e-02 -0.275 -11.6473 -33.0479)" gradientUnits="userSpaceOnUse">
	<stop  offset="1.245140e-02" style="stop-color:#F7E300"/>
	<stop  offset="0.5276" style="stop-color:#F39D1E"/>
	<stop  offset="1" style="stop-color:#F15D28"/>
</radialGradient>
<path style="fill:url(#SVGID_00000063600081188781705860000011300059953577690782_);" d="M116.2,27.7C96.7,25,78.8,19.3,64,11.8v4.3
	c14.3,7.1,30.8,12.2,48,14.8L116.2,27.7z"/>
<radialGradient id="SVGID_00000173138280883333828920000006476298513996918413_" cx="-36.3082" cy="52.3967" r="43.2116" fx="-46.9642" fy="57.1511" gradientTransform="matrix(0.8947 -0.4466 -1.1375 -2.2786 116.7269 190.2641)" gradientUnits="userSpaceOnUse">
	<stop  offset="0.1968" style="stop-color:#FFD238"/>
	<stop  offset="0.2641" style="stop-color:#FBAD18"/>
	<stop  offset="0.5372" style="stop-color:#F78D23"/>
	<stop  offset="0.6891" style="stop-color:#F26D27"/>
</radialGradient>
<path style="fill:url(#SVGID_00000173138280883333828920000006476298513996918413_);" d="M16,30.9c0.9,5.1,1.7,10.1,2.5,15
	c5.2,32.5,9.7,60.5,45.5,79.9v4.4C18.1,106.1,19.5,68.7,11.6,27.7c0.1,0,0.1,0,0.2,0L16,30.9z"/>
<radialGradient id="SVGID_00000157999164752616275420000010207856975047532220_" cx="1.7959" cy="-567.7538" r="30.2964" fx="1.6325" fy="-575.1626" gradientTransform="matrix(0.9572 -0.2893 -5.329126e-02 -0.1763 5.6338 -78.2454)" gradientUnits="userSpaceOnUse">
	<stop  offset="0" style="stop-color:#FFFFC0"/>
	<stop  offset="0.2175" style="stop-color:#F8DA10"/>
	<stop  offset="0.2946" style="stop-color:#F7D310"/>
	<stop  offset="0.4071" style="stop-color:#F5BF10"/>
	<stop  offset="0.4187" style="stop-color:#F5BD10"/>
	<stop  offset="0.9196" style="stop-color:#F39D1E"/>
	<stop  offset="1" style="stop-color:#F15D28"/>
</radialGradient>
<path style="fill:url(#SVGID_00000157999164752616275420000010207856975047532220_);" d="M11.8,27.7C31.3,25,49.2,19.3,64,11.8v4.3
	c-14.3,7.1-30.8,12.2-48,14.8L11.8,27.7z"/>
<radialGradient id="SVGID_00000131334639884258960790000007217429588142188710_" cx="20.8818" cy="51.273" r="105.9338" fx="90.0136" fy="101.2838" gradientTransform="matrix(1 0 0 -1 0 92)" gradientUnits="userSpaceOnUse">
	<stop  offset="0" style="stop-color:#FCB116"/>
	<stop  offset="0.4161" style="stop-color:#F5842B"/>
	<stop  offset="0.4548" style="stop-color:#FFD238"/>
	<stop  offset="0.5397" style="stop-color:#F27233"/>
	<stop  offset="1" style="stop-color:#FAA41C"/>
</radialGradient>
<path style="fill:url(#SVGID_00000131334639884258960790000007217429588142188710_);" d="M115.4,28.5c-7.7,40.2-6.3,76.9-51.4,100.6
	v4.6c48.6-25.5,47.1-65.1,55.4-108.6l-4.3,3.3C115.2,28.5,115.3,28.5,115.4,28.5z"/>
<radialGradient id="SVGID_00000137842565078203074790000004363058834150218647_" cx="118.903" cy="-556.669" r="103.7689" fx="118.8927" fy="-556.1098" gradientTransform="matrix(0.9499 0.3126 2.671064e-02 -8.116115e-02 -6.3546 -58.9007)" gradientUnits="userSpaceOnUse">
	<stop  offset="0" style="stop-color:#FFFFCF"/>
	<stop  offset="4.120145e-02" style="stop-color:#F8DA10"/>
	<stop  offset="6.994733e-02" style="stop-color:#F7CC10"/>
	<stop  offset="0.1073" style="stop-color:#F5C110"/>
	<stop  offset="0.1478" style="stop-color:#F5BD10"/>
	<stop  offset="0.3218" style="stop-color:#F4A61A"/>
	<stop  offset="0.434" style="stop-color:#F39D1E"/>
	<stop  offset="1" style="stop-color:#F15D28"/>
</radialGradient>
<path style="fill:url(#SVGID_00000137842565078203074790000004363058834150218647_);" d="M119.4,25.2C98.8,22.4,79.7,16.4,64,8.3
	v4.6c14.5,7.4,32.1,13,51.1,15.6L119.4,25.2z"/>
<radialGradient id="SVGID_00000048490479173726075620000000428508585398731447_" cx="82.7311" cy="-12.5979" r="78.5681" fx="146.8605" fy="-57.9892" gradientTransform="matrix(1 0 0 -1 0 92)" gradientUnits="userSpaceOnUse">
	<stop  offset="0" style="stop-color:#F15E29"/>
	<stop  offset="0.5603" style="stop-color:#FFD238"/>
	<stop  offset="0.5904" style="stop-color:#F27430"/>
	<stop  offset="0.995" style="stop-color:#FAA41C"/>
</radialGradient>
<path style="fill:url(#SVGID_00000048490479173726075620000000428508585398731447_);" d="M12.6,28.5c7.8,40.3,6.4,77,51.4,100.6v4.6
	C15.4,108.2,16.9,68.6,8.6,25.2l4.3,3.3C12.8,28.5,12.7,28.5,12.6,28.5z"/>
<radialGradient id="SVGID_00000022558566836105077750000002282094433510556321_" cx="5.3757" cy="-376.4629" r="22.1985" fx="4.4726" fy="-376.9398" gradientTransform="matrix(0.9631 -0.269 -6.687430e-02 -0.2394 8.4153 -63.0928)" gradientUnits="userSpaceOnUse">
	<stop  offset="1.245140e-02" style="stop-color:#F7E300"/>
	<stop  offset="0.5276" style="stop-color:#F39D1E"/>
	<stop  offset="1" style="stop-color:#F15D28"/>
</radialGradient>
<path style="fill:url(#SVGID_00000022558566836105077750000002282094433510556321_);" d="M8.6,25.2C29.2,22.4,48.3,16.4,64,8.3v4.6
	c-14.5,7.4-32.1,13-51.1,15.6L8.6,25.2z"/>
<radialGradient id="SVGID_00000168795835409517603030000009182397514143153810_" cx="-45.5092" cy="300.1282" r="39.8025" fx="-26.1572" fy="325.6094" gradientTransform="matrix(-0.5385 0.8426 0.8465 0.541 -221.9178 -62.9508)" gradientUnits="userSpaceOnUse">
	<stop  offset="0" style="stop-color:#F37025"/>
	<stop  offset="0.4656" style="stop-color:#F68D1F"/>
	<stop  offset="0.579" style="stop-color:#F8CA11"/>
	<stop  offset="1" style="stop-color:#F37624"/>
</radialGradient>
<path style="fill:url(#SVGID_00000168795835409517603030000009182397514143153810_);" d="M64,36.2c0,0,7,20.9,14.6,20.9
	s10.7-8.9,10.7-8.9s5.3,6.1,5.3,14.6s-2,20.9-30.5,41.2C34,82.3,32.1,71.9,33.9,60.5c1.4-9,4.2-11.4,4.2-11.4s4.9,8,11.5,8.3
	c6.7,0.3,7.5-8,7.5-8S59.9,37.3,64,36.2"/>
<radialGradient id="SVGID_00000026851825789114401170000012741051518739419524_" cx="60.2432" cy="239.6283" r="53.6657" fx="86.4627" fy="246.4431" gradientTransform="matrix(-1.704611e-02 0.9999 1.3342 2.274508e-02 -270.4161 5.4522)" gradientUnits="userSpaceOnUse">
	<stop  offset="9.787926e-02" style="stop-color:#F6821C"/>
	<stop  offset="0.3422" style="stop-color:#F1B132"/>
	<stop  offset="0.7348" style="stop-color:#F8D311"/>
	<stop  offset="0.9844" style="stop-color:#FF9000"/>
</radialGradient>
<path style="fill:url(#SVGID_00000026851825789114401170000012741051518739419524_);" d="M64,36.2c0,0,5.9,29,15.5,27.4
	c14.3-2.3,9.8-15.4,9.8-15.4s5.3,6.1,5.3,14.6s-2,20.9-30.5,41.2C34,82.3,32.1,71.9,33.9,60.5c1.4-9,4.2-11.4,4.2-11.4
	s-0.2,19,12.1,21.1C62.3,72.2,61,49,61,49S61.5,36.8,64,36.2"/>
<g class="st10">
	<path class="st11" d="M62.7,92.1c-1.1-2.9-1.9-6-2.2-9.1c-0.1-1.6-0.2-3.2,0-4.8c0.2-1.6,0.6-3.2,1.2-4.6c0.6-1.5,1.4-2.9,2.1-4.2
		c0.7-1.3,1.3-2.7,1.7-4.2c0.7-3,0.9-6.1,1.2-9.2l0,0c0.2,3.1,0.2,6.2-0.3,9.4c-0.3,1.6-0.8,3.1-1.5,4.5s-1.5,2.7-2,4.1
		c-1.2,2.8-1.5,5.8-1.3,8.9C61.7,86,62.1,89.1,62.7,92.1L62.7,92.1z"/>
</g>
<g class="st12">
	<path class="st11" d="M62.7,94.5c-0.9-3.2-1.3-6.5-1.1-9.8c0.1-1.7,0.4-3.3,1.1-4.9c0.6-1.6,1.7-3,3.1-4c1.3-1.1,2.8-1.9,4.4-2.4
		c1.6-0.6,3.1-1,4.5-1.7c1.5-0.7,2.9-1.5,4.2-2.4c0.7-0.4,1.3-0.9,2-1.4l2-1.5l0,0c-2.4,2.3-4.9,4.3-7.9,5.9c-1.5,0.8-3,1.3-4.6,1.9
		c-1.5,0.6-2.9,1.3-4.1,2.4c-2.6,1.9-3.6,5.1-4,8.3c-0.2,1.6-0.2,3.2-0.2,4.8C62.3,91.2,62.5,92.9,62.7,94.5L62.7,94.5z"/>
</g>
<g class="st13">
	<path class="st11" d="M66.8,89.7c-0.1-2,0.1-4,0.6-6c0.5-1.9,1.3-3.8,2.2-5.6c0.9-1.8,1.9-3.5,3-5.2c1.2-1.6,2.6-3.1,4.3-4.1l0,0
		c-1.6,1.2-2.8,2.8-3.8,4.4c-1,1.7-1.9,3.4-2.8,5.2c-0.9,1.8-1.7,3.5-2.2,5.4C67.5,85.8,67,87.7,66.8,89.7L66.8,89.7z"/>
</g>
<g class="st12">
	<path class="st14" d="M63.4,95.9c-0.4-1.9-0.4-4-0.2-6s0.7-4,1.3-5.8c0.6-1.9,1.3-3.8,2.2-5.6c0.9-1.8,2-3.5,3.6-4.7l0,0
		c-1.4,1.4-2.4,3.2-3.2,4.9c-0.8,1.8-1.4,3.7-2,5.5c-0.6,1.9-1.1,3.8-1.4,5.7C63.4,92,63.3,93.9,63.4,95.9L63.4,95.9z"/>
</g>
<g class="st13">
	<path class="st14" d="M64.1,98.2c-0.4-1.9-0.4-4-0.2-6s0.7-4,1.3-5.8c0.6-1.9,1.3-3.8,2.2-5.6c0.9-1.8,2-3.5,3.6-4.7l0,0
		c-1.4,1.4-2.4,3.2-3.2,4.9c-0.8,1.8-1.4,3.7-2,5.5c-0.6,1.9-1.1,3.8-1.4,5.7C64.1,94.3,64,96.2,64.1,98.2L64.1,98.2z"/>
</g>
<g class="st12">
	<path class="st11" d="M66,92.1c0.6-2.1,1.4-4.2,2.5-6.1s2.4-3.7,4.2-5.2c0.9-0.7,1.9-1.2,2.8-1.8c0.9-0.6,1.8-1.2,2.7-1.8
		c1.8-1.3,3.4-2.7,5-4.1l0,0c-1.3,1.7-2.9,3.3-4.6,4.7c-0.9,0.7-1.7,1.4-2.7,2c-0.5,0.3-0.9,0.6-1.4,0.9s-0.9,0.6-1.3,0.9
		c-1.7,1.3-3,3-4.2,4.8C67.9,88.2,66.9,90.1,66,92.1L66,92.1z"/>
</g>
<g class="st12">
	<path class="st11" d="M64.1,97.6c-0.2-2,0.1-4,0.5-6c0.5-2,1.3-3.8,2.2-5.6c0.9-1.8,1.9-3.5,3.1-5.2c1.2-1.6,2.6-3.1,4.4-4.1l0,0
		c-1.6,1.2-2.7,2.8-3.8,4.5c-1,1.7-1.9,3.4-2.8,5.2c-0.9,1.8-1.7,3.5-2.2,5.4C64.8,93.7,64.3,95.6,64.1,97.6L64.1,97.6z"/>
</g>
<g class="st12">
	<path class="st14" d="M63.3,100c0.7-2.1,1.6-4.1,2.7-6s2.5-3.7,4.2-5.1c0.9-0.7,1.8-1.2,2.7-1.8c0.9-0.6,1.8-1.2,2.7-1.9
		c1.7-1.3,3.4-2.8,4.9-4.3l0,0c-1.4,1.7-3,3.2-4.7,4.6c-0.9,0.7-1.8,1.3-2.7,1.9c-0.9,0.6-1.9,1.1-2.7,1.8c-1.7,1.3-3,3.1-4.2,4.9
		C65,96,64.1,98,63.3,100L63.3,100z"/>
</g>
<g class="st13">
	<path class="st14" d="M63.2,94.9c-0.2-2.1-0.7-4.2-1.3-6.2c-0.7-2-1.5-4-2.6-5.7c-1.2-1.8-2.6-3.3-4.1-4.9c-1.5-1.5-3.1-3-4.8-4.2
		l0,0c1.9,1.1,3.5,2.5,5.1,3.9c1.6,1.5,3,3.1,4.3,4.9s2,3.9,2.6,5.9C63,90.6,63.3,92.8,63.2,94.9L63.2,94.9z"/>
</g>
<g class="st12">
	<path class="st11" d="M63.4,96.3c-0.5-2.2-1.1-4.4-2-6.4s-2-4-3.7-5.4c-0.4-0.3-0.9-0.6-1.3-0.9c-0.5-0.3-1-0.5-1.5-0.8
		c-1-0.6-2-1.2-2.9-1.9c-1.8-1.4-3.4-3.1-4.7-5l0,0c1.6,1.6,3.3,3.1,5.1,4.3c0.9,0.6,1.9,1.2,2.9,1.7l1.5,0.8c0.5,0.3,1,0.6,1.5,1
		c1.8,1.6,2.9,3.7,3.7,5.8C62.8,91.7,63.3,94,63.4,96.3L63.4,96.3z"/>
</g>
<g>
	<path class="st11" d="M71.8,91.6c1.1-1.6,2.4-3,3.7-4.4c1.3-1.4,2.7-2.7,4.1-4.1c1.3-1.3,2.6-2.8,3.6-4.3c1.1-1.6,1.9-3.3,2.8-5
		l0,0c-0.6,1.8-1.3,3.6-2.3,5.3c-1,1.7-2.2,3.2-3.5,4.6c-1.4,1.4-2.8,2.6-4.1,4C74.7,89,73.3,90.3,71.8,91.6L71.8,91.6z"/>
</g>
<g class="st12">
	<path class="st11" d="M61.7,87.1c-0.4-1.8-1.1-3.5-1.9-5.1c-0.8-1.6-1.9-3-3.1-4.3c-1.2-1.3-2.6-2.4-4.1-3.4s-3.1-1.8-4.7-2.8l0,0
		c1.7,0.6,3.4,1.3,5.1,2.2c1.6,0.9,3.2,2,4.5,3.3c1.3,1.4,2.3,3,3.1,4.7C61.2,83.4,61.7,85.2,61.7,87.1L61.7,87.1z"/>
</g>
<g class="st12">
	<path class="st11" d="M63.4,97.6c-2.4-1.8-4.6-3.8-6.8-5.8s-4.3-4.2-6.2-6.5s-3.5-4.9-4.9-7.5c-0.7-1.3-1.3-2.7-1.8-4.1
		s-1-2.8-1.3-4.3l0,0c1.1,2.8,2.3,5.5,3.7,8.1s3.1,5,5,7.3c1.8,2.3,3.9,4.4,6,6.6C59.2,93.4,61.3,95.5,63.4,97.6L63.4,97.6z"/>
</g>
<g class="st12">
	<path class="st14" d="M48.3,84.5c1.2,1.3,2.4,2.6,3.6,3.9l1.8,1.9c0.6,0.6,1.2,1.3,1.9,1.8c1.4,1.1,3,1.9,4.5,2.8
		c1.5,1,2.9,2.2,3.7,3.8l0,0c-0.9-1.5-2.4-2.6-3.9-3.5s-3.1-1.7-4.6-2.8c-0.7-0.5-1.4-1.2-2-1.8l-1.8-2C50.5,87.4,49.3,86,48.3,84.5
		L48.3,84.5z"/>
</g>
<g class="st12">
	<path class="st14" d="M47.3,78.5c2.2,0.5,4.2,1.6,6.1,2.9c1.9,1.3,3.6,2.9,4.8,5c0.3,0.5,0.6,1.1,0.8,1.6l0.6,1.5l1.2,2.9
		c0.9,1.9,1.8,3.9,2.8,5.9c-1.8-1.4-3.3-3-4.6-4.9c-0.6-0.9-1.2-1.9-1.7-2.9c-0.3-0.5-0.5-1-0.7-1.5s-0.4-0.9-0.7-1.3
		c-1-1.7-2.3-3.2-3.8-4.8C50.5,81.4,48.9,80,47.3,78.5z"/>
</g>
<g class="st12">
	<path class="st14" d="M48.5,78.5c1.9,1.1,3.7,2.4,5.3,3.8c1.6,1.5,3.1,3.2,4.1,5.1c0.5,1,0.8,2,1.2,3s0.8,2,1.3,3
		c0.9,2,2,3.8,3.2,5.7l0,0c-1.3-1.7-2.5-3.6-3.5-5.5c-0.5-1-0.9-2-1.4-3c-0.4-1-0.7-2.1-1.2-3c-1-1.9-2.4-3.6-4-5.1
		C52,81,50.3,79.7,48.5,78.5L48.5,78.5z"/>
</g>
<g class="st10">
	<path class="st11" d="M63.7,99.6c-1.1-3.6-1.6-7.4-1.8-11.2c0-1.9,0-3.8,0.3-5.8c0.2-1,0.4-1.9,0.7-2.9c0.3-0.9,0.7-1.8,1.1-2.7
		c0.8-1.7,1.6-3.4,2.1-5.1s0.7-3.5,0.6-5.3c-0.3-3.6-1.6-7.2-3.1-10.6l0,0c2.1,3.1,3.9,6.6,4.5,10.5c0.3,1.9,0.2,4-0.3,5.9
		s-1.3,3.7-2,5.4c-0.4,0.9-0.7,1.7-1,2.6c-0.3,0.8-0.5,1.7-0.7,2.6c-0.3,1.8-0.5,3.6-0.5,5.5C63.4,92.1,63.6,95.8,63.7,99.6
		L63.7,99.6z"/>
</g>
</svg>
